<?xml version="1.0" standalone="no"?>
<!DOCTYPE svg PUBLIC "-//W3C//DTD SVG 20010904//EN"
 "http://www.w3.org/TR/2001/REC-SVG-20010904/DTD/svg10.dtd">
<svg version="1.0" xmlns="http://www.w3.org/2000/svg"
 width="225.000000pt" height="225.000000pt" viewBox="0 0 225.000000 225.000000"
 preserveAspectRatio="xMidYMid meet">
<metadata>
Created by potrace 1.11, written by Peter Selinger 2001-2013
</metadata>
<g transform="translate(0.000000,225.000000) scale(0.100000,-0.100000)"
fill="#000000" stroke="none">
<path d="M617 1684 c-4 -43 -10 -51 -61 -86 -6 -4 -2 -25 13 -55 l22 -49 -65
-459 c-36 -253 -66 -468 -66 -477 0 -16 12 -18 118 -18 l118 0 40 288 41 287
107 -213 c70 -140 105 -220 101 -232 -4 -13 1 -24 18 -34 13 -9 34 -38 47 -66
l23 -49 27 16 c25 14 29 14 52 -1 24 -16 25 -16 48 34 13 27 33 57 46 65 14 9
21 21 17 33 -4 18 193 442 206 442 3 0 24 -128 46 -285 l39 -285 118 0 c106 0
118 2 118 18 0 9 -30 224 -66 477 l-65 459 22 48 23 49 -24 17 c-13 9 -28 20
-33 23 -5 4 -12 27 -14 53 l-6 46 -120 0 -120 0 7 -41 c4 -22 9 -66 12 -97 l6
-57 -140 -283 c-77 -156 -143 -286 -146 -289 -3 -3 -69 124 -147 283 l-141
289 6 57 c3 31 8 75 12 97 l7 41 -120 0 -120 0 -6 -46z m122 -133 c15 -27 -9
-56 -37 -47 -21 7 -31 44 -15 59 13 13 42 7 52 -12z m829 -13 c3 -22 -2 -29
-22 -34 -32 -8 -46 1 -46 30 0 30 9 38 40 34 19 -2 26 -10 28 -30z m-420 -830
c30 -30 -1 -73 -36 -51 -23 14 -25 29 -7 47 20 19 27 20 43 4z"/>
</g>
</svg>
