<svg aria-hidden="true" style="position: absolute; width: 0; height: 0; overflow: hidden;" version="1.1" xmlns="http://www.w3.org/2000/svg" xmlns:xlink="http://www.w3.org/1999/xlink">
<defs>
<symbol id="icon-icon-trash-can" viewBox="0 0 32 32">
<title>icon-trash-can</title>
<path fill="#4e4d4d" style="fill: var(--color1, #4e4d4d)" d="M-1536-953.6h2048v2723.2h-2048z"></path>
<path fill="#000" style="fill: var(--color2, #000)" d="M-1145.6-729.6h1267.2c3.535 0 6.4 2.865 6.4 6.4v2390.4c0 3.535-2.865 6.4-6.4 6.4h-1267.2c-3.535 0-6.4-2.865-6.4-6.4v-2390.4c0-3.535 2.865-6.4 6.4-6.4z"></path>
<path fill="#fff" style="fill: var(--color3, #fff)" d="M-1145.6-729.6h1267.2c3.535 0 6.4 2.865 6.4 6.4v2390.4c0 3.535-2.865 6.4-6.4 6.4h-1267.2c-3.535 0-6.4-2.865-6.4-6.4v-2390.4c0-3.535 2.865-6.4 6.4-6.4z"></path>
<path fill="#eee" style="fill: var(--color4, #eee); stroke: var(--color5, #bbb)" stroke="#bbb" stroke-linejoin="miter" stroke-linecap="butt" stroke-miterlimit="4" stroke-width="1.6" d="M-1081.6-16h1139.2c3.535 0 6.4 2.865 6.4 6.4v0 57.6h-1152v-57.6c0-3.535 2.865-6.4 6.4-6.4v0z"></path>
<path fill="#777" style="fill: var(--color6, #777)" d="M25 26.306c0 1.182-0.896 2.139-1.995 2.139-1.106 0-1.998-0.957-1.997-2.141v-15.274c0-1.181 0.891-2.139 1.997-2.139 1.099 0 1.995 0.958 1.995 2.139v15.275zM17.997 26.306c0 1.182-0.896 2.139-1.994 2.139-1.107 0-2.003-0.957-2-2.141v-15.274c-0.003-1.181 0.893-2.139 2-2.139 1.098 0 1.992 0.958 1.994 2.139v15.275zM10.992 26.306c0 1.182-0.896 2.139-1.997 2.139-1.104 0-1.997-0.957-1.995-2.141v-15.274c-0.002-1.181 0.891-2.139 1.995-2.139 1.102 0 1.997 0.958 1.997 2.139v15.275zM25.526 2.354h-6.653c-0.298-1.346-1.469-2.354-2.874-2.354-1.408-0.002-2.582 1.008-2.877 2.354h-8.574c-1.63 0.002-2.949 1.355-2.949 3.018 0 0.002 0 0.005 0 0.008 0 1.225 0.743 2.277 1.803 2.729l0.019 0.007 0.037 20.8c0 1.702 1.347 3.085 3.013 3.085h19.056c1.664 0 3.014-1.382 3.014-3.086l0.032-20.798c1.081-0.458 1.826-1.51 1.826-2.736 0-0.003 0-0.006 0-0.008v0c0-1.664-1.322-3.016-2.95-3.018h-1.923z"></path>
</symbol>
<symbol id="icon-icon-angle" viewBox="0 0 32 32">
<title>icon-angle</title>
<path fill="#777" style="fill: var(--color6, #777)" d="M8 16c0 0.848 0.337 1.661 0.935 2.259l11.212 11.203c0.57 0.537 1.341 0.867 2.189 0.867 1.765 0 3.196-1.431 3.196-3.196 0-0.847-0.329-1.616-0.867-2.188l0.002 0.002-8.953-8.947 8.953-8.947c0.536-0.57 0.865-1.34 0.865-2.187 0-1.765-1.431-3.196-3.196-3.196-0.848 0-1.618 0.33-2.19 0.869l0.002-0.002-11.212 11.203c-0.596 0.598-0.935 1.411-0.935 2.259z"></path>
</symbol>
<symbol id="icon-icon-com-camera" viewBox="0 0 32 32">
<title>icon-com-camera</title>
<path fill="#4e4d4d" style="fill: var(--color1, #4e4d4d)" d="M25.366 19.559v-4.905l-3.878 1.939v1.026l3.878 1.939zM20.189 16.192v-3.486h-1.18c-0.033 0-0.064-0.005-0.095-0.010-0.689 0.546-1.571 0.876-2.53 0.876-0.954 0-1.831-0.326-2.527-0.873l0.009 0.007h-2.79c-0.502 0.533-1.213 0.866-2.001 0.866h-0c-0.788-0-1.499-0.333-2-0.865l-0.001-0.001h-0.441v8.802h13.556v-5.316zM9.075 9.359c-0.804 0.001-1.456 0.652-1.457 1.457v0c0.001 0.804 0.653 1.456 1.457 1.456h0c0.804-0.001 1.456-0.652 1.456-1.456v-0c-0.001-0.804-0.652-1.456-1.456-1.457h-0zM16.383 6.633c-1.554 0-2.82 1.264-2.82 2.819 0.002 1.557 1.263 2.818 2.82 2.82h0c1.557-0.002 2.818-1.263 2.82-2.82v-0c-0.002-1.556-1.264-2.817-2.82-2.819h-0zM26.358 13.050c0.191 0.118 0.308 0.328 0.308 0.553v7.007c0 0 0 0.001 0 0.001 0 0.358-0.29 0.648-0.648 0.648-0.001 0-0.001 0-0.002 0h0c-0.099 0-0.198-0.023-0.29-0.068l-4.238-2.12v3.085c0 0.359-0.291 0.65-0.65 0.65h-6.105l2.99 2.99c0.121 0.118 0.196 0.283 0.196 0.465 0 0.359-0.291 0.65-0.65 0.65-0.182 0-0.347-0.075-0.465-0.196l-3.394-3.393-3.393 3.393c-0.118 0.118-0.28 0.19-0.459 0.19-0.359 0-0.65-0.291-0.65-0.65 0-0.179 0.073-0.342 0.19-0.459l2.989-2.99h-6.104c-0 0-0 0-0 0-0.359 0-0.65-0.291-0.65-0.65v-10.101c0-0.36 0.291-0.65 0.65-0.65h0.4c-0.041-0.177-0.065-0.381-0.065-0.59v-0c0-1.52 1.236-2.756 2.756-2.756s2.756 1.236 2.756 2.756c0 0.203-0.023 0.4-0.065 0.591h0.992c-0.311-0.563-0.494-1.235-0.494-1.949 0-0.002 0-0.003 0-0.005v0c0-2.271 1.848-4.119 4.119-4.119s4.119 1.848 4.119 4.119c0 0.706-0.179 1.372-0.494 1.954h0.829c0.358 0 0.65 0.29 0.65 0.65v3.084l4.238-2.119c0.201-0.1 0.44-0.090 0.632 0.029zM18.209 18.894c0.355 0.016 0.637 0.307 0.637 0.665s-0.282 0.649-0.636 0.665l-0.001 0c-0.367 0-0.665-0.298-0.665-0.665s0.298-0.665 0.665-0.665v0z"></path>
</symbol>
<symbol id="icon-icon-com-diary" viewBox="0 0 32 32">
<title>icon-com-diary</title>
<path fill="#4e4d4d" style="fill: var(--color1, #4e4d4d)" d="M25.107 21.254v-6.385c-0.286 0.104-0.607 0.182-0.943 0.182-0.631 0-1.22-0.268-1.592-0.484-0.373 0.216-0.962 0.484-1.592 0.484-0.337 0-0.658-0.079-0.944-0.182l0.001 6.385h5.071zM23.995 23.628c0.6-0.001 1.088-0.478 1.108-1.073l0-0.002h-5.063c0.020 0.597 0.508 1.073 1.108 1.075h2.847zM21.709 10.345c-0.748 1.333-1.37 2.538-1.589 3.143 0.245 0.132 0.568 0.263 0.859 0.263 0.47 0 1.023-0.343 1.197-0.475 0.011-0.009 0.024-0.014 0.036-0.022 0.020-0.013 0.040-0.026 0.061-0.038 0.016-0.008 0.033-0.015 0.050-0.022 0.022-0.010 0.046-0.019 0.068-0.026 0.017-0.004 0.032-0.008 0.049-0.011 0.026-0.005 0.051-0.010 0.078-0.012 0.013-0.001 0.026-0.001 0.040-0.002 0.029-0 0.058 0 0.086 0.003 0.012 0.002 0.022 0.004 0.034 0.006 0.030 0.005 0.060 0.011 0.088 0.020 0.013 0.004 0.023 0.008 0.034 0.013l-0.002-0.001c0.029 0.010 0.056 0.022 0.083 0.036l0.034 0.022c0.018 0.011 0.036 0.020 0.052 0.033 0.174 0.132 0.728 0.475 1.198 0.475 0.291 0 0.615-0.132 0.86-0.264-0.217-0.599-0.84-1.807-1.59-3.142h-1.724zM26.404 13.769c0 0.007 0.003 0.016 0.003 0.022v8.724c-0.002 1.331-1.081 2.41-2.412 2.412h-2.847c-1.332-0.001-2.411-1.080-2.412-2.412v-8.724c0-0.005 0.002-0.013 0.002-0.018 0.001-0.033 0.006-0.065 0.011-0.098 0.136-1.168 2.27-4.79 3.238-6.384l0.029-0.048c0.116-0.188 0.321-0.312 0.555-0.312s0.439 0.123 0.554 0.309l0.002 0.003 0.028 0.048c0.974 1.602 3.126 5.254 3.241 6.402 0.004 0.025 0.008 0.049 0.008 0.074zM16.471 23.557v-15.248h-1.207v4.251c-0 0.359-0.291 0.649-0.65 0.649-0.167 0-0.319-0.063-0.435-0.167l0.001 0.001-0.948-0.853-0.95 0.853c-0.115 0.103-0.267 0.167-0.434 0.167-0.359 0-0.649-0.291-0.649-0.649 0-0 0-0.001 0-0.001v0-4.25h-2.4v15.248h7.672zM7.5 23.557v-15.248h-0.336c-0.293 0-0.53 0.238-0.53 0.531v14.186c0 0.293 0.238 0.531 0.53 0.531h0.336zM12.498 8.309v2.793l0.299-0.269c0.115-0.103 0.267-0.167 0.434-0.167s0.32 0.063 0.435 0.167l-0.001-0.001 0.299 0.269v-2.792h-1.467zM17.12 7.010c0.359 0 0.65 0.291 0.65 0.65v16.548c0 0.359-0.291 0.65-0.65 0.65h-9.956c-1.011-0.001-1.829-0.82-1.83-1.831v-14.187c0.001-1.010 0.82-1.829 1.83-1.83h9.957z"></path>
</symbol>
<symbol id="icon-icon-com-form" viewBox="0 0 32 32">
<title>icon-com-form</title>
<path fill="#4e4d4d" style="fill: var(--color1, #4e4d4d)" d="M26.19 22.616v-0.372h-20.646v0.372c0 0.326 0.265 0.591 0.591 0.591h19.464c0.326-0 0.591-0.265 0.591-0.592v-0zM7.438 9.94v11.027h16.858v-11.028c-0-0.366-0.297-0.663-0.663-0.663h-15.532c-0.366 0-0.663 0.298-0.663 0.663zM26.336 20.968c0.624 0.001 1.13 0.506 1.131 1.13v0.518c-0.001 1.031-0.837 1.867-1.868 1.869h-19.464c-1.032-0.001-1.867-0.837-1.868-1.869v-0.518c0.001-0.624 0.506-1.13 1.13-1.13h0.763v-11.028c0.001-1.071 0.87-1.939 1.941-1.94h15.532c1.071 0.001 1.939 0.869 1.94 1.94v11.028h0.763zM20.206 12.434c0.353 0 0.64 0.287 0.64 0.64s-0.287 0.64-0.64 0.64h-6.508c-0.353 0-0.64-0.287-0.64-0.64s0.287-0.64 0.64-0.64h6.508zM11.527 12.434c0.353 0 0.64 0.287 0.64 0.64s-0.287 0.64-0.64 0.64v0c-0.353 0-0.64-0.287-0.64-0.64s0.287-0.64 0.64-0.64v0zM11.527 14.567c0.353 0 0.64 0.287 0.64 0.64s-0.287 0.64-0.64 0.64v0c-0.353 0-0.64-0.287-0.64-0.64s0.287-0.64 0.64-0.64v0zM20.206 14.567c0.353 0 0.64 0.287 0.64 0.64s-0.287 0.64-0.64 0.64h-6.508c-0.353 0-0.64-0.287-0.64-0.64s0.287-0.64 0.64-0.64h6.508zM11.527 16.701c0.353 0 0.64 0.287 0.64 0.64s-0.287 0.64-0.64 0.64v0c-0.353 0-0.64-0.287-0.64-0.64s0.287-0.64 0.64-0.64v0zM20.206 16.701c0.353 0 0.64 0.287 0.64 0.64s-0.287 0.64-0.64 0.64h-6.508c-0.353 0-0.64-0.287-0.64-0.64s0.287-0.64 0.64-0.64h6.508z"></path>
</symbol>
<symbol id="icon-icon-com-friends" viewBox="0 0 32 32">
<title>icon-com-friends</title>
<path fill="#fff" style="fill: var(--color1, #fff)" d="M23.715 23.101c0 0.233-0.961 0.779-2.824 0.779s-2.824-0.546-2.824-0.779v-6.799c0-0.938 0.464-1.762 1.171-2.272 0.483 0.241 1.052 0.382 1.653 0.382h0c0.593 0 1.153-0.14 1.654-0.382 0.707 0.51 1.17 1.335 1.17 2.272v6.799zM13.933 23.101c0 0.233-0.961 0.779-2.824 0.779s-2.824-0.546-2.824-0.779v-6.799c0-0.938 0.464-1.762 1.17-2.272 0.483 0.241 1.052 0.382 1.653 0.382h0c0.593 0 1.153-0.14 1.654-0.382 0.707 0.51 1.17 1.335 1.17 2.272v6.799zM11.109 8.12c1.369 0.002 2.478 1.111 2.48 2.48v0c-0.002 1.369-1.111 2.478-2.479 2.479h-0c-1.369-0.002-2.478-1.111-2.479-2.479v-0c0.002-1.369 1.111-2.478 2.479-2.48h0zM20.891 8.12c1.369 0.002 2.478 1.111 2.48 2.48v0c-0.002 1.369-1.111 2.478-2.479 2.479h-0c-1.367 0-2.48-1.112-2.48-2.48 0.002-1.369 1.111-2.478 2.48-2.48h0zM29.628 17.193c-1.251-2.159-3.247-3.738-5.546-4.512 0.39-0.586 0.622-1.307 0.622-2.082 0-0 0-0 0-0v0c0-2.102-1.71-3.813-3.813-3.813s-3.813 1.71-3.813 3.813c0 0.56 0.122 1.091 0.34 1.569l-0.010-0.024h-2.817c0.208-0.454 0.33-0.986 0.33-1.546v-0c0-2.102-1.71-3.813-3.813-3.813s-3.813 1.71-3.813 3.813c0 0.768 0.23 1.483 0.623 2.082-2.3 0.774-4.297 2.353-5.547 4.512-0.057 0.096-0.090 0.211-0.090 0.335 0 0.245 0.132 0.459 0.329 0.575l0.003 0.002c0.096 0.057 0.211 0.090 0.335 0.090 0.245 0 0.459-0.133 0.575-0.33l0.002-0.003c0.926-1.573 2.28-2.807 3.902-3.562l0.054-0.023c-0.333 0.582-0.53 1.28-0.53 2.023 0 0.001 0 0.001 0 0.002v-0 6.799c0 1.559 2.24 2.112 4.157 2.112s4.158-0.553 4.158-2.112v-6.799c0-1.090-0.426-2.082-1.115-2.824h3.698c-0.691 0.737-1.115 1.731-1.115 2.824v6.799c0 1.559 2.239 2.112 4.158 2.112s4.158-0.553 4.158-2.112v-6.799c0-0.735-0.194-1.425-0.53-2.025 1.676 0.777 3.030 2.012 3.934 3.543l0.022 0.041c0.117 0.2 0.331 0.333 0.577 0.333 0.123 0 0.238-0.033 0.337-0.092l-0.003 0.002c0.201-0.117 0.333-0.331 0.333-0.577 0-0.123-0.034-0.239-0.092-0.338l0.002 0.003z"></path>
</symbol>
<symbol id="icon-icon-com-pencil-ruler" viewBox="0 0 32 32">
<title>icon-com-pencil-ruler</title>
<path fill="#4e4d4d" style="fill: var(--color1, #4e4d4d)" d="M14.371 22.516v-13.17c-0.001-0.614-0.498-1.111-1.112-1.112h-2.847c-0.614 0-1.112 0.498-1.113 1.112v2.915h1.292c0.359 0 0.65 0.291 0.65 0.65s-0.291 0.65-0.65 0.65v0h-1.292v0.89h1.292c0.359 0 0.65 0.291 0.65 0.65s-0.291 0.65-0.65 0.65h-1.292v0.89h1.292c0.359 0 0.65 0.291 0.65 0.65s-0.291 0.65-0.65 0.65v0h-1.292v0.89h1.292c0.359 0 0.65 0.291 0.65 0.65s-0.291 0.65-0.65 0.65v0h-1.292v0.89h1.292c0.359 0 0.65 0.291 0.65 0.65s-0.291 0.65-0.65 0.65v0h-1.292v0.196c0.001 0.614 0.498 1.111 1.112 1.112h2.847c0.614-0.001 1.111-0.498 1.112-1.112v-0zM13.259 6.933c1.331 0.002 2.41 1.081 2.411 2.412v13.171c-0.001 1.331-1.080 2.41-2.411 2.412h-2.847c-1.331-0.001-2.41-1.080-2.412-2.411v-13.171c0.002-1.331 1.081-2.41 2.412-2.412h2.847zM11.835 9.696c0.005-0 0.011-0 0.016-0 0.379 0 0.687 0.307 0.687 0.687s-0.307 0.687-0.687 0.687c-0.006 0-0.012-0-0.018-0l0.001 0c-0.372-0.009-0.67-0.313-0.67-0.687s0.298-0.677 0.67-0.687l0.001-0zM21.927 23.628c0.6-0.001 1.088-0.478 1.108-1.073l0-0.002h-5.063c0.020 0.597 0.508 1.074 1.108 1.075h2.847zM19.641 10.345c-0.748 1.333-1.37 2.539-1.589 3.144 0.245 0.131 0.568 0.263 0.858 0.263 0.47 0 1.023-0.343 1.197-0.476 0.011-0.008 0.024-0.014 0.036-0.022 0.020-0.013 0.040-0.026 0.061-0.037 0.016-0.008 0.033-0.015 0.050-0.022 0.023-0.010 0.046-0.018 0.069-0.026 0.016-0.004 0.032-0.007 0.048-0.010 0.026-0.006 0.051-0.010 0.078-0.012 0.013-0.001 0.027-0.001 0.041-0.002 0.028-0 0.057 0 0.086 0.003 0.011 0.002 0.022 0.004 0.034 0.005 0.030 0.006 0.060 0.011 0.089 0.020l0.031 0.012c0.028 0.010 0.056 0.022 0.083 0.036 0.012 0.006 0.023 0.014 0.035 0.022 0.017 0.011 0.036 0.020 0.052 0.032 0.174 0.132 0.727 0.476 1.197 0.476 0.292 0 0.615-0.132 0.86-0.264-0.217-0.599-0.84-1.807-1.59-3.143h-1.724zM17.968 21.254h5.071v-6.385c-0.286 0.103-0.607 0.182-0.943 0.182-0.631 0-1.22-0.267-1.592-0.484-0.373 0.216-0.961 0.484-1.592 0.484-0.336 0-0.657-0.079-0.944-0.182l0.001 6.385zM24.336 13.769c0 0.006 0.002 0.016 0.002 0.022v8.725c-0.001 1.331-1.080 2.41-2.411 2.412h-2.847c-1.331-0.002-2.41-1.081-2.411-2.412v-8.725c0-0.005 0.002-0.013 0.002-0.018 0-0.032 0.005-0.065 0.011-0.098 0.135-1.168 2.269-4.789 3.238-6.383l0.029-0.048c0.116-0.189 0.321-0.312 0.555-0.312s0.439 0.124 0.553 0.31l0.002 0.003 0.028 0.048c0.974 1.602 3.126 5.254 3.241 6.402 0.004 0.024 0.008 0.049 0.008 0.074z"></path>
</symbol>
<symbol id="icon-icon-com-world" viewBox="0 0 32 32">
<title>icon-com-world</title>
<path fill="#fff" style="fill: var(--color1, #fff)" d="M8.145 10.927c0.6 0.452 1.281 0.854 2.005 1.178l0.067 0.027c-0.246 1.115-0.387 2.395-0.387 3.708 0 0.009 0 0.018 0 0.027v-0.001c0 1.322 0.14 2.575 0.387 3.734-0.791 0.35-1.472 0.753-2.099 1.224l0.027-0.020c-0.898-1.435-1.425-3.124-1.425-4.938s0.528-3.504 1.426-4.939zM15.412 19.783v5.335c-1.53-0.412-2.859-2.213-3.609-4.694 1.115-0.363 2.34-0.584 3.609-0.642zM15.412 6.614v5.334c-1.269-0.058-2.494-0.279-3.609-0.642 0.75-2.48 2.079-4.282 3.609-4.693zM16.734 11.948v-5.335c1.53 0.411 2.859 2.212 3.609 4.693-1.116 0.363-2.34 0.584-3.609 0.642zM16.734 19.783c1.27 0.058 2.494 0.278 3.609 0.642-0.75 2.48-2.079 4.282-3.609 4.694v-5.335zM20.994 15.866c0 1.142-0.12 2.241-0.328 3.264-1.216-0.387-2.546-0.611-3.932-0.667v-5.194c1.386-0.056 2.716-0.28 3.932-0.667 0.209 0.981 0.328 2.107 0.328 3.262 0 0.001 0 0.001 0 0.002v-0zM20.057 7.418c0.334 0.158 0.605 0.306 0.867 0.466l-0.041-0.023 0.064 0.039c0.265 0.162 0.522 0.338 0.77 0.527l0.059 0.044c0.256 0.198 0.504 0.409 0.74 0.634l0.018 0.016c0.244 0.233 0.473 0.476 0.687 0.73l0.011 0.014c-0.486 0.362-1.039 0.68-1.636 0.956-0.424-1.379-1.021-2.562-1.742-3.489 0.048 0.020 0.097 0.036 0.144 0.058 0.020 0.009 0.039 0.019 0.059 0.028zM9.612 9.119l0.018-0.016c0.236-0.224 0.484-0.436 0.74-0.633l0.059-0.044c0.249-0.188 0.506-0.364 0.771-0.527l0.064-0.039c0.221-0.137 0.492-0.285 0.771-0.419l0.056-0.024 0.058-0.028c0.047-0.022 0.096-0.038 0.144-0.058-0.721 0.926-1.318 2.11-1.742 3.489-0.597-0.276-1.15-0.594-1.636-0.956 0.226-0.268 0.455-0.511 0.695-0.741l0.003-0.003zM11.152 15.865c0-1.143 0.12-2.241 0.328-3.264 1.216 0.387 2.546 0.611 3.932 0.667v5.194c-1.386 0.056-2.716 0.28-3.932 0.667-0.208-0.981-0.328-2.108-0.328-3.264v0zM12.092 24.314c-0.336-0.159-0.608-0.308-0.871-0.469l0.041 0.023c-0.020-0.012-0.039-0.024-0.059-0.035-0.302-0.186-0.555-0.361-0.799-0.548l0.023 0.017-0.055-0.040c-0.275-0.213-0.519-0.423-0.751-0.644l0.004 0.004-0.010-0.009c-0.246-0.235-0.48-0.484-0.7-0.746 0.486-0.363 1.038-0.68 1.636-0.956 0.424 1.378 1.021 2.562 1.742 3.489-0.048-0.021-0.098-0.037-0.145-0.059-0.018-0.008-0.036-0.018-0.055-0.027zM22.521 22.622c-0.238 0.227-0.488 0.44-0.747 0.64l-0.054 0.040c-0.25 0.19-0.51 0.367-0.776 0.531-0.020 0.012-0.039 0.024-0.059 0.035-0.269 0.162-0.547 0.311-0.831 0.446-0.018 0.009-0.036 0.018-0.055 0.027-0.047 0.022-0.097 0.038-0.144 0.059 0.72-0.927 1.318-2.111 1.742-3.49 0.597 0.276 1.15 0.594 1.636 0.956-0.227 0.269-0.456 0.512-0.697 0.743l-0.003 0.003-0.011 0.009zM24.001 20.804c-0.6-0.451-1.28-0.854-2.004-1.178l-0.067-0.027c0.246-1.158 0.386-2.412 0.386-3.734 0-0.007 0-0.015 0-0.024 0-1.314-0.141-2.595-0.408-3.829l0.022 0.119c0.791-0.351 1.472-0.753 2.099-1.224l-0.027 0.020c0.898 1.435 1.425 3.125 1.425 4.939s-0.527 3.503-1.425 4.938zM26.749 15.865c0-0.001 0-0.001 0-0.002 0-2.153-0.642-4.156-1.745-5.828l0.025 0.040 0.014-0.012-0.356-0.486c-0.055-0.075-0.113-0.145-0.17-0.218-0.241-0.311-0.478-0.585-0.727-0.848l0.005 0.005c-0.108-0.114-0.218-0.226-0.331-0.334-0.102-0.098-0.208-0.192-0.314-0.286-0.468-0.419-0.986-0.803-1.536-1.139l-0.046-0.026c-0.052-0.032-0.104-0.064-0.157-0.095-0.164-0.095-0.33-0.186-0.499-0.272-0.041-0.021-0.084-0.040-0.126-0.061-0.516-0.264-1.123-0.504-1.754-0.686l-0.074-0.018c-0.484-0.144-1.064-0.263-1.658-0.333l-0.051-0.005c-0.072-0.007-0.144-0.012-0.216-0.019-0.285-0.030-0.619-0.047-0.956-0.049h-0.002c-0.321 0-0.64 0.019-0.958 0.049-0.072 0.006-0.144 0.012-0.216 0.019-0.275 0.031-0.548 0.074-0.819 0.126-0.12 0.022-0.238 0.049-0.357 0.076-0.898 0.209-1.685 0.498-2.425 0.87l0.062-0.028c-0.042 0.020-0.084 0.040-0.126 0.061-0.169 0.086-0.335 0.177-0.499 0.272-0.053 0.031-0.104 0.064-0.157 0.095-0.391 0.237-0.722 0.466-1.039 0.712l0.024-0.018c-0.195 0.151-0.384 0.308-0.568 0.472-0.106 0.093-0.212 0.187-0.314 0.285-0.21 0.203-0.409 0.412-0.599 0.628l-0.010 0.012c-0.154 0.174-0.302 0.353-0.444 0.537-0.056 0.073-0.115 0.143-0.169 0.218l-0.356 0.486 0.014 0.012c-1.079 1.632-1.721 3.635-1.721 5.788 0 0.001 0 0.002 0 0.003v-0c0 2.134 0.636 4.12 1.721 5.79l-0.014 0.012 0.356 0.486c0.053 0.073 0.11 0.141 0.165 0.212 0.146 0.188 0.296 0.371 0.454 0.549 0.199 0.227 0.396 0.434 0.602 0.633l0.003 0.003c0.097 0.093 0.197 0.181 0.297 0.27 0.242 0.217 0.505 0.432 0.778 0.633l0.029 0.020c0.258 0.188 0.523 0.364 0.797 0.529 0.050 0.030 0.099 0.062 0.15 0.091 0.165 0.096 0.331 0.187 0.502 0.274 0.038 0.020 0.078 0.037 0.116 0.056 0.519 0.265 1.13 0.507 1.765 0.69l0.075 0.019c0.222 0.068 0.52 0.142 0.824 0.202l0.064 0.011c0.271 0.052 0.544 0.094 0.819 0.125 0.072 0.008 0.144 0.013 0.216 0.020 0.318 0.029 0.636 0.048 0.958 0.048s0.64-0.019 0.958-0.048c0.072-0.006 0.144-0.012 0.216-0.020 0.455-0.051 0.855-0.122 1.247-0.214l-0.070 0.014c0.178-0.041 0.355-0.087 0.531-0.137 0.388-0.109 0.697-0.214 1-0.334l-0.069 0.024c0.31-0.119 0.613-0.252 0.909-0.399 0.039-0.019 0.078-0.036 0.116-0.056 0.17-0.087 0.337-0.178 0.502-0.274 0.050-0.029 0.1-0.061 0.15-0.091 0.605-0.367 1.13-0.757 1.614-1.191l-0.010 0.009c0.1-0.089 0.2-0.177 0.297-0.27 0.209-0.202 0.406-0.409 0.595-0.624l0.010-0.012c0.158-0.178 0.308-0.361 0.454-0.55 0.054-0.071 0.112-0.139 0.165-0.212l0.356-0.486-0.014-0.012c1.078-1.632 1.72-3.635 1.72-5.788 0-0.001 0-0.002 0-0.002v0z"></path>
</symbol>
<symbol id="icon-logo_2" viewBox="0 0 137 32">
<title>logo_2</title>
<path fill="#0081c4" style="fill: var(--color7, #0081c4)" d="M129.925 31.802l-121.444 0.001c-0 0-0 0-0 0-2.192 0-4.015-1.578-4.395-3.661l-0.004-0.027-4.012-22.672c-0.484-2.734 1.621-5.243 4.4-5.243l127.854 0.013c2.467 0 4.467 2 4.467 4.467 0 0.165-0.009 0.328-0.026 0.489l0.002-0.020-2.398 22.658c-0.246 2.256-2.141 3.997-4.442 3.997-0 0-0.001 0-0.001 0h0z"></path>
<path fill="#fff" style="fill: var(--color3, #fff)" d="M125.475 26.43l-44.509 0.189c-0.004 0-0.008 0-0.013 0-1.374 0-2.533-0.924-2.888-2.184l-0.005-0.021-4.185-15.237c-0.534-1.943 0.964-3.849 2.979-3.792l50.959 1.462c1.619 0.048 2.913 1.372 2.913 2.999 0 0.174-0.015 0.344-0.043 0.509l0.002-0.018-2.266 13.588c-0.244 1.427-1.469 2.5-2.946 2.506h-0.001z"></path>
<path fill="#4d4c4c" style="fill: var(--color8, #4d4c4c)" d="M86.728 18.849c0.546 0 1.010-0.202 1.393-0.607 0.355-0.361 0.574-0.858 0.574-1.405 0-0.006-0-0.012-0-0.018v0.001c0-0.006 0-0.013 0-0.021 0-0.543-0.213-1.037-0.561-1.402l0.001 0.001c-0.335-0.374-0.82-0.608-1.359-0.608-0.014 0-0.028 0-0.041 0l0.002-0c-0.559 0-1.026 0.19-1.403 0.569s-0.564 0.857-0.564 1.432 0.19 1.062 0.57 1.46c0.338 0.368 0.822 0.598 1.359 0.598 0.010 0 0.020-0 0.031-0l-0.002 0zM84.808 14.964c0.546-0.603 1.202-0.906 1.968-0.906s1.409 0.272 1.933 0.814c0.524 0.543 0.786 1.197 0.786 1.962s-0.267 1.421-0.8 1.966c-0.534 0.546-1.178 0.819-1.934 0.819s-1.406-0.328-1.952-0.982v0.81h-0.782v-7.231h0.781v2.747zM102.437 18.878c0.534 0 0.994-0.193 1.379-0.578s0.579-0.866 0.579-1.442c0-0.575-0.19-1.057-0.57-1.446-0.342-0.36-0.824-0.584-1.359-0.584-0.012 0-0.024 0-0.037 0l0.002-0c-0.55 0-1.014 0.202-1.393 0.603-0.352 0.361-0.57 0.855-0.57 1.399 0 0.008 0 0.016 0 0.024v-0.001c0 0.546 0.193 1.020 0.578 1.422s0.849 0.602 1.389 0.602zM105.138 19.446h-0.782v-0.771c-0.572 0.63-1.231 0.945-1.977 0.945s-1.384-0.274-1.914-0.824c-0.492-0.494-0.795-1.175-0.795-1.927 0-0.014 0-0.027 0-0.041l-0 0.002c0-0.762 0.266-1.414 0.8-1.957s1.184-0.814 1.953-0.814c0.768 0 1.413 0.312 1.934 0.934v-0.8h0.782v5.254zM106.194 19.446v-7.23h0.8v7.23h-0.8zM114.346 18.878c0.842 0 1.485-0.415 1.928-1.244l0.675 0.347c-0.302 0.559-0.659 0.972-1.070 1.238s-0.903 0.4-1.475 0.4c-0.791 0-1.443-0.271-1.958-0.814-0.309-0.319-0.541-0.714-0.665-1.154l-0.005-0.019h0.838c0.098 0.278 0.248 0.519 0.454 0.72 0.357 0.351 0.783 0.526 1.278 0.526zM114.374 14.829c-0.9 0-1.498 0.476-1.794 1.427h3.626c-0.096-0.45-0.315-0.8-0.656-1.050-0.317-0.235-0.715-0.376-1.146-0.376-0.010 0-0.021 0-0.031 0l0.002-0zM112.484 16.96h-0.805c-0.002-0.039-0.005-0.077-0.005-0.116 0-0.765 0.258-1.42 0.776-1.966s1.158-0.82 1.924-0.82c0.765 0 1.404 0.259 1.919 0.776 0.514 0.518 0.781 1.226 0.8 2.126h-4.61zM118.769 19.447h-0.803v-3.207c0-0.962 0.265-1.62 0.788-1.954 0.744-0.475 1.676-0.054 1.715-0.036l-0.336 0.73c-0.158-0.072-0.64-0.214-0.949-0.016-0.344 0.222-0.416 0.817-0.416 1.277v3.206zM108.527 16.699l3.057 2.747h-1.147l-3.059-2.746 0.59-0.521 2.266-1.976 1.186-0.010-2.893 2.506z"></path>
<path fill="#0081c4" style="fill: var(--color7, #0081c4)" d="M97.274 13.5c-0.006 0.001-0.013 0.001-0.020 0.001-0.133 0-0.24-0.107-0.24-0.24s0.107-0.24 0.24-0.24c0.007 0 0.014 0 0.020 0.001l-0.001-0c0.124 0.010 0.22 0.114 0.22 0.239s-0.097 0.229-0.22 0.239l-0.001 0zM94.582 19.136c-0.004 0-0.009 0-0.013 0-0.121 0-0.219-0.098-0.219-0.219s0.098-0.219 0.219-0.219c0.005 0 0.009 0 0.014 0l-0.001-0c0.115 0.007 0.206 0.102 0.206 0.219s-0.091 0.212-0.205 0.219l-0.001 0zM97.431 12.232l-0.358-0.243-3.501 7.126 1.319 0.898 3.516-7.115-0.976-0.664zM91.822 13.48c-0.121 0-0.219-0.098-0.219-0.219s0.098-0.219 0.219-0.219v0c0.121 0 0.219 0.098 0.219 0.219s-0.098 0.219-0.219 0.219v0zM91.239 11.989l-1.117 7.859h1.614l1.099-7.859h-1.596z"></path>
<path fill="#000" style="fill: var(--color2, #000)" opacity="0.09" d="M93.677 18.902l-0.104 0.212 0.314 0.214zM95.23 19.328l-0.671 0.457 0.178 0.122 0.312-0.212zM94.574 17.071l-0.015 0.037 0.882 1.794 0.021-0.041z"></path>
<path fill="#000" style="fill: var(--color2, #000)" opacity="0.3" d="M96.857 16.035l-0.392-2.806-0.158 0.321 0.392 2.806z"></path>
<path fill="#0081c4" style="fill: var(--color7, #0081c4)" d="M97.274 13.5c-0.006 0.001-0.013 0.001-0.020 0.001-0.133 0-0.24-0.107-0.24-0.24s0.107-0.24 0.24-0.24c0.007 0 0.014 0 0.020 0.001l-0.001-0c0.124 0.010 0.22 0.114 0.22 0.239s-0.097 0.229-0.22 0.239l-0.001 0zM97.887 11.989h-1.595l1.098 7.859h1.614l-1.117-7.859z"></path>
<path fill="#000" style="fill: var(--color2, #000)" opacity="0.3" d="M92.267 16.050l-1.246-2.523-0.050 0.352 1.248 2.524z"></path>
<path fill="#0081c4" style="fill: var(--color7, #0081c4)" d="M94.582 19.136c-0.004 0-0.009 0-0.013 0-0.121 0-0.219-0.098-0.219-0.219s0.098-0.219 0.219-0.219c0.005 0 0.009 0 0.014 0l-0.001-0c0.121 0 0.219 0.098 0.219 0.219s-0.098 0.219-0.219 0.219v0zM91.822 13.48c-0.004 0-0.009 0-0.013 0-0.121 0-0.219-0.098-0.219-0.219s0.098-0.219 0.219-0.219c0.005 0 0.009 0 0.014 0l-0.001-0c0.115 0.007 0.206 0.102 0.206 0.219s-0.091 0.212-0.205 0.219l-0.001 0zM92.043 11.989l-0.357 0.243-0.978 0.665 3.516 7.115 1.32-0.898-3.502-7.126z"></path>
<path fill="#fff" style="fill: var(--color3, #fff)" d="M91.822 13.48c-0.121 0-0.219-0.098-0.219-0.219s0.098-0.219 0.219-0.219v0c0.121 0 0.219 0.098 0.219 0.219s-0.098 0.219-0.219 0.219v0zM94.582 19.136c-0.004 0-0.009 0-0.013 0-0.121 0-0.219-0.098-0.219-0.219s0.098-0.219 0.219-0.219c0.005 0 0.009 0 0.014 0l-0.001-0c0.121 0 0.219 0.098 0.219 0.219s-0.098 0.219-0.219 0.219v0zM97.274 13.5c-0.006 0.001-0.013 0.001-0.020 0.001-0.133 0-0.24-0.107-0.24-0.24s0.107-0.24 0.24-0.24c0.007 0 0.014 0 0.020 0.001l-0.001-0c0.124 0.010 0.22 0.114 0.22 0.239s-0.097 0.229-0.22 0.239l-0.001 0zM18.040 18.606c0.394-0.558 0.59-1.428 0.59-2.61 0-1.186-0.199-2.064-0.598-2.63s-0.994-0.85-1.786-0.85c-1.61 0-2.416 1.16-2.416 3.48 0 2.298 0.8 3.448 2.4 3.448 0.814 0 1.416-0.28 1.81-0.838zM16.246 9.882c1.893 0 3.327 0.518 4.303 1.554s1.464 2.555 1.464 4.561c0 2-0.49 3.521-1.472 4.562s-2.418 1.561-4.312 1.561c-1.864 0-3.295-0.522-4.29-1.569s-1.493-2.57-1.493-4.57c0-1.978 0.495-3.49 1.484-4.533s2.428-1.566 4.315-1.566zM30.237 18.472c0.456-0.566 0.684-1.432 0.684-2.598 0-1.090-0.216-1.897-0.647-2.423s-1.086-0.789-1.964-0.789h-0.936v6.659h0.716c0.976 0 1.692-0.283 2.147-0.85zM32.698 11.533c1.038 0.976 1.558 2.385 1.558 4.228 0 1.984-0.546 3.512-1.638 4.586s-2.629 1.61-4.608 1.61h-3.849v-11.887h4.116c1.909 0 3.382 0.488 4.421 1.464zM36.386 21.957v-11.888h3.23v11.888h-3.23zM45.188 12.687c-0.19 0.146-0.285 0.328-0.285 0.544 0 0.234 0.12 0.442 0.362 0.626s0.896 0.52 1.965 1.008c1.024 0.462 1.736 0.956 2.135 1.485s0.598 1.194 0.598 1.996c0 0.737-0.187 1.392-0.562 1.963s-0.914 1.016-1.618 1.334c-0.705 0.317-1.532 0.475-2.481 0.475-0.792 0-1.456-0.056-1.993-0.166-0.635-0.14-1.195-0.34-1.719-0.6l0.043 0.019v-2.862c0.613 0.314 1.25 0.56 1.912 0.736s1.269 0.264 1.822 0.264c0.478 0 0.827-0.082 1.050-0.248s0.334-0.378 0.334-0.638c0-0.004 0-0.008 0-0.013 0-0.155-0.050-0.299-0.136-0.415l0.001 0.002c-0.090-0.122-0.233-0.246-0.431-0.37s-0.726-0.379-1.582-0.764c-0.776-0.352-1.358-0.694-1.745-1.024-0.366-0.305-0.658-0.686-0.854-1.119l-0.008-0.020c-0.187-0.428-0.281-0.934-0.281-1.52 0-1.095 0.398-1.949 1.196-2.562s1.892-0.918 3.286-0.918c1.231 0 2.486 0.284 3.766 0.854l-0.984 2.48c-1.112-0.51-2.072-0.764-2.88-0.764-0.418 0-0.721 0.073-0.91 0.219zM51.801 21.956v-11.887h7.060v2.578h-3.848v1.87h3.563v2.578h-3.562v2.244h3.848v2.618h-7.062zM64.457 17.094h2.53l-0.513-1.952c-0.12-0.434-0.264-0.994-0.435-1.683-0.087-0.301-0.204-0.8-0.307-1.303l-0.030-0.177c-0.049 0.277-0.146 0.732-0.288 1.366-0.144 0.634-0.464 1.884-0.957 3.749zM67.825 10.020l3.928 11.936h-3.513l-0.586-2.227h-3.864l-0.602 2.227h-3.53l3.88-11.936h4.287z"></path>
</symbol>
<symbol id="icon-logo_3" viewBox="0 0 101 32">
<title>logo_3</title>
<path fill="#fff" style="fill: var(--color3, #fff)" d="M16.862 21.957c1.161 0 2.148-0.43 2.962-1.29s1.219-1.866 1.219-3.019c0-1.152-0.396-2.159-1.189-3.018s-1.783-1.29-2.972-1.29-2.183 0.402-2.982 1.208c-0.799 0.805-1.198 1.818-1.198 3.039s0.402 2.254 1.209 3.101c0.806 0.846 1.79 1.269 2.952 1.269zM12.782 13.709c1.162-1.282 2.556-1.924 4.182-1.924s2.995 0.576 4.11 1.729c1.114 1.154 1.67 2.542 1.67 4.166s-0.568 3.016-1.702 4.175c-1.134 1.16-2.504 1.739-4.11 1.739s-2.989-0.696-4.15-2.088v1.72h-1.66v-15.35h1.66v5.834zM50.251 22.018c1.134 0 2.112-0.409 2.931-1.228s1.23-1.838 1.23-3.059-0.404-2.245-1.21-3.070c-0.806-0.826-1.794-1.238-2.962-1.238s-2.156 0.427-2.962 1.28c-0.806 0.852-1.209 1.858-1.209 3.018s0.41 2.166 1.23 3.018c0.82 0.853 1.804 1.28 2.952 1.28zM55.99 23.226h-1.66v-1.638c-1.216 1.338-2.617 2.006-4.202 2.006s-2.942-0.583-4.069-1.75c-1.128-1.166-1.691-2.558-1.691-4.175s0.567-3.002 1.702-4.155c1.134-1.152 2.518-1.729 4.15-1.729s3.002 0.662 4.11 1.985v-1.698h1.66v11.154zM58.236 23.226v-15.35h1.702v15.35h-1.702zM75.562 22.018c1.79 0 3.156-0.88 4.099-2.64l1.434 0.736c-0.642 1.188-1.4 2.065-2.274 2.631s-1.92 0.849-3.136 0.849c-1.682 0-3.068-0.576-4.161-1.73-0.698-0.734-1.17-1.566-1.422-2.492h1.78c0.208 0.59 0.526 1.102 0.964 1.53 0.758 0.744 1.664 1.116 2.716 1.116zM75.623 13.422c-1.914 0-3.184 1.010-3.813 3.030h7.706c-0.205-0.955-0.67-1.699-1.394-2.231s-1.558-0.798-2.5-0.798zM71.606 17.945h-1.711c-0.003-0.082-0.010-0.162-0.010-0.246 0-1.624 0.55-3.015 1.65-4.175s2.463-1.74 4.090-1.74c1.626 0 2.985 0.55 4.078 1.648s1.661 2.602 1.702 4.513h-9.798zM84.963 23.225h-1.707v-6.806c0-2.043 0.563-3.439 1.674-4.149 1.582-1.010 3.562-0.116 3.646-0.078l-0.712 1.55c-0.339-0.152-1.362-0.456-2.018-0.032-0.73 0.47-0.882 1.733-0.882 2.709v6.807zM63.195 17.393l6.498 5.832h-2.439l-6.501-5.832 1.254-1.106 4.817-4.196 2.522-0.020-6.15 5.322z"></path>
<path fill="#0082c5" style="fill: var(--color9, #0082c5)" d="M39.277 10.6c-0.006 0-0.013 0-0.020 0-0.281 0-0.509-0.228-0.509-0.509s0.228-0.509 0.509-0.509c0.007 0 0.014 0 0.021 0l-0.001-0c0.272 0.011 0.489 0.235 0.489 0.508s-0.216 0.497-0.488 0.508l-0.001 0zM33.557 22.566c-0.257 0-0.466-0.208-0.466-0.466s0.208-0.466 0.466-0.466v0c0.257 0 0.466 0.208 0.466 0.466s-0.208 0.466-0.466 0.466v0zM39.613 7.908l-0.76-0.517-7.442 15.128 2.804 1.906 7.474-15.106-2.077-1.411zM27.689 10.558c-0.006 0-0.012 0-0.019 0-0.257 0-0.466-0.208-0.466-0.466s0.208-0.466 0.466-0.466c0.007 0 0.014 0 0.020 0l-0.001-0c0.249 0.011 0.446 0.215 0.446 0.465s-0.198 0.455-0.445 0.465l-0.001 0zM26.451 7.391l-2.374 16.687h3.432l2.334-16.687h-3.392z"></path>
<path fill="#000" style="fill: var(--color2, #000)" opacity="0.0225" d="M31.632 22.070l-0.221 0.45 0.669 0.454zM34.934 22.974l-1.427 0.97 0.38 0.258 0.662-0.451zM33.538 18.182l-0.032 0.078 1.874 3.81 0.043-0.087z"></path>
<path fill="#000" style="fill: var(--color2, #000)" opacity="0.15" d="M38.392 15.982l-0.834-5.96-0.336 0.683 0.834 5.957z"></path>
<path fill="#0082c5" style="fill: var(--color9, #0082c5)" d="M39.277 10.6c-0.006 0-0.013 0-0.020 0-0.281 0-0.509-0.228-0.509-0.509s0.228-0.509 0.509-0.509c0.007 0 0.014 0 0.021 0l-0.001-0c0.272 0.011 0.489 0.235 0.489 0.508s-0.216 0.497-0.488 0.508l-0.001 0zM40.582 7.391h-3.392l2.336 16.687h3.43l-2.374-16.687z"></path>
<path fill="#000" style="fill: var(--color2, #000)" opacity="0.15" d="M28.637 16.014l-2.65-5.356-0.106 0.747 2.652 5.36z"></path>
<path fill="#0082c5" style="fill: var(--color9, #0082c5)" d="M33.557 22.566c-0.257 0-0.466-0.208-0.466-0.466s0.208-0.466 0.466-0.466v0c0.257 0 0.466 0.208 0.466 0.466s-0.208 0.466-0.466 0.466v0zM27.689 10.558c-0.006 0-0.012 0-0.019 0-0.257 0-0.466-0.208-0.466-0.466s0.208-0.466 0.466-0.466c0.007 0 0.014 0 0.020 0l-0.001-0c0.249 0.011 0.446 0.215 0.446 0.465s-0.198 0.455-0.445 0.465l-0.001 0zM28.161 7.391l-2.836 1.928 7.473 15.106 2.804-1.906-7.441-15.128z"></path>
<path fill="#fff" style="fill: var(--color3, #fff)" d="M27.689 10.558c-0.006 0-0.012 0-0.019 0-0.257 0-0.466-0.208-0.466-0.466s0.208-0.466 0.466-0.466c0.007 0 0.014 0 0.020 0l-0.001-0c0.249 0.011 0.446 0.215 0.446 0.465s-0.198 0.455-0.445 0.465l-0.001 0zM33.557 22.566c-0.257 0-0.466-0.208-0.466-0.466s0.208-0.466 0.466-0.466v0c0.257 0 0.466 0.208 0.466 0.466s-0.208 0.466-0.466 0.466v0zM39.277 10.6c-0.006 0-0.013 0-0.020 0-0.281 0-0.509-0.228-0.509-0.509s0.228-0.509 0.509-0.509c0.007 0 0.014 0 0.021 0l-0.001-0c0.272 0.011 0.489 0.235 0.489 0.508s-0.216 0.497-0.488 0.508l-0.001 0z"></path>
</symbol>
<symbol id="icon-logo" viewBox="0 0 179 32">
<title>logo</title>
<path fill="#fff" style="fill: var(--color3, #fff)" d="M171.013 31.484l-66.168 0.28c-0.006 0-0.013 0-0.021 0-2.041 0-3.762-1.371-4.292-3.242l-0.008-0.031-6.221-22.624c-0.793-2.885 1.434-5.715 4.43-5.629l75.757 2.168c2.703 0.078 4.716 2.52 4.272 5.183l-3.369 20.175c-0.365 2.119-2.186 3.712-4.38 3.72h-0.001z"></path>
<path fill="#4d4c4c" style="fill: var(--color8, #4d4c4c)" d="M113.726 19.814c0.804 0 1.486-0.296 2.050-0.888s0.844-1.285 0.844-2.078-0.274-1.487-0.823-2.079c-0.548-0.592-1.234-0.888-2.056-0.888s-1.51 0.278-2.064 0.832c-0.553 0.554-0.83 1.252-0.83 2.093s0.278 1.552 0.837 2.135c0.558 0.582 1.238 0.874 2.042 0.874zM110.903 14.134c0.804-0.882 1.768-1.324 2.894-1.324s2.072 0.397 2.844 1.19c0.77 0.794 1.156 1.75 1.156 2.868s-0.393 2.077-1.178 2.875c-0.785 0.799-1.733 1.198-2.844 1.198s-2.068-0.478-2.872-1.437v1.184h-1.149v-10.571h1.149v4.016zM136.533 19.874c0.785 0 1.461-0.277 2.028-0.832s0.851-1.246 0.851-2.072c0-0.828-0.278-1.521-0.837-2.080s-1.241-0.839-2.050-0.839c-0.808 0-1.492 0.289-2.050 0.866s-0.837 1.26-0.837 2.046 0.284 1.467 0.851 2.045c0.568 0.578 1.248 0.866 2.042 0.866zM140.504 20.692h-1.149v-1.11c-0.842 0.906-1.811 1.358-2.907 1.358-1.098 0-2.036-0.394-2.816-1.185s-1.17-1.734-1.17-2.829c0-1.095 0.392-2.033 1.178-2.814 0.784-0.781 1.742-1.172 2.872-1.172s2.078 0.448 2.844 1.345v-1.15h1.149v7.557zM142.397 20.47v-10.824h0.946v10.824h-0.946zM154.671 19.887c1.232 0 2.173-0.589 2.822-1.766l0.987 0.493c-0.442 0.794-0.964 1.381-1.566 1.759s-1.322 0.568-2.16 0.568c-1.157 0-2.112-0.386-2.864-1.157-0.45-0.451-0.789-1.012-0.972-1.64l-0.007-0.027h1.226c0.143 0.394 0.362 0.737 0.664 1.024 0.471 0.461 1.117 0.746 1.829 0.746 0.014 0 0.029-0 0.043-0l-0.002 0zM154.446 14.066c-1.336 0-2.223 0.694-2.662 2.083h5.38c-0.142-0.657-0.467-1.168-0.973-1.534s-1.088-0.55-1.746-0.55zM151.641 17.177h-1.195c-0.002-0.057-0.006-0.112-0.006-0.169 0-1.117 0.384-2.074 1.152-2.87s1.719-1.197 2.854-1.197 2.084 0.378 2.848 1.133c0.762 0.755 1.159 1.79 1.187 3.103h-6.84zM161.115 20.941h-1.214v-4.762c0-1.43 0.4-2.406 1.191-2.902 1.125-0.706 2.534-0.081 2.593-0.054l-0.506 1.084c-0.242-0.106-0.969-0.318-1.436-0.022-0.518 0.33-0.627 1.213-0.627 1.896v4.762zM145.969 16.758l4.47 4.184h-1.678l-4.472-4.183 0.862-0.794 3.314-3.010 1.734-0.014-4.23 3.817z"></path>
<path fill="#0081c4" style="fill: var(--color7, #0081c4)" d="M129.378 12.334c-0.194 0-0.351-0.157-0.351-0.351s0.157-0.351 0.351-0.351v0c0.194 0 0.351 0.157 0.351 0.351s-0.157 0.351-0.351 0.351v0zM125.428 20.598c-0 0-0 0-0 0-0.177 0-0.321-0.144-0.321-0.321s0.143-0.321 0.32-0.321h0c0.177 0 0.321 0.144 0.321 0.321s-0.144 0.321-0.321 0.321v0zM129.609 10.474l-0.525-0.357-5.138 10.448 1.936 1.317 5.16-10.434-1.434-0.974zM121.41 11.88c-0.002 0-0.005 0-0.008 0-0.183 0-0.332-0.146-0.336-0.328v-0c0.004-0.182 0.153-0.328 0.336-0.328 0.003 0 0.006 0 0.008 0h-0c0.002-0 0.005-0 0.008-0 0.183 0 0.332 0.146 0.336 0.328v0c-0.004 0.182-0.153 0.328-0.336 0.328-0.003 0-0.006-0-0.008-0h0zM120.496 9.647l-1.754 11.765h2.534l1.724-11.765h-2.504z"></path>
<path fill="#000" style="fill: var(--color2, #000)" opacity="0.09" d="M123.812 20.146l-0.158 0.313 0.476 0.317zM126.163 20.776l-1.016 0.676 0.27 0.18 0.472-0.314zM125.169 17.436l-0.022 0.054 1.334 2.656 0.030-0.062z"></path>
<path fill="#000" style="fill: var(--color2, #000)" opacity="0.3" d="M128.204 15.802l-0.674-3.802-0.272 0.435 0.675 3.8z"></path>
<path fill="#0081c4" style="fill: var(--color7, #0081c4)" d="M129.272 11.91c-0.002 0-0.005 0-0.007 0-0.2 0-0.363-0.159-0.368-0.358v-0.001c0.006-0.199 0.168-0.358 0.368-0.358 0.003 0 0.006 0 0.009 0h-0c0.206 0 0.375 0.16 0.375 0.358-0.005 0.199-0.168 0.358-0.368 0.358-0.003 0-0.006-0-0.009-0h0zM130.236 9.647h-2.505l1.724 11.765h2.534l-1.753-11.765z"></path>
<path fill="#000" style="fill: var(--color2, #000)" opacity="0.3" d="M121.581 15.715l-1.819-3.715-0.073 0.518 1.82 3.717z"></path>
<path fill="#0081c4" style="fill: var(--color7, #0081c4)" d="M124.9 20.598c-0.005 0-0.010 0-0.016 0-0.178 0-0.322-0.144-0.322-0.322s0.144-0.322 0.322-0.322c0.006 0 0.011 0 0.017 0l-0.001-0c0.171 0.009 0.306 0.149 0.306 0.321s-0.135 0.312-0.305 0.321l-0.001 0zM120.848 12.305c-0.177 0-0.321-0.144-0.321-0.321s0.144-0.321 0.321-0.321v0c0.177 0 0.321 0.144 0.321 0.321s-0.144 0.321-0.321 0.321v0zM121.174 10.118l-1.958 1.331 5.16 10.434 1.936-1.316-5.138-10.448z"></path>
<path fill="#fff" style="fill: var(--color3, #fff)" d="M121.108 12c-0 0-0.001 0-0.001 0-0.26 0-0.472-0.211-0.472-0.471v-0c0.001-0.26 0.212-0.47 0.472-0.47 0 0 0 0 0 0v0c0 0 0.001 0 0.002 0 0.26 0 0.471 0.21 0.472 0.469v0c-0 0.26-0.212 0.471-0.472 0.471-0 0-0.001 0-0.001 0h0zM124.893 20.47c-0 0-0.001 0-0.002 0-0.26 0-0.471-0.21-0.472-0.47v-0c0.001-0.26 0.212-0.47 0.472-0.47 0.001 0 0.001 0 0.002 0h-0c0 0 0.001 0 0.001 0 0.26 0 0.471 0.21 0.472 0.47v0c-0.001 0.26-0.212 0.47-0.472 0.47-0 0-0.001 0-0.001 0h0zM129.15 12c-0 0-0.001 0-0.001 0-0.26 0-0.471-0.21-0.472-0.47v-0c0-0.261 0.212-0.473 0.473-0.473s0.473 0.212 0.473 0.473v0c-0.001 0.26-0.212 0.47-0.472 0.47-0 0-0.001 0-0.001 0h0zM11.181 19.909c0.578-0.838 0.868-2.142 0.868-3.915 0-1.78-0.294-3.095-0.88-3.944-0.587-0.85-1.464-1.275-2.63-1.275-2.371 0-3.557 1.74-3.557 5.219 0 3.448 1.178 5.171 3.533 5.171 1.198 0 2.086-0.419 2.666-1.256zM8.539 6.823c2.787 0 4.899 0.777 6.336 2.33s2.156 3.834 2.156 6.841c0 3-0.722 5.28-2.168 6.842s-3.561 2.342-6.348 2.342c-2.746 0-4.853-0.784-6.318-2.354-1.466-1.568-2.198-3.853-2.198-6.853 0-2.967 0.728-5.234 2.186-6.798s3.575-2.348 6.354-2.348zM29.456 18.994c0.682-0.852 1.024-2.155 1.024-3.908 0-1.64-0.322-2.854-0.97-3.646s-1.629-1.186-2.946-1.186h-1.405v10.018h1.074c1.464 0 2.538-0.426 3.221-1.278zM33.146 8.554c1.558 1.468 2.336 3.588 2.336 6.36 0 2.985-0.819 5.285-2.458 6.899s-3.942 2.422-6.911 2.422h-5.77v-17.882h6.173c2.862 0 5.072 0.734 6.63 2.202zM38.794 24.235v-17.882h4.73v17.882h-4.73zM51.612 11.011c-0.281 0.22-0.421 0.493-0.421 0.818 0 0.35 0.178 0.664 0.534 0.941s1.323 0.782 2.902 1.514c1.513 0.692 2.564 1.434 3.152 2.228s0.883 1.794 0.883 2.998c0 1.107-0.277 2.090-0.829 2.949-0.552 0.86-1.35 1.527-2.39 2.003s-2.262 0.714-3.664 0.714c-1.168 0-2.15-0.084-2.942-0.25s-1.618-0.458-2.474-0.873v-4.298c0.904 0.472 1.846 0.84 2.823 1.104 0.976 0.266 1.874 0.398 2.69 0.398 0.706 0 1.222-0.124 1.55-0.373s0.492-0.568 0.492-0.958c0-0.244-0.066-0.458-0.198-0.641s-0.344-0.368-0.636-0.556c-0.293-0.186-1.072-0.57-2.336-1.147-1.146-0.53-2.005-1.042-2.577-1.539s-0.998-1.066-1.274-1.71c-0.276-0.642-0.414-1.404-0.414-2.283 0-1.644 0.589-2.926 1.766-3.846s2.794-1.38 4.852-1.38c1.818 0 3.672 0.427 5.562 1.282l-1.454 3.724c-1.642-0.765-3.058-1.147-4.252-1.147-0.616 0-1.065 0.11-1.345 0.33zM61.501 24.235v-17.882h10.408v3.878h-5.672v2.813h5.252v3.878h-5.252v3.376h5.672v3.938h-10.408zM79.988 16.951h3.76l-0.762-2.924c-0.178-0.65-0.394-1.49-0.647-2.522s-0.421-1.77-0.502-2.216c-0.072 0.414-0.216 1.095-0.429 2.046-0.214 0.95-0.688 2.822-1.421 5.616zM84.992 6.352l5.839 17.882h-5.222l-0.87-3.338h-5.742l-0.895 3.338h-5.246l5.766-17.882h6.371z"></path>
</symbol>
</defs>
</svg>
