<!-- Generated by IcoMoon.io -->
<svg version="1.1" xmlns="http://www.w3.org/2000/svg" width="32" height="32" viewBox="0 0 32 32">
<title>icon-com-diary</title>
<path fill="#4e4d4d" d="M25.107 21.254v-6.385c-0.286 0.104-0.607 0.182-0.943 0.182-0.631 0-1.22-0.268-1.592-0.484-0.373 0.216-0.962 0.484-1.592 0.484-0.337 0-0.658-0.079-0.944-0.182l0.001 6.385h5.071zM23.995 23.628c0.6-0.001 1.088-0.478 1.108-1.073l0-0.002h-5.063c0.020 0.597 0.508 1.073 1.108 1.075h2.847zM21.709 10.345c-0.748 1.333-1.37 2.538-1.589 3.143 0.245 0.132 0.568 0.263 0.859 0.263 0.47 0 1.023-0.343 1.197-0.475 0.011-0.009 0.024-0.014 0.036-0.022 0.020-0.013 0.040-0.026 0.061-0.038 0.016-0.008 0.033-0.015 0.050-0.022 0.022-0.010 0.046-0.019 0.068-0.026 0.017-0.004 0.032-0.008 0.049-0.011 0.026-0.005 0.051-0.010 0.078-0.012 0.013-0.001 0.026-0.001 0.040-0.002 0.029-0 0.058 0 0.086 0.003 0.012 0.002 0.022 0.004 0.034 0.006 0.030 0.005 0.060 0.011 0.088 0.020 0.013 0.004 0.023 0.008 0.034 0.013l-0.002-0.001c0.029 0.010 0.056 0.022 0.083 0.036l0.034 0.022c0.018 0.011 0.036 0.020 0.052 0.033 0.174 0.132 0.728 0.475 1.198 0.475 0.291 0 0.615-0.132 0.86-0.264-0.217-0.599-0.84-1.807-1.59-3.142h-1.724zM26.404 13.769c0 0.007 0.003 0.016 0.003 0.022v8.724c-0.002 1.331-1.081 2.41-2.412 2.412h-2.847c-1.332-0.001-2.411-1.080-2.412-2.412v-8.724c0-0.005 0.002-0.013 0.002-0.018 0.001-0.033 0.006-0.065 0.011-0.098 0.136-1.168 2.27-4.79 3.238-6.384l0.029-0.048c0.116-0.188 0.321-0.312 0.555-0.312s0.439 0.123 0.554 0.309l0.002 0.003 0.028 0.048c0.974 1.602 3.126 5.254 3.241 6.402 0.004 0.025 0.008 0.049 0.008 0.074zM16.471 23.557v-15.248h-1.207v4.251c-0 0.359-0.291 0.649-0.65 0.649-0.167 0-0.319-0.063-0.435-0.167l0.001 0.001-0.948-0.853-0.95 0.853c-0.115 0.103-0.267 0.167-0.434 0.167-0.359 0-0.649-0.291-0.649-0.649 0-0 0-0.001 0-0.001v0-4.25h-2.4v15.248h7.672zM7.5 23.557v-15.248h-0.336c-0.293 0-0.53 0.238-0.53 0.531v14.186c0 0.293 0.238 0.531 0.53 0.531h0.336zM12.498 8.309v2.793l0.299-0.269c0.115-0.103 0.267-0.167 0.434-0.167s0.32 0.063 0.435 0.167l-0.001-0.001 0.299 0.269v-2.792h-1.467zM17.12 7.010c0.359 0 0.65 0.291 0.65 0.65v16.548c0 0.359-0.291 0.65-0.65 0.65h-9.956c-1.011-0.001-1.829-0.82-1.83-1.831v-14.187c0.001-1.010 0.82-1.829 1.83-1.83h9.957z"></path>
</svg>
