<!-- Generated by IcoMoon.io -->
<svg version="1.1" xmlns="http://www.w3.org/2000/svg" width="32" height="32" viewBox="0 0 32 32">
<title>icon-com-camera</title>
<path fill="#4e4d4d" d="M25.366 19.559v-4.905l-3.878 1.939v1.026l3.878 1.939zM20.189 16.192v-3.486h-1.18c-0.033 0-0.064-0.005-0.095-0.010-0.689 0.546-1.571 0.876-2.53 0.876-0.954 0-1.831-0.326-2.527-0.873l0.009 0.007h-2.79c-0.502 0.533-1.213 0.866-2.001 0.866h-0c-0.788-0-1.499-0.333-2-0.865l-0.001-0.001h-0.441v8.802h13.556v-5.316zM9.075 9.359c-0.804 0.001-1.456 0.652-1.457 1.457v0c0.001 0.804 0.653 1.456 1.457 1.456h0c0.804-0.001 1.456-0.652 1.456-1.456v-0c-0.001-0.804-0.652-1.456-1.456-1.457h-0zM16.383 6.633c-1.554 0-2.82 1.264-2.82 2.819 0.002 1.557 1.263 2.818 2.82 2.82h0c1.557-0.002 2.818-1.263 2.82-2.82v-0c-0.002-1.556-1.264-2.817-2.82-2.819h-0zM26.358 13.050c0.191 0.118 0.308 0.328 0.308 0.553v7.007c0 0 0 0.001 0 0.001 0 0.358-0.29 0.648-0.648 0.648-0.001 0-0.001 0-0.002 0h0c-0.099 0-0.198-0.023-0.29-0.068l-4.238-2.12v3.085c0 0.359-0.291 0.65-0.65 0.65h-6.105l2.99 2.99c0.121 0.118 0.196 0.283 0.196 0.465 0 0.359-0.291 0.65-0.65 0.65-0.182 0-0.347-0.075-0.465-0.196l-3.394-3.393-3.393 3.393c-0.118 0.118-0.28 0.19-0.459 0.19-0.359 0-0.65-0.291-0.65-0.65 0-0.179 0.073-0.342 0.19-0.459l2.989-2.99h-6.104c-0 0-0 0-0 0-0.359 0-0.65-0.291-0.65-0.65v-10.101c0-0.36 0.291-0.65 0.65-0.65h0.4c-0.041-0.177-0.065-0.381-0.065-0.59v-0c0-1.52 1.236-2.756 2.756-2.756s2.756 1.236 2.756 2.756c0 0.203-0.023 0.4-0.065 0.591h0.992c-0.311-0.563-0.494-1.235-0.494-1.949 0-0.002 0-0.003 0-0.005v0c0-2.271 1.848-4.119 4.119-4.119s4.119 1.848 4.119 4.119c0 0.706-0.179 1.372-0.494 1.954h0.829c0.358 0 0.65 0.29 0.65 0.65v3.084l4.238-2.119c0.201-0.1 0.44-0.090 0.632 0.029zM18.209 18.894c0.355 0.016 0.637 0.307 0.637 0.665s-0.282 0.649-0.636 0.665l-0.001 0c-0.367 0-0.665-0.298-0.665-0.665s0.298-0.665 0.665-0.665v0z"></path>
</svg>
