<!-- Generated by IcoMoon.io -->
<svg version="1.1" xmlns="http://www.w3.org/2000/svg" width="32" height="32" viewBox="0 0 32 32">
<title>icon-trash-can</title>
<path fill="#4e4d4d" d="M-1536-953.6h2048v2723.2h-2048z"></path>
<path fill="#000" d="M-1145.6-729.6h1267.2c3.535 0 6.4 2.865 6.4 6.4v2390.4c0 3.535-2.865 6.4-6.4 6.4h-1267.2c-3.535 0-6.4-2.865-6.4-6.4v-2390.4c0-3.535 2.865-6.4 6.4-6.4z"></path>
<path fill="#fff" d="M-1145.6-729.6h1267.2c3.535 0 6.4 2.865 6.4 6.4v2390.4c0 3.535-2.865 6.4-6.4 6.4h-1267.2c-3.535 0-6.4-2.865-6.4-6.4v-2390.4c0-3.535 2.865-6.4 6.4-6.4z"></path>
<path fill="#eee" stroke="#bbb" stroke-linejoin="miter" stroke-linecap="butt" stroke-miterlimit="4" stroke-width="1.6" d="M-1081.6-16h1139.2c3.535 0 6.4 2.865 6.4 6.4v0 57.6h-1152v-57.6c0-3.535 2.865-6.4 6.4-6.4v0z"></path>
<path fill="#777" d="M25 26.306c0 1.182-0.896 2.139-1.995 2.139-1.106 0-1.998-0.957-1.997-2.141v-15.274c0-1.181 0.891-2.139 1.997-2.139 1.099 0 1.995 0.958 1.995 2.139v15.275zM17.997 26.306c0 1.182-0.896 2.139-1.994 2.139-1.107 0-2.003-0.957-2-2.141v-15.274c-0.003-1.181 0.893-2.139 2-2.139 1.098 0 1.992 0.958 1.994 2.139v15.275zM10.992 26.306c0 1.182-0.896 2.139-1.997 2.139-1.104 0-1.997-0.957-1.995-2.141v-15.274c-0.002-1.181 0.891-2.139 1.995-2.139 1.102 0 1.997 0.958 1.997 2.139v15.275zM25.526 2.354h-6.653c-0.298-1.346-1.469-2.354-2.874-2.354-1.408-0.002-2.582 1.008-2.877 2.354h-8.574c-1.63 0.002-2.949 1.355-2.949 3.018 0 0.002 0 0.005 0 0.008 0 1.225 0.743 2.277 1.803 2.729l0.019 0.007 0.037 20.8c0 1.702 1.347 3.085 3.013 3.085h19.056c1.664 0 3.014-1.382 3.014-3.086l0.032-20.798c1.081-0.458 1.826-1.51 1.826-2.736 0-0.003 0-0.006 0-0.008v0c0-1.664-1.322-3.016-2.95-3.018h-1.923z"></path>
</svg>
