<!-- Generated by IcoMoon.io -->
<svg version="1.1" xmlns="http://www.w3.org/2000/svg" width="32" height="32" viewBox="0 0 32 32">
<title>icon-angle</title>
<path fill="#777" d="M8 16c0 0.848 0.337 1.661 0.935 2.259l11.212 11.203c0.57 0.537 1.341 0.867 2.189 0.867 1.765 0 3.196-1.431 3.196-3.196 0-0.847-0.329-1.616-0.867-2.188l0.002 0.002-8.953-8.947 8.953-8.947c0.536-0.57 0.865-1.34 0.865-2.187 0-1.765-1.431-3.196-3.196-3.196-0.848 0-1.618 0.33-2.19 0.869l0.002-0.002-11.212 11.203c-0.596 0.598-0.935 1.411-0.935 2.259z"></path>
</svg>
