<!-- Generated by IcoMoon.io -->
<svg version="1.1" xmlns="http://www.w3.org/2000/svg" width="32" height="32" viewBox="0 0 32 32">
<title>icon-com-world</title>
<path fill="#4e4d4d" d="M8.145 10.927c0.6 0.452 1.281 0.854 2.005 1.178l0.067 0.027c-0.246 1.115-0.387 2.395-0.387 3.708 0 0.009 0 0.018 0 0.027v-0.001c0 1.322 0.14 2.575 0.387 3.734-0.791 0.35-1.472 0.753-2.099 1.224l0.027-0.020c-0.898-1.435-1.425-3.124-1.425-4.938s0.528-3.504 1.426-4.939zM15.412 19.783v5.335c-1.53-0.412-2.859-2.213-3.609-4.694 1.115-0.363 2.34-0.584 3.609-0.642zM15.412 6.614v5.334c-1.269-0.058-2.494-0.279-3.609-0.642 0.75-2.48 2.079-4.282 3.609-4.693zM16.734 11.948v-5.335c1.53 0.411 2.859 2.212 3.609 4.693-1.116 0.363-2.34 0.584-3.609 0.642zM16.734 19.783c1.27 0.058 2.494 0.278 3.609 0.642-0.75 2.48-2.079 4.282-3.609 4.694v-5.335zM20.994 15.866c0 1.142-0.12 2.241-0.328 3.264-1.216-0.387-2.546-0.611-3.932-0.667v-5.194c1.386-0.056 2.716-0.28 3.932-0.667 0.209 0.981 0.328 2.107 0.328 3.262 0 0.001 0 0.001 0 0.002v-0zM20.057 7.418c0.334 0.158 0.605 0.306 0.867 0.466l-0.041-0.023 0.064 0.039c0.265 0.162 0.522 0.338 0.77 0.527l0.059 0.044c0.256 0.198 0.504 0.409 0.74 0.634l0.018 0.016c0.244 0.233 0.473 0.476 0.687 0.73l0.011 0.014c-0.486 0.362-1.039 0.68-1.636 0.956-0.424-1.379-1.021-2.562-1.742-3.489 0.048 0.020 0.097 0.036 0.144 0.058 0.020 0.009 0.039 0.019 0.059 0.028zM9.612 9.119l0.018-0.016c0.236-0.224 0.484-0.436 0.74-0.633l0.059-0.044c0.249-0.188 0.506-0.364 0.771-0.527l0.064-0.039c0.221-0.137 0.492-0.285 0.771-0.419l0.056-0.024 0.058-0.028c0.047-0.022 0.096-0.038 0.144-0.058-0.721 0.926-1.318 2.11-1.742 3.489-0.597-0.276-1.15-0.594-1.636-0.956 0.226-0.268 0.455-0.511 0.695-0.741l0.003-0.003zM11.152 15.865c0-1.143 0.12-2.241 0.328-3.264 1.216 0.387 2.546 0.611 3.932 0.667v5.194c-1.386 0.056-2.716 0.28-3.932 0.667-0.208-0.981-0.328-2.108-0.328-3.264v0zM12.092 24.314c-0.336-0.159-0.608-0.308-0.871-0.469l0.041 0.023c-0.020-0.012-0.039-0.024-0.059-0.035-0.302-0.186-0.555-0.361-0.799-0.548l0.023 0.017-0.055-0.040c-0.275-0.213-0.519-0.423-0.751-0.644l0.004 0.004-0.010-0.009c-0.246-0.235-0.48-0.484-0.7-0.746 0.486-0.363 1.038-0.68 1.636-0.956 0.424 1.378 1.021 2.562 1.742 3.489-0.048-0.021-0.098-0.037-0.145-0.059-0.018-0.008-0.036-0.018-0.055-0.027zM22.521 22.622c-0.238 0.227-0.488 0.44-0.747 0.64l-0.054 0.040c-0.25 0.19-0.51 0.367-0.776 0.531-0.020 0.012-0.039 0.024-0.059 0.035-0.269 0.162-0.547 0.311-0.831 0.446-0.018 0.009-0.036 0.018-0.055 0.027-0.047 0.022-0.097 0.038-0.144 0.059 0.72-0.927 1.318-2.111 1.742-3.49 0.597 0.276 1.15 0.594 1.636 0.956-0.227 0.269-0.456 0.512-0.697 0.743l-0.003 0.003-0.011 0.009zM24.001 20.804c-0.6-0.451-1.28-0.854-2.004-1.178l-0.067-0.027c0.246-1.158 0.386-2.412 0.386-3.734 0-0.007 0-0.015 0-0.024 0-1.314-0.141-2.595-0.408-3.829l0.022 0.119c0.791-0.351 1.472-0.753 2.099-1.224l-0.027 0.020c0.898 1.435 1.425 3.125 1.425 4.939s-0.527 3.503-1.425 4.938zM26.749 15.865c0-0.001 0-0.001 0-0.002 0-2.153-0.642-4.156-1.745-5.828l0.025 0.040 0.014-0.012-0.356-0.486c-0.055-0.075-0.113-0.145-0.17-0.218-0.241-0.311-0.478-0.585-0.727-0.848l0.005 0.005c-0.108-0.114-0.218-0.226-0.331-0.334-0.102-0.098-0.208-0.192-0.314-0.286-0.468-0.419-0.986-0.803-1.536-1.139l-0.046-0.026c-0.052-0.032-0.104-0.064-0.157-0.095-0.164-0.095-0.33-0.186-0.499-0.272-0.041-0.021-0.084-0.040-0.126-0.061-0.516-0.264-1.123-0.504-1.754-0.686l-0.074-0.018c-0.484-0.144-1.064-0.263-1.658-0.333l-0.051-0.005c-0.072-0.007-0.144-0.012-0.216-0.019-0.285-0.030-0.619-0.047-0.956-0.049h-0.002c-0.321 0-0.64 0.019-0.958 0.049-0.072 0.006-0.144 0.012-0.216 0.019-0.275 0.031-0.548 0.074-0.819 0.126-0.12 0.022-0.238 0.049-0.357 0.076-0.898 0.209-1.685 0.498-2.425 0.87l0.062-0.028c-0.042 0.020-0.084 0.040-0.126 0.061-0.169 0.086-0.335 0.177-0.499 0.272-0.053 0.031-0.104 0.064-0.157 0.095-0.391 0.237-0.722 0.466-1.039 0.712l0.024-0.018c-0.195 0.151-0.384 0.308-0.568 0.472-0.106 0.093-0.212 0.187-0.314 0.285-0.21 0.203-0.409 0.412-0.599 0.628l-0.010 0.012c-0.154 0.174-0.302 0.353-0.444 0.537-0.056 0.073-0.115 0.143-0.169 0.218l-0.356 0.486 0.014 0.012c-1.079 1.632-1.721 3.635-1.721 5.788 0 0.001 0 0.002 0 0.003v-0c0 2.134 0.636 4.12 1.721 5.79l-0.014 0.012 0.356 0.486c0.053 0.073 0.11 0.141 0.165 0.212 0.146 0.188 0.296 0.371 0.454 0.549 0.199 0.227 0.396 0.434 0.602 0.633l0.003 0.003c0.097 0.093 0.197 0.181 0.297 0.27 0.242 0.217 0.505 0.432 0.778 0.633l0.029 0.020c0.258 0.188 0.523 0.364 0.797 0.529 0.050 0.030 0.099 0.062 0.15 0.091 0.165 0.096 0.331 0.187 0.502 0.274 0.038 0.020 0.078 0.037 0.116 0.056 0.519 0.265 1.13 0.507 1.765 0.69l0.075 0.019c0.222 0.068 0.52 0.142 0.824 0.202l0.064 0.011c0.271 0.052 0.544 0.094 0.819 0.125 0.072 0.008 0.144 0.013 0.216 0.020 0.318 0.029 0.636 0.048 0.958 0.048s0.64-0.019 0.958-0.048c0.072-0.006 0.144-0.012 0.216-0.020 0.455-0.051 0.855-0.122 1.247-0.214l-0.070 0.014c0.178-0.041 0.355-0.087 0.531-0.137 0.388-0.109 0.697-0.214 1-0.334l-0.069 0.024c0.31-0.119 0.613-0.252 0.909-0.399 0.039-0.019 0.078-0.036 0.116-0.056 0.17-0.087 0.337-0.178 0.502-0.274 0.050-0.029 0.1-0.061 0.15-0.091 0.605-0.367 1.13-0.757 1.614-1.191l-0.010 0.009c0.1-0.089 0.2-0.177 0.297-0.27 0.209-0.202 0.406-0.409 0.595-0.624l0.010-0.012c0.158-0.178 0.308-0.361 0.454-0.55 0.054-0.071 0.112-0.139 0.165-0.212l0.356-0.486-0.014-0.012c1.078-1.632 1.72-3.635 1.72-5.788 0-0.001 0-0.002 0-0.002v0z"></path>
</svg>
