<!-- Generated by IcoMoon.io -->
<svg version="1.1" xmlns="http://www.w3.org/2000/svg" width="32" height="32" viewBox="0 0 32 32">
<title>icon-com-form</title>
<path fill="#4e4d4d" d="M26.19 22.616v-0.372h-20.646v0.372c0 0.326 0.265 0.591 0.591 0.591h19.464c0.326-0 0.591-0.265 0.591-0.592v-0zM7.438 9.94v11.027h16.858v-11.028c-0-0.366-0.297-0.663-0.663-0.663h-15.532c-0.366 0-0.663 0.298-0.663 0.663zM26.336 20.968c0.624 0.001 1.13 0.506 1.131 1.13v0.518c-0.001 1.031-0.837 1.867-1.868 1.869h-19.464c-1.032-0.001-1.867-0.837-1.868-1.869v-0.518c0.001-0.624 0.506-1.13 1.13-1.13h0.763v-11.028c0.001-1.071 0.87-1.939 1.941-1.94h15.532c1.071 0.001 1.939 0.869 1.94 1.94v11.028h0.763zM20.206 12.434c0.353 0 0.64 0.287 0.64 0.64s-0.287 0.64-0.64 0.64h-6.508c-0.353 0-0.64-0.287-0.64-0.64s0.287-0.64 0.64-0.64h6.508zM11.527 12.434c0.353 0 0.64 0.287 0.64 0.64s-0.287 0.64-0.64 0.64v0c-0.353 0-0.64-0.287-0.64-0.64s0.287-0.64 0.64-0.64v0zM11.527 14.567c0.353 0 0.64 0.287 0.64 0.64s-0.287 0.64-0.64 0.64v0c-0.353 0-0.64-0.287-0.64-0.64s0.287-0.64 0.64-0.64v0zM20.206 14.567c0.353 0 0.64 0.287 0.64 0.64s-0.287 0.64-0.64 0.64h-6.508c-0.353 0-0.64-0.287-0.64-0.64s0.287-0.64 0.64-0.64h6.508zM11.527 16.701c0.353 0 0.64 0.287 0.64 0.64s-0.287 0.64-0.64 0.64v0c-0.353 0-0.64-0.287-0.64-0.64s0.287-0.64 0.64-0.64v0zM20.206 16.701c0.353 0 0.64 0.287 0.64 0.64s-0.287 0.64-0.64 0.64h-6.508c-0.353 0-0.64-0.287-0.64-0.64s0.287-0.64 0.64-0.64h6.508z"></path>
</svg>
