<!-- Generated by IcoMoon.io -->
<svg version="1.1" xmlns="http://www.w3.org/2000/svg" width="32" height="32" viewBox="0 0 32 32">
<title>icon-com-pencil-ruler</title>
<path fill="#4e4d4d" d="M14.371 22.516v-13.17c-0.001-0.614-0.498-1.111-1.112-1.112h-2.847c-0.614 0-1.112 0.498-1.113 1.112v2.915h1.292c0.359 0 0.65 0.291 0.65 0.65s-0.291 0.65-0.65 0.65v0h-1.292v0.89h1.292c0.359 0 0.65 0.291 0.65 0.65s-0.291 0.65-0.65 0.65h-1.292v0.89h1.292c0.359 0 0.65 0.291 0.65 0.65s-0.291 0.65-0.65 0.65v0h-1.292v0.89h1.292c0.359 0 0.65 0.291 0.65 0.65s-0.291 0.65-0.65 0.65v0h-1.292v0.89h1.292c0.359 0 0.65 0.291 0.65 0.65s-0.291 0.65-0.65 0.65v0h-1.292v0.196c0.001 0.614 0.498 1.111 1.112 1.112h2.847c0.614-0.001 1.111-0.498 1.112-1.112v-0zM13.259 6.933c1.331 0.002 2.41 1.081 2.411 2.412v13.171c-0.001 1.331-1.080 2.41-2.411 2.412h-2.847c-1.331-0.001-2.41-1.080-2.412-2.411v-13.171c0.002-1.331 1.081-2.41 2.412-2.412h2.847zM11.835 9.696c0.005-0 0.011-0 0.016-0 0.379 0 0.687 0.307 0.687 0.687s-0.307 0.687-0.687 0.687c-0.006 0-0.012-0-0.018-0l0.001 0c-0.372-0.009-0.67-0.313-0.67-0.687s0.298-0.677 0.67-0.687l0.001-0zM21.927 23.628c0.6-0.001 1.088-0.478 1.108-1.073l0-0.002h-5.063c0.020 0.597 0.508 1.074 1.108 1.075h2.847zM19.641 10.345c-0.748 1.333-1.37 2.539-1.589 3.144 0.245 0.131 0.568 0.263 0.858 0.263 0.47 0 1.023-0.343 1.197-0.476 0.011-0.008 0.024-0.014 0.036-0.022 0.020-0.013 0.040-0.026 0.061-0.037 0.016-0.008 0.033-0.015 0.050-0.022 0.023-0.010 0.046-0.018 0.069-0.026 0.016-0.004 0.032-0.007 0.048-0.010 0.026-0.006 0.051-0.010 0.078-0.012 0.013-0.001 0.027-0.001 0.041-0.002 0.028-0 0.057 0 0.086 0.003 0.011 0.002 0.022 0.004 0.034 0.005 0.030 0.006 0.060 0.011 0.089 0.020l0.031 0.012c0.028 0.010 0.056 0.022 0.083 0.036 0.012 0.006 0.023 0.014 0.035 0.022 0.017 0.011 0.036 0.020 0.052 0.032 0.174 0.132 0.727 0.476 1.197 0.476 0.292 0 0.615-0.132 0.86-0.264-0.217-0.599-0.84-1.807-1.59-3.143h-1.724zM17.968 21.254h5.071v-6.385c-0.286 0.103-0.607 0.182-0.943 0.182-0.631 0-1.22-0.267-1.592-0.484-0.373 0.216-0.961 0.484-1.592 0.484-0.336 0-0.657-0.079-0.944-0.182l0.001 6.385zM24.336 13.769c0 0.006 0.002 0.016 0.002 0.022v8.725c-0.001 1.331-1.080 2.41-2.411 2.412h-2.847c-1.331-0.002-2.41-1.081-2.411-2.412v-8.725c0-0.005 0.002-0.013 0.002-0.018 0-0.032 0.005-0.065 0.011-0.098 0.135-1.168 2.269-4.789 3.238-6.383l0.029-0.048c0.116-0.189 0.321-0.312 0.555-0.312s0.439 0.124 0.553 0.31l0.002 0.003 0.028 0.048c0.974 1.602 3.126 5.254 3.241 6.402 0.004 0.024 0.008 0.049 0.008 0.074z"></path>
</svg>
