<!-- Generated by IcoMoon.io -->
<svg version="1.1" xmlns="http://www.w3.org/2000/svg" width="101" height="32" viewBox="0 0 101 32">
<title>logo_3</title>
<path fill="#fff" d="M16.862 21.957c1.161 0 2.148-0.43 2.962-1.29s1.219-1.866 1.219-3.019c0-1.152-0.396-2.159-1.189-3.018s-1.783-1.29-2.972-1.29-2.183 0.402-2.982 1.208c-0.799 0.805-1.198 1.818-1.198 3.039s0.402 2.254 1.209 3.101c0.806 0.846 1.79 1.269 2.952 1.269zM12.782 13.709c1.162-1.282 2.556-1.924 4.182-1.924s2.995 0.576 4.11 1.729c1.114 1.154 1.67 2.542 1.67 4.166s-0.568 3.016-1.702 4.175c-1.134 1.16-2.504 1.739-4.11 1.739s-2.989-0.696-4.15-2.088v1.72h-1.66v-15.35h1.66v5.834zM50.251 22.018c1.134 0 2.112-0.409 2.931-1.228s1.23-1.838 1.23-3.059-0.404-2.245-1.21-3.070c-0.806-0.826-1.794-1.238-2.962-1.238s-2.156 0.427-2.962 1.28c-0.806 0.852-1.209 1.858-1.209 3.018s0.41 2.166 1.23 3.018c0.82 0.853 1.804 1.28 2.952 1.28zM55.99 23.226h-1.66v-1.638c-1.216 1.338-2.617 2.006-4.202 2.006s-2.942-0.583-4.069-1.75c-1.128-1.166-1.691-2.558-1.691-4.175s0.567-3.002 1.702-4.155c1.134-1.152 2.518-1.729 4.15-1.729s3.002 0.662 4.11 1.985v-1.698h1.66v11.154zM58.236 23.226v-15.35h1.702v15.35h-1.702zM75.562 22.018c1.79 0 3.156-0.88 4.099-2.64l1.434 0.736c-0.642 1.188-1.4 2.065-2.274 2.631s-1.92 0.849-3.136 0.849c-1.682 0-3.068-0.576-4.161-1.73-0.698-0.734-1.17-1.566-1.422-2.492h1.78c0.208 0.59 0.526 1.102 0.964 1.53 0.758 0.744 1.664 1.116 2.716 1.116zM75.623 13.422c-1.914 0-3.184 1.010-3.813 3.030h7.706c-0.205-0.955-0.67-1.699-1.394-2.231s-1.558-0.798-2.5-0.798zM71.606 17.945h-1.711c-0.003-0.082-0.010-0.162-0.010-0.246 0-1.624 0.55-3.015 1.65-4.175s2.463-1.74 4.090-1.74c1.626 0 2.985 0.55 4.078 1.648s1.661 2.602 1.702 4.513h-9.798zM84.963 23.225h-1.707v-6.806c0-2.043 0.563-3.439 1.674-4.149 1.582-1.010 3.562-0.116 3.646-0.078l-0.712 1.55c-0.339-0.152-1.362-0.456-2.018-0.032-0.73 0.47-0.882 1.733-0.882 2.709v6.807zM63.195 17.393l6.498 5.832h-2.439l-6.501-5.832 1.254-1.106 4.817-4.196 2.522-0.020-6.15 5.322z"></path>
<path fill="#0082c5" d="M39.277 10.6c-0.006 0-0.013 0-0.020 0-0.281 0-0.509-0.228-0.509-0.509s0.228-0.509 0.509-0.509c0.007 0 0.014 0 0.021 0l-0.001-0c0.272 0.011 0.489 0.235 0.489 0.508s-0.216 0.497-0.488 0.508l-0.001 0zM33.557 22.566c-0.257 0-0.466-0.208-0.466-0.466s0.208-0.466 0.466-0.466v0c0.257 0 0.466 0.208 0.466 0.466s-0.208 0.466-0.466 0.466v0zM39.613 7.908l-0.76-0.517-7.442 15.128 2.804 1.906 7.474-15.106-2.077-1.411zM27.689 10.558c-0.006 0-0.012 0-0.019 0-0.257 0-0.466-0.208-0.466-0.466s0.208-0.466 0.466-0.466c0.007 0 0.014 0 0.020 0l-0.001-0c0.249 0.011 0.446 0.215 0.446 0.465s-0.198 0.455-0.445 0.465l-0.001 0zM26.451 7.391l-2.374 16.687h3.432l2.334-16.687h-3.392z"></path>
<path fill="#000" opacity="0.0225" d="M31.632 22.070l-0.221 0.45 0.669 0.454zM34.934 22.974l-1.427 0.97 0.38 0.258 0.662-0.451zM33.538 18.182l-0.032 0.078 1.874 3.81 0.043-0.087z"></path>
<path fill="#000" opacity="0.15" d="M38.392 15.982l-0.834-5.96-0.336 0.683 0.834 5.957z"></path>
<path fill="#0082c5" d="M39.277 10.6c-0.006 0-0.013 0-0.020 0-0.281 0-0.509-0.228-0.509-0.509s0.228-0.509 0.509-0.509c0.007 0 0.014 0 0.021 0l-0.001-0c0.272 0.011 0.489 0.235 0.489 0.508s-0.216 0.497-0.488 0.508l-0.001 0zM40.582 7.391h-3.392l2.336 16.687h3.43l-2.374-16.687z"></path>
<path fill="#000" opacity="0.15" d="M28.637 16.014l-2.65-5.356-0.106 0.747 2.652 5.36z"></path>
<path fill="#0082c5" d="M33.557 22.566c-0.257 0-0.466-0.208-0.466-0.466s0.208-0.466 0.466-0.466v0c0.257 0 0.466 0.208 0.466 0.466s-0.208 0.466-0.466 0.466v0zM27.689 10.558c-0.006 0-0.012 0-0.019 0-0.257 0-0.466-0.208-0.466-0.466s0.208-0.466 0.466-0.466c0.007 0 0.014 0 0.020 0l-0.001-0c0.249 0.011 0.446 0.215 0.446 0.465s-0.198 0.455-0.445 0.465l-0.001 0zM28.161 7.391l-2.836 1.928 7.473 15.106 2.804-1.906-7.441-15.128z"></path>
<path fill="#fff" d="M27.689 10.558c-0.006 0-0.012 0-0.019 0-0.257 0-0.466-0.208-0.466-0.466s0.208-0.466 0.466-0.466c0.007 0 0.014 0 0.020 0l-0.001-0c0.249 0.011 0.446 0.215 0.446 0.465s-0.198 0.455-0.445 0.465l-0.001 0zM33.557 22.566c-0.257 0-0.466-0.208-0.466-0.466s0.208-0.466 0.466-0.466v0c0.257 0 0.466 0.208 0.466 0.466s-0.208 0.466-0.466 0.466v0zM39.277 10.6c-0.006 0-0.013 0-0.020 0-0.281 0-0.509-0.228-0.509-0.509s0.228-0.509 0.509-0.509c0.007 0 0.014 0 0.021 0l-0.001-0c0.272 0.011 0.489 0.235 0.489 0.508s-0.216 0.497-0.488 0.508l-0.001 0z"></path>
</svg>
