<!-- Generated by IcoMoon.io -->
<svg version="1.1" xmlns="http://www.w3.org/2000/svg" width="137" height="32" viewBox="0 0 137 32">
<title>logo_2</title>
<path fill="#0081c4" d="M129.925 31.802l-121.444 0.001c-0 0-0 0-0 0-2.192 0-4.015-1.578-4.395-3.661l-0.004-0.027-4.012-22.672c-0.484-2.734 1.621-5.243 4.4-5.243l127.854 0.013c2.467 0 4.467 2 4.467 4.467 0 0.165-0.009 0.328-0.026 0.489l0.002-0.020-2.398 22.658c-0.246 2.256-2.141 3.997-4.442 3.997-0 0-0.001 0-0.001 0h0z"></path>
<path fill="#fff" d="M125.475 26.43l-44.509 0.189c-0.004 0-0.008 0-0.013 0-1.374 0-2.533-0.924-2.888-2.184l-0.005-0.021-4.185-15.237c-0.534-1.943 0.964-3.849 2.979-3.792l50.959 1.462c1.619 0.048 2.913 1.372 2.913 2.999 0 0.174-0.015 0.344-0.043 0.509l0.002-0.018-2.266 13.588c-0.244 1.427-1.469 2.5-2.946 2.506h-0.001z"></path>
<path fill="#4d4c4c" d="M86.728 18.849c0.546 0 1.010-0.202 1.393-0.607 0.355-0.361 0.574-0.858 0.574-1.405 0-0.006-0-0.012-0-0.018v0.001c0-0.006 0-0.013 0-0.021 0-0.543-0.213-1.037-0.561-1.402l0.001 0.001c-0.335-0.374-0.82-0.608-1.359-0.608-0.014 0-0.028 0-0.041 0l0.002-0c-0.559 0-1.026 0.19-1.403 0.569s-0.564 0.857-0.564 1.432 0.19 1.062 0.57 1.46c0.338 0.368 0.822 0.598 1.359 0.598 0.010 0 0.020-0 0.031-0l-0.002 0zM84.808 14.964c0.546-0.603 1.202-0.906 1.968-0.906s1.409 0.272 1.933 0.814c0.524 0.543 0.786 1.197 0.786 1.962s-0.267 1.421-0.8 1.966c-0.534 0.546-1.178 0.819-1.934 0.819s-1.406-0.328-1.952-0.982v0.81h-0.782v-7.231h0.781v2.747zM102.437 18.878c0.534 0 0.994-0.193 1.379-0.578s0.579-0.866 0.579-1.442c0-0.575-0.19-1.057-0.57-1.446-0.342-0.36-0.824-0.584-1.359-0.584-0.012 0-0.024 0-0.037 0l0.002-0c-0.55 0-1.014 0.202-1.393 0.603-0.352 0.361-0.57 0.855-0.57 1.399 0 0.008 0 0.016 0 0.024v-0.001c0 0.546 0.193 1.020 0.578 1.422s0.849 0.602 1.389 0.602zM105.138 19.446h-0.782v-0.771c-0.572 0.63-1.231 0.945-1.977 0.945s-1.384-0.274-1.914-0.824c-0.492-0.494-0.795-1.175-0.795-1.927 0-0.014 0-0.027 0-0.041l-0 0.002c0-0.762 0.266-1.414 0.8-1.957s1.184-0.814 1.953-0.814c0.768 0 1.413 0.312 1.934 0.934v-0.8h0.782v5.254zM106.194 19.446v-7.23h0.8v7.23h-0.8zM114.346 18.878c0.842 0 1.485-0.415 1.928-1.244l0.675 0.347c-0.302 0.559-0.659 0.972-1.070 1.238s-0.903 0.4-1.475 0.4c-0.791 0-1.443-0.271-1.958-0.814-0.309-0.319-0.541-0.714-0.665-1.154l-0.005-0.019h0.838c0.098 0.278 0.248 0.519 0.454 0.72 0.357 0.351 0.783 0.526 1.278 0.526zM114.374 14.829c-0.9 0-1.498 0.476-1.794 1.427h3.626c-0.096-0.45-0.315-0.8-0.656-1.050-0.317-0.235-0.715-0.376-1.146-0.376-0.010 0-0.021 0-0.031 0l0.002-0zM112.484 16.96h-0.805c-0.002-0.039-0.005-0.077-0.005-0.116 0-0.765 0.258-1.42 0.776-1.966s1.158-0.82 1.924-0.82c0.765 0 1.404 0.259 1.919 0.776 0.514 0.518 0.781 1.226 0.8 2.126h-4.61zM118.769 19.447h-0.803v-3.207c0-0.962 0.265-1.62 0.788-1.954 0.744-0.475 1.676-0.054 1.715-0.036l-0.336 0.73c-0.158-0.072-0.64-0.214-0.949-0.016-0.344 0.222-0.416 0.817-0.416 1.277v3.206zM108.527 16.699l3.057 2.747h-1.147l-3.059-2.746 0.59-0.521 2.266-1.976 1.186-0.010-2.893 2.506z"></path>
<path fill="#0081c4" d="M97.274 13.5c-0.006 0.001-0.013 0.001-0.020 0.001-0.133 0-0.24-0.107-0.24-0.24s0.107-0.24 0.24-0.24c0.007 0 0.014 0 0.020 0.001l-0.001-0c0.124 0.010 0.22 0.114 0.22 0.239s-0.097 0.229-0.22 0.239l-0.001 0zM94.582 19.136c-0.004 0-0.009 0-0.013 0-0.121 0-0.219-0.098-0.219-0.219s0.098-0.219 0.219-0.219c0.005 0 0.009 0 0.014 0l-0.001-0c0.115 0.007 0.206 0.102 0.206 0.219s-0.091 0.212-0.205 0.219l-0.001 0zM97.431 12.232l-0.358-0.243-3.501 7.126 1.319 0.898 3.516-7.115-0.976-0.664zM91.822 13.48c-0.121 0-0.219-0.098-0.219-0.219s0.098-0.219 0.219-0.219v0c0.121 0 0.219 0.098 0.219 0.219s-0.098 0.219-0.219 0.219v0zM91.239 11.989l-1.117 7.859h1.614l1.099-7.859h-1.596z"></path>
<path fill="#000" opacity="0.09" d="M93.677 18.902l-0.104 0.212 0.314 0.214zM95.23 19.328l-0.671 0.457 0.178 0.122 0.312-0.212zM94.574 17.071l-0.015 0.037 0.882 1.794 0.021-0.041z"></path>
<path fill="#000" opacity="0.3" d="M96.857 16.035l-0.392-2.806-0.158 0.321 0.392 2.806z"></path>
<path fill="#0081c4" d="M97.274 13.5c-0.006 0.001-0.013 0.001-0.020 0.001-0.133 0-0.24-0.107-0.24-0.24s0.107-0.24 0.24-0.24c0.007 0 0.014 0 0.020 0.001l-0.001-0c0.124 0.010 0.22 0.114 0.22 0.239s-0.097 0.229-0.22 0.239l-0.001 0zM97.887 11.989h-1.595l1.098 7.859h1.614l-1.117-7.859z"></path>
<path fill="#000" opacity="0.3" d="M92.267 16.050l-1.246-2.523-0.050 0.352 1.248 2.524z"></path>
<path fill="#0081c4" d="M94.582 19.136c-0.004 0-0.009 0-0.013 0-0.121 0-0.219-0.098-0.219-0.219s0.098-0.219 0.219-0.219c0.005 0 0.009 0 0.014 0l-0.001-0c0.121 0 0.219 0.098 0.219 0.219s-0.098 0.219-0.219 0.219v0zM91.822 13.48c-0.004 0-0.009 0-0.013 0-0.121 0-0.219-0.098-0.219-0.219s0.098-0.219 0.219-0.219c0.005 0 0.009 0 0.014 0l-0.001-0c0.115 0.007 0.206 0.102 0.206 0.219s-0.091 0.212-0.205 0.219l-0.001 0zM92.043 11.989l-0.357 0.243-0.978 0.665 3.516 7.115 1.32-0.898-3.502-7.126z"></path>
<path fill="#fff" d="M91.822 13.48c-0.121 0-0.219-0.098-0.219-0.219s0.098-0.219 0.219-0.219v0c0.121 0 0.219 0.098 0.219 0.219s-0.098 0.219-0.219 0.219v0zM94.582 19.136c-0.004 0-0.009 0-0.013 0-0.121 0-0.219-0.098-0.219-0.219s0.098-0.219 0.219-0.219c0.005 0 0.009 0 0.014 0l-0.001-0c0.121 0 0.219 0.098 0.219 0.219s-0.098 0.219-0.219 0.219v0zM97.274 13.5c-0.006 0.001-0.013 0.001-0.020 0.001-0.133 0-0.24-0.107-0.24-0.24s0.107-0.24 0.24-0.24c0.007 0 0.014 0 0.020 0.001l-0.001-0c0.124 0.010 0.22 0.114 0.22 0.239s-0.097 0.229-0.22 0.239l-0.001 0zM18.040 18.606c0.394-0.558 0.59-1.428 0.59-2.61 0-1.186-0.199-2.064-0.598-2.63s-0.994-0.85-1.786-0.85c-1.61 0-2.416 1.16-2.416 3.48 0 2.298 0.8 3.448 2.4 3.448 0.814 0 1.416-0.28 1.81-0.838zM16.246 9.882c1.893 0 3.327 0.518 4.303 1.554s1.464 2.555 1.464 4.561c0 2-0.49 3.521-1.472 4.562s-2.418 1.561-4.312 1.561c-1.864 0-3.295-0.522-4.29-1.569s-1.493-2.57-1.493-4.57c0-1.978 0.495-3.49 1.484-4.533s2.428-1.566 4.315-1.566zM30.237 18.472c0.456-0.566 0.684-1.432 0.684-2.598 0-1.090-0.216-1.897-0.647-2.423s-1.086-0.789-1.964-0.789h-0.936v6.659h0.716c0.976 0 1.692-0.283 2.147-0.85zM32.698 11.533c1.038 0.976 1.558 2.385 1.558 4.228 0 1.984-0.546 3.512-1.638 4.586s-2.629 1.61-4.608 1.61h-3.849v-11.887h4.116c1.909 0 3.382 0.488 4.421 1.464zM36.386 21.957v-11.888h3.23v11.888h-3.23zM45.188 12.687c-0.19 0.146-0.285 0.328-0.285 0.544 0 0.234 0.12 0.442 0.362 0.626s0.896 0.52 1.965 1.008c1.024 0.462 1.736 0.956 2.135 1.485s0.598 1.194 0.598 1.996c0 0.737-0.187 1.392-0.562 1.963s-0.914 1.016-1.618 1.334c-0.705 0.317-1.532 0.475-2.481 0.475-0.792 0-1.456-0.056-1.993-0.166-0.635-0.14-1.195-0.34-1.719-0.6l0.043 0.019v-2.862c0.613 0.314 1.25 0.56 1.912 0.736s1.269 0.264 1.822 0.264c0.478 0 0.827-0.082 1.050-0.248s0.334-0.378 0.334-0.638c0-0.004 0-0.008 0-0.013 0-0.155-0.050-0.299-0.136-0.415l0.001 0.002c-0.090-0.122-0.233-0.246-0.431-0.37s-0.726-0.379-1.582-0.764c-0.776-0.352-1.358-0.694-1.745-1.024-0.366-0.305-0.658-0.686-0.854-1.119l-0.008-0.020c-0.187-0.428-0.281-0.934-0.281-1.52 0-1.095 0.398-1.949 1.196-2.562s1.892-0.918 3.286-0.918c1.231 0 2.486 0.284 3.766 0.854l-0.984 2.48c-1.112-0.51-2.072-0.764-2.88-0.764-0.418 0-0.721 0.073-0.91 0.219zM51.801 21.956v-11.887h7.060v2.578h-3.848v1.87h3.563v2.578h-3.562v2.244h3.848v2.618h-7.062zM64.457 17.094h2.53l-0.513-1.952c-0.12-0.434-0.264-0.994-0.435-1.683-0.087-0.301-0.204-0.8-0.307-1.303l-0.030-0.177c-0.049 0.277-0.146 0.732-0.288 1.366-0.144 0.634-0.464 1.884-0.957 3.749zM67.825 10.020l3.928 11.936h-3.513l-0.586-2.227h-3.864l-0.602 2.227h-3.53l3.88-11.936h4.287z"></path>
</svg>
