<!-- Generated by IcoMoon.io -->
<svg version="1.1" xmlns="http://www.w3.org/2000/svg" width="179" height="32" viewBox="0 0 179 32">
<title>logo</title>
<path fill="#fff" d="M171.013 31.484l-66.168 0.28c-0.006 0-0.013 0-0.021 0-2.041 0-3.762-1.371-4.292-3.242l-0.008-0.031-6.221-22.624c-0.793-2.885 1.434-5.715 4.43-5.629l75.757 2.168c2.703 0.078 4.716 2.52 4.272 5.183l-3.369 20.175c-0.365 2.119-2.186 3.712-4.38 3.72h-0.001z"></path>
<path fill="#4d4c4c" d="M113.726 19.814c0.804 0 1.486-0.296 2.050-0.888s0.844-1.285 0.844-2.078-0.274-1.487-0.823-2.079c-0.548-0.592-1.234-0.888-2.056-0.888s-1.51 0.278-2.064 0.832c-0.553 0.554-0.83 1.252-0.83 2.093s0.278 1.552 0.837 2.135c0.558 0.582 1.238 0.874 2.042 0.874zM110.903 14.134c0.804-0.882 1.768-1.324 2.894-1.324s2.072 0.397 2.844 1.19c0.77 0.794 1.156 1.75 1.156 2.868s-0.393 2.077-1.178 2.875c-0.785 0.799-1.733 1.198-2.844 1.198s-2.068-0.478-2.872-1.437v1.184h-1.149v-10.571h1.149v4.016zM136.533 19.874c0.785 0 1.461-0.277 2.028-0.832s0.851-1.246 0.851-2.072c0-0.828-0.278-1.521-0.837-2.080s-1.241-0.839-2.050-0.839c-0.808 0-1.492 0.289-2.050 0.866s-0.837 1.26-0.837 2.046 0.284 1.467 0.851 2.045c0.568 0.578 1.248 0.866 2.042 0.866zM140.504 20.692h-1.149v-1.11c-0.842 0.906-1.811 1.358-2.907 1.358-1.098 0-2.036-0.394-2.816-1.185s-1.17-1.734-1.17-2.829c0-1.095 0.392-2.033 1.178-2.814 0.784-0.781 1.742-1.172 2.872-1.172s2.078 0.448 2.844 1.345v-1.15h1.149v7.557zM142.397 20.47v-10.824h0.946v10.824h-0.946zM154.671 19.887c1.232 0 2.173-0.589 2.822-1.766l0.987 0.493c-0.442 0.794-0.964 1.381-1.566 1.759s-1.322 0.568-2.16 0.568c-1.157 0-2.112-0.386-2.864-1.157-0.45-0.451-0.789-1.012-0.972-1.64l-0.007-0.027h1.226c0.143 0.394 0.362 0.737 0.664 1.024 0.471 0.461 1.117 0.746 1.829 0.746 0.014 0 0.029-0 0.043-0l-0.002 0zM154.446 14.066c-1.336 0-2.223 0.694-2.662 2.083h5.38c-0.142-0.657-0.467-1.168-0.973-1.534s-1.088-0.55-1.746-0.55zM151.641 17.177h-1.195c-0.002-0.057-0.006-0.112-0.006-0.169 0-1.117 0.384-2.074 1.152-2.87s1.719-1.197 2.854-1.197 2.084 0.378 2.848 1.133c0.762 0.755 1.159 1.79 1.187 3.103h-6.84zM161.115 20.941h-1.214v-4.762c0-1.43 0.4-2.406 1.191-2.902 1.125-0.706 2.534-0.081 2.593-0.054l-0.506 1.084c-0.242-0.106-0.969-0.318-1.436-0.022-0.518 0.33-0.627 1.213-0.627 1.896v4.762zM145.969 16.758l4.47 4.184h-1.678l-4.472-4.183 0.862-0.794 3.314-3.010 1.734-0.014-4.23 3.817z"></path>
<path fill="#0081c4" d="M129.378 12.334c-0.194 0-0.351-0.157-0.351-0.351s0.157-0.351 0.351-0.351v0c0.194 0 0.351 0.157 0.351 0.351s-0.157 0.351-0.351 0.351v0zM125.428 20.598c-0 0-0 0-0 0-0.177 0-0.321-0.144-0.321-0.321s0.143-0.321 0.32-0.321h0c0.177 0 0.321 0.144 0.321 0.321s-0.144 0.321-0.321 0.321v0zM129.609 10.474l-0.525-0.357-5.138 10.448 1.936 1.317 5.16-10.434-1.434-0.974zM121.41 11.88c-0.002 0-0.005 0-0.008 0-0.183 0-0.332-0.146-0.336-0.328v-0c0.004-0.182 0.153-0.328 0.336-0.328 0.003 0 0.006 0 0.008 0h-0c0.002-0 0.005-0 0.008-0 0.183 0 0.332 0.146 0.336 0.328v0c-0.004 0.182-0.153 0.328-0.336 0.328-0.003 0-0.006-0-0.008-0h0zM120.496 9.647l-1.754 11.765h2.534l1.724-11.765h-2.504z"></path>
<path fill="#000" opacity="0.09" d="M123.812 20.146l-0.158 0.313 0.476 0.317zM126.163 20.776l-1.016 0.676 0.27 0.18 0.472-0.314zM125.169 17.436l-0.022 0.054 1.334 2.656 0.030-0.062z"></path>
<path fill="#000" opacity="0.3" d="M128.204 15.802l-0.674-3.802-0.272 0.435 0.675 3.8z"></path>
<path fill="#0081c4" d="M129.272 11.91c-0.002 0-0.005 0-0.007 0-0.2 0-0.363-0.159-0.368-0.358v-0.001c0.006-0.199 0.168-0.358 0.368-0.358 0.003 0 0.006 0 0.009 0h-0c0.206 0 0.375 0.16 0.375 0.358-0.005 0.199-0.168 0.358-0.368 0.358-0.003 0-0.006-0-0.009-0h0zM130.236 9.647h-2.505l1.724 11.765h2.534l-1.753-11.765z"></path>
<path fill="#000" opacity="0.3" d="M121.581 15.715l-1.819-3.715-0.073 0.518 1.82 3.717z"></path>
<path fill="#0081c4" d="M124.9 20.598c-0.005 0-0.010 0-0.016 0-0.178 0-0.322-0.144-0.322-0.322s0.144-0.322 0.322-0.322c0.006 0 0.011 0 0.017 0l-0.001-0c0.171 0.009 0.306 0.149 0.306 0.321s-0.135 0.312-0.305 0.321l-0.001 0zM120.848 12.305c-0.177 0-0.321-0.144-0.321-0.321s0.144-0.321 0.321-0.321v0c0.177 0 0.321 0.144 0.321 0.321s-0.144 0.321-0.321 0.321v0zM121.174 10.118l-1.958 1.331 5.16 10.434 1.936-1.316-5.138-10.448z"></path>
<path fill="#fff" d="M121.108 12c-0 0-0.001 0-0.001 0-0.26 0-0.472-0.211-0.472-0.471v-0c0.001-0.26 0.212-0.47 0.472-0.47 0 0 0 0 0 0v0c0 0 0.001 0 0.002 0 0.26 0 0.471 0.21 0.472 0.469v0c-0 0.26-0.212 0.471-0.472 0.471-0 0-0.001 0-0.001 0h0zM124.893 20.47c-0 0-0.001 0-0.002 0-0.26 0-0.471-0.21-0.472-0.47v-0c0.001-0.26 0.212-0.47 0.472-0.47 0.001 0 0.001 0 0.002 0h-0c0 0 0.001 0 0.001 0 0.26 0 0.471 0.21 0.472 0.47v0c-0.001 0.26-0.212 0.47-0.472 0.47-0 0-0.001 0-0.001 0h0zM129.15 12c-0 0-0.001 0-0.001 0-0.26 0-0.471-0.21-0.472-0.47v-0c0-0.261 0.212-0.473 0.473-0.473s0.473 0.212 0.473 0.473v0c-0.001 0.26-0.212 0.47-0.472 0.47-0 0-0.001 0-0.001 0h0zM11.181 19.909c0.578-0.838 0.868-2.142 0.868-3.915 0-1.78-0.294-3.095-0.88-3.944-0.587-0.85-1.464-1.275-2.63-1.275-2.371 0-3.557 1.74-3.557 5.219 0 3.448 1.178 5.171 3.533 5.171 1.198 0 2.086-0.419 2.666-1.256zM8.539 6.823c2.787 0 4.899 0.777 6.336 2.33s2.156 3.834 2.156 6.841c0 3-0.722 5.28-2.168 6.842s-3.561 2.342-6.348 2.342c-2.746 0-4.853-0.784-6.318-2.354-1.466-1.568-2.198-3.853-2.198-6.853 0-2.967 0.728-5.234 2.186-6.798s3.575-2.348 6.354-2.348zM29.456 18.994c0.682-0.852 1.024-2.155 1.024-3.908 0-1.64-0.322-2.854-0.97-3.646s-1.629-1.186-2.946-1.186h-1.405v10.018h1.074c1.464 0 2.538-0.426 3.221-1.278zM33.146 8.554c1.558 1.468 2.336 3.588 2.336 6.36 0 2.985-0.819 5.285-2.458 6.899s-3.942 2.422-6.911 2.422h-5.77v-17.882h6.173c2.862 0 5.072 0.734 6.63 2.202zM38.794 24.235v-17.882h4.73v17.882h-4.73zM51.612 11.011c-0.281 0.22-0.421 0.493-0.421 0.818 0 0.35 0.178 0.664 0.534 0.941s1.323 0.782 2.902 1.514c1.513 0.692 2.564 1.434 3.152 2.228s0.883 1.794 0.883 2.998c0 1.107-0.277 2.090-0.829 2.949-0.552 0.86-1.35 1.527-2.39 2.003s-2.262 0.714-3.664 0.714c-1.168 0-2.15-0.084-2.942-0.25s-1.618-0.458-2.474-0.873v-4.298c0.904 0.472 1.846 0.84 2.823 1.104 0.976 0.266 1.874 0.398 2.69 0.398 0.706 0 1.222-0.124 1.55-0.373s0.492-0.568 0.492-0.958c0-0.244-0.066-0.458-0.198-0.641s-0.344-0.368-0.636-0.556c-0.293-0.186-1.072-0.57-2.336-1.147-1.146-0.53-2.005-1.042-2.577-1.539s-0.998-1.066-1.274-1.71c-0.276-0.642-0.414-1.404-0.414-2.283 0-1.644 0.589-2.926 1.766-3.846s2.794-1.38 4.852-1.38c1.818 0 3.672 0.427 5.562 1.282l-1.454 3.724c-1.642-0.765-3.058-1.147-4.252-1.147-0.616 0-1.065 0.11-1.345 0.33zM61.501 24.235v-17.882h10.408v3.878h-5.672v2.813h5.252v3.878h-5.252v3.376h5.672v3.938h-10.408zM79.988 16.951h3.76l-0.762-2.924c-0.178-0.65-0.394-1.49-0.647-2.522s-0.421-1.77-0.502-2.216c-0.072 0.414-0.216 1.095-0.429 2.046-0.214 0.95-0.688 2.822-1.421 5.616zM84.992 6.352l5.839 17.882h-5.222l-0.87-3.338h-5.742l-0.895 3.338h-5.246l5.766-17.882h6.371z"></path>
</svg>
