<?xml version="1.0" encoding="UTF-8"?>
<svg width="200px" height="400px" viewBox="0 0 200 400" version="1.1" xmlns="http://www.w3.org/2000/svg" xmlns:xlink="http://www.w3.org/1999/xlink">
    <g id="Page-1" stroke="none" stroke-width="1" fill="none" fill-rule="evenodd">
        <g id="10.0X_404" transform="translate(-152.000000, -184.000000)">
            <g id="Group-5" transform="translate(152.000000, 184.000000)">
                <rect id="Rectangle-Copy" fill="#FFFFFF" x="0" y="0" width="200" height="400"></rect>
                <g id="Page-1" transform="translate(9.000000, 0.000000)">
                    <g id="Group-7" transform="translate(0.000000, 216.000000)">
                        <path d="M77.7618182,182.167359 C27.9202597,174.711082 -6.43904762,128.264329 1.01636364,78.4236364 C8.47177489,28.5829437 54.9193939,-5.77636364 104.759221,1.67904762 C154.600779,9.13445887 188.960087,55.5820779 181.504675,105.421905 C174.049264,155.262597 127.601645,189.622771 77.7618182,182.167359 Z" id="Fill-1" fill="#00ADE5"></path>
                        <path d="M166.710736,116.996883 C167.801645,113.724156 165.366147,110.274805 162.525455,109.260087 C156.438874,107.231515 146.090823,103.781299 150.147965,95.6652814 C143.249264,90.1864935 132.901212,88.3605195 128.843203,80.041039 C128.63974,79.6358442 131.277835,78.4176623 131.075238,78.0124675 C128.031082,68.2730736 114.842338,72.1284848 107.143636,74.5423377 C105.305541,75.1380087 103.580866,75.7812987 102.058788,76.3890909 C92.9280519,79.8384416 87.8561905,88.5631169 82.7808658,96.2903896 C81.6838961,97.8860606 80.5505628,99.4531602 79.3332468,100.940606 C77.9124675,102.563983 76.4925541,103.781299 74.8475325,105.245368 C73.2440693,106.513766 71.62329,107.725887 69.9999134,108.931082 C66.7531602,111.340606 63.5072727,113.724156 60.2605195,116.362251 C58.0284848,118.390823 54.984329,120.217662 54.7817316,123.46355 C54.1730736,132.595152 64.1159307,137.464416 70.0007792,143.145801 C68.1730736,145.783896 66.8033766,148.623723 65.8397403,151.591688 C64.8761039,154.559654 64.3185281,157.654026 64.1159307,160.798615 C64.1159307,161.813333 63.3038095,162.828052 62.4925541,163.43671 C57.8250216,166.683463 46.0561905,167.493853 51.73671,174.190823 C55.4371429,175.951861 60.2605195,178.046234 65.332381,179.060952 C66.1445022,179.26355 66.9730736,179.904242 67.784329,180.107706 C71.0310823,180.918961 74.2613853,181.698182 77.7618182,182.16658 C80.5254545,182.580433 83.2787013,182.858355 86.014632,183.012468 C88.7505628,183.165714 91.4709091,183.195152 94.1687446,183.112035 C95.2423377,181.712035 96.0934199,180.144069 96.6068398,178.45316 C97.5297835,175.412468 97.4665801,172.163117 98.1107359,169.050563 C98.7522944,165.93974 100.380866,162.717229 103.357489,161.576104 C105.502078,160.754459 107.673506,161.177835 109.766147,162.157056 C111.857056,163.135411 113.868312,164.668745 115.687359,166.065281 C119.32632,168.856623 124.760087,171.230649 128.13671,168.127619 C131.091688,165.412468 129.96355,160.271342 127.184329,157.377835 C124.405974,154.483463 120.501212,153.007273 117.161818,150.781299 C115.262251,149.516364 113.533247,147.992554 111.967013,146.303377 C110.379134,143.754459 106.72632,141.725887 107.12632,138.260087 C107.432814,135.021126 109.616364,133.70684 112.281299,132.981299 C114.981732,132.382165 117.702944,131.727619 120.457056,131.247965 C123.364416,130.768312 126.001645,130.363117 128.843203,130.565714 C128.63974,128.73974 127.828485,127.318961 126.611169,125.898182 C124.581732,123.666147 120.727186,122.652294 120.523723,119.609004 C119.712468,114.129351 126.813766,110.072208 131.481299,112.303377 C141.017229,116.970909 150.756623,121.841039 161.444935,119.775238 C163.515065,119.499048 165.79645,118.893853 166.710736,116.996883" id="Fill-4" fill="#00933D"></path>
                        <path d="M143.924329,144.141905 C142.522597,144.141039 141.636017,142.681299 141.036883,141.415498 C140.601385,140.49342 140.154632,139.478701 140.397922,138.489957 C140.886234,136.499481 143.53645,136.165281 145.584069,136.253593 C147.378874,136.330649 149.461991,136.566147 150.416104,138.089957 C151.301818,139.506407 150.701818,141.481299 149.469784,142.610303 C148.237749,143.739307 146.543377,144.199048 144.900087,144.502078" id="Fill-6" fill="#006830"></path>
                        <path d="M97.7561905,41.0985281 C96.3068398,39.1106494 93.9033766,38.0595671 91.5336797,37.4024242 C80.6038095,34.3755844 69.0704762,37.9625974 58.2176623,41.2535065 C52.5605195,42.9695238 45.6765368,44.3574026 41.3501299,40.3279654 C37.7258874,36.9522078 37.6791342,31.2041558 38.8678788,26.3963636 C39.7925541,22.6595671 41.2903896,18.998961 41.8618182,15.2292641 C20.5735065,28.9539394 5.05835498,51.4041558 1.01679654,78.4240693 C0.515497835,81.7781818 0.217662338,85.1132468 0.0860606061,88.4266667 C2.36744589,88.8405195 4.7847619,88.8232035 7.084329,88.5781818 C11.7657143,88.0803463 16.4211255,86.8258009 21.1111688,87.2335931 C26.9068398,87.7374892 32.2722078,90.7452814 38.0739394,91.1721212 C43.8774026,91.5998268 50.8704762,87.5608658 50.0245887,81.8041558 C49.6436364,79.20329 47.7475325,77.0690909 47.045368,74.5366234 C46.058355,70.9738528 47.5856277,67.1496104 49.8245887,64.2093506 C54.6817316,57.8275325 62.5847619,54.4786147 70.4271861,52.7954978 C78.2687446,51.112381 86.3605195,50.8206061 94.1960173,49.1054545 C95.3440693,48.8535065 96.5302165,48.5496104 97.4297835,47.7929004 C99.3111688,46.2084848 99.2046753,43.0855411 97.7561905,41.0985281" id="Fill-8" fill="#00933D"></path>
                        <path d="M108.560952,13.5036364 C111.712468,13.8733333 114.783463,15.1252814 117.947965,14.8949784 C119.589524,14.7754978 121.216364,14.2560173 122.851861,14.4447619 C124.572208,14.6438961 126.098615,15.6014719 127.557489,16.5348052 C131.125455,18.8170563 134.694286,21.0993074 138.262251,23.3824242 C141.945368,25.7374026 146.141905,29.2534199 145.159221,33.5131602 C144.429351,33.3763636 143.699481,33.2378355 142.968745,33.101039 C142.344502,30.8949784 139.935844,29.7105628 137.688225,29.2629437 C135.43974,28.8153247 133.045801,28.8092641 131.009437,27.757316 C129.863117,27.165974 128.896883,26.2716017 127.761818,25.6612121 C126.324589,24.8871861 124.68303,24.6014719 123.074372,24.3261472 C118.877835,23.6066667 115.35316,25.7365368 112.716797,26.931342 C110.080433,28.1252814 108.405108,27.4161905 106.214632,27.0975758 C104.024156,26.7780952 94.4570563,23.0447619 90.1012121,23.0586147 C86.7349784,23.0690043 81.3860606,26.7936797 82.9774026,21.3980087 C84.6882251,15.5962771 103.70381,12.9348052 108.560952,13.5036364" id="Fill-10" fill="#006830"></path>
                        <path d="M66.7919481,132.790996 C68.327013,131.661991 69.4577489,130.06632 70.9244156,128.84987 C72.922684,127.193593 75.5365368,126.300087 78.1304762,126.385801 C81.09671,126.484502 84.4378355,128.614372 84.1261472,131.565887 C83.909697,133.619567 82.0629437,135.056797 80.3720346,136.242078 C77.5685714,138.207446 74.7668398,140.171082 71.9642424,142.13645 C69.1590476,144.101818 66.2404329,146.117403 62.8733333,146.73645 C58.1278788,147.609177 53.3174892,144.801385 49.0153247,146.441212 C45.6525541,147.722597 43.8023377,152.180606 39.0594805,150.859394 C34.3200866,149.539913 34.0828571,144.578874 34.9694372,140.384935 C39.3278788,119.778009 55.6638095,140.974545 66.7919481,132.790996" id="Fill-12" fill-opacity="0.7" fill="#FFFFFF"></path>
                        <path d="M105.584762,66.7559307 C104.894719,68.8875325 105.546667,71.3290909 104.624589,73.3715152 C102.800346,77.4096104 96.7129004,76.9204329 93.3787013,79.8381818 C91.1077056,81.8260606 90.4877922,85.0563636 90.0012121,88.0347186 C89.518961,90.9862338 89.0687446,94.1654545 90.4003463,96.8442424 C91.871342,99.8035498 95.1838961,101.394892 98.4150649,102.094459 C111.214199,104.867619 123.835844,96.989697 136.898182,96.0425108 C145.932814,95.3870996 154.995152,98.0814719 164.004675,97.1377489 C166.033247,96.9247619 168.126753,96.4918615 169.737143,95.2381818 C171.347532,93.9862338 172.319827,91.7169697 171.529351,89.8364502 C171.074805,88.7559307 170.137143,87.9680519 169.233247,87.2225974 C162.397749,81.5905628 154.996883,75.7143723 146.181299,74.8563636 C141.75013,74.4260606 137.875671,74.245974 136.378701,69.7204329 C134.976104,65.4788745 137.561385,62.2927273 132.427186,59.7680519 C126.347532,56.7775758 107.884329,59.6494372 105.584762,66.7559307" id="Fill-14" fill-opacity="0.7" fill="#FFFFFF"></path>
                        <path d="M40.0882251,94.7515152 C34.0561905,90.8207792 29.3064069,83.8649351 24.3202597,78.6051948 C21.0899567,75.1974026 14.4432035,62.0770563 7.46658009,55.7748918 C4.41722944,62.8571429 2.21116883,70.438961 1.01636364,78.4242424 C0.518528139,81.7515152 0.220692641,85.0632035 0.0882251082,88.3497835 C1.52632035,89.808658 3.18952381,91.0917749 4.82588745,92.3264069 C9.23108225,95.6467532 14.8397403,93.8995671 19.2449351,97.2199134 C22.4657143,99.647619 24.5046753,107.158442 28.1038095,108.980952 C35.8111688,112.880519 44.7133333,113.716883 53.3479654,113.503896 C54.1375758,113.484848 54.9635498,113.447619 55.6440693,113.048485 C56.7003463,112.431169 57.1271861,111.106494 57.1722078,109.883983 C57.5167965,100.75671 45.954026,98.5731602 40.0882251,94.7515152" id="Fill-16" fill-opacity="0.7" fill="#FFFFFF"></path>
                        <path d="M170.779394,47.2115152 C176.219221,61.4115152 178.200173,77.1578355 175.790649,93.2703896 C168.335238,143.110216 121.887619,177.47039 72.0477922,170.014113 C43.0824242,165.681645 19.3664069,148.166494 6.02787879,124.482511 C17.4148918,154.209784 44.0322078,177.121472 77.7612121,182.167359 C127.601905,189.622771 174.048658,155.262597 181.504935,105.421905 C184.627013,84.5474459 180.393247,64.2799134 170.779394,47.2115152" id="Fill-18" fill-opacity="0.15" fill="#000000"></path>
                        <path d="M2.58233766,80.5411255 C10.0377489,30.7004329 56.485368,-3.65887446 106.326061,3.795671 C130.777143,7.45367965 151.485368,20.5099567 165.375411,38.7333333 C151.502684,19.4051948 130.148571,5.47705628 104.759827,1.67878788 C54.9191342,-5.77662338 8.47238095,28.5835498 1.0161039,78.4242424 C-2.7812987,103.812987 4.28883117,128.307359 18.711342,147.229437 C5.34943723,128.614719 -1.075671,104.992208 2.58233766,80.5411255" id="Fill-21" fill-opacity="0.8" fill="#FFFFFF" style="mix-blend-mode: soft-light;"></path>
                        <path d="M62.2879654,28.3228571 C66.7130736,33.3548918 90.6992208,28.6345455 95.1078788,32.2795671 C99.515671,35.9237229 92.7641558,42.9531602 78.6974892,42.4319481 C64.6308225,41.9116017 53.6966234,34.4709091 53.4360173,28.1678788 C53.1762771,21.8657143 59.4559307,25.1029437 62.2879654,28.3228571" id="Fill-23" fill-opacity="0.7" fill="#FFFFFF"></path>
                        <path d="M67.514026,65.9087446 C74.9365368,66.7909957 70.7209524,72.8143723 74.9365368,73.945974 C79.1521212,75.0784416 77.3884848,79.8394805 72.8040693,78.0758442 C68.2187879,76.3130736 60.6006061,84.4238961 57.1798268,77.9000866 C53.7599134,71.3745455 65.2716017,65.6420779 67.514026,65.9087446" id="Fill-25" fill="#006830"></path>
                        <path d="M96.6088312,57.2684848 C96.2564502,60.9706494 89.4841558,61.8529004 89.5196537,59.3836364 C89.5560173,56.9152381 96.9620779,53.5654545 96.6088312,57.2684848" id="Fill-27" fill="#006830"></path>
                    </g>
                    <g id="Group-6" transform="translate(33.000000, 0.000000)">
                        <path d="M102.415931,251.197316 C102.415931,264.586061 82.6470996,275.43974 58.2600866,275.43974 C33.8739394,275.43974 14.1042424,264.586061 14.1042424,251.197316 C14.1042424,237.808571 33.8739394,226.954892 58.2600866,226.954892 C82.6470996,226.954892 102.415931,237.808571 102.415931,251.197316" id="Fill-29" fill-opacity="0.3" fill="#000000"></path>
                        <path d="M79.37671,150.037229 L79.37671,143.608658 C103.656364,143.608658 132.109177,139.021645 132.389697,126.092641 C132.529957,119.67013 124.74987,113.25368 116.381039,112.890043 L116.660693,106.467532 C128.680606,106.98961 139.034719,116.225974 138.817403,126.2329 C138.662424,133.38961 132.558528,150.037229 79.37671,150.037229" id="Fill-31" fill="#BBCFD8"></path>
                        <path d="M117.382338,112.962511 C117.04987,112.928745 116.715671,112.904502 116.380606,112.889784 L116.661126,106.467273 C117.12,106.487186 117.57974,106.520952 118.035152,106.56684 L117.382338,112.962511 Z M122.313074,114.161645 C121.995325,114.038701 121.674978,113.922684 121.350303,113.815325 L123.364156,107.710563 C123.795325,107.852554 124.222165,108.006667 124.64381,108.170303 L122.313074,114.161645 Z M126.775411,116.611861 C126.502684,116.410996 126.223896,116.217056 125.939048,116.030043 L129.469784,110.657749 C129.850736,110.907965 130.224762,111.168571 130.588398,111.436104 L126.775411,116.611861 Z M130.288831,120.094113 C130.100087,119.834372 129.901818,119.580693 129.69316,119.331342 L134.618701,115.200606 C134.924329,115.564242 135.214372,115.936537 135.488831,116.314892 L130.288831,120.094113 Z M132.210909,124.231775 C132.151169,123.946061 132.075844,123.662078 131.987532,123.380693 L138.122597,121.458615 C138.274113,121.943463 138.402251,122.432641 138.50355,122.911429 L132.210909,124.231775 Z M138.070649,130.469004 L131.982338,128.401472 C132.071515,128.14 132.147706,127.869004 132.207446,127.595411 L138.484502,128.987619 C138.372814,129.488052 138.23342,129.986753 138.070649,130.469004 L138.070649,130.469004 Z M134.245541,136.649091 L129.576277,132.228312 C129.801385,131.991082 130.012641,131.752121 130.210043,131.510563 L135.184069,135.584156 C134.891429,135.942597 134.578009,136.297576 134.245541,136.649091 L134.245541,136.649091 Z M128.945108,140.860346 L125.587532,135.378095 C125.892294,135.191082 126.186667,135.002338 126.470649,134.810996 L130.062857,140.142597 C129.70355,140.384156 129.332121,140.623983 128.945108,140.860346 L128.945108,140.860346 Z M123.174545,143.75039 L120.732987,137.803203 C121.080173,137.660346 121.418701,137.516623 121.749437,137.370303 L124.34684,143.250823 C123.965887,143.418788 123.575411,143.585887 123.174545,143.75039 L123.174545,143.75039 Z M117.229091,145.806667 L115.438615,139.631775 C115.805714,139.525281 116.165887,139.417056 116.519134,139.3071 L118.426494,145.446494 C118.034286,145.568571 117.635152,145.688052 117.229091,145.806667 L117.229091,145.806667 Z M111.215238,147.293247 L109.902684,140.99974 C110.281039,140.920952 110.654199,140.840433 111.021299,140.758182 L112.42303,147.032641 C112.026494,147.120952 111.623896,147.208398 111.215238,147.293247 L111.215238,147.293247 Z M105.176277,148.365108 L104.228225,142.006667 C104.613506,141.949524 104.995325,141.890649 105.372814,141.830043 L106.384069,148.178961 C105.986667,148.24303 105.584069,148.304502 105.176277,148.365108 L105.176277,148.365108 Z M99.1295238,149.119221 L98.4697835,142.724416 L99.6299567,142.600606 L100.335584,148.991082 L99.1295238,149.119221 Z M93.0758442,149.621385 L92.6611255,143.205801 L93.8282251,143.127013 L94.2845022,149.539134 L93.0758442,149.621385 Z M87.0351515,149.914026 L86.8169697,143.488918 L87.9918615,143.446494 L88.2403463,149.870736 L87.0351515,149.914026 Z M80.9970563,150.031775 L80.9563636,143.603203 L82.128658,143.592814 L82.2048485,150.021385 L80.9970563,150.031775 Z" id="Fill-33" fill="#D6ECF7"></path>
                        <path d="M81.7576623,143.608398 L81.7576623,150.03697 C82.8381818,150.03697 83.8927273,150.028312 84.9342857,150.014459 C84.8572294,147.688052 84.7464069,145.601472 84.6052814,143.590216 C83.6667532,143.601472 82.7195671,143.608398 81.7576623,143.608398" id="Fill-35" fill="#A1B2BB"></path>
                        <path d="M112.947619,115.49316 L114.019481,115.510476 C115.779654,115.539048 117.243723,114.122597 117.272294,112.362424 L117.358874,107.09316 C117.387446,105.332987 115.970996,103.869784 114.210823,103.841212 L113.138961,103.82303 L112.947619,115.49316 Z" id="Fill-37" fill="#A1B2BB"></path>
                        <polygon id="Fill-39" fill="#BBCFD8" points="63.1792208 247.748918 69.8467532 247.748918 69.8467532 186.327273 63.1792208 186.327273"></polygon>
                        <path d="M63.1792208,187.393939 L69.8467532,187.393939 L69.8467532,186.327273 L63.1792208,186.327273 L63.1792208,187.393939 Z M63.1792208,192.729004 L69.8467532,192.729004 L69.8467532,191.662338 L63.1792208,191.662338 L63.1792208,192.729004 Z M63.1792208,198.063203 L69.8467532,198.063203 L69.8467532,196.996537 L63.1792208,196.996537 L63.1792208,198.063203 Z M63.1792208,203.397403 L69.8467532,203.397403 L69.8467532,202.330736 L63.1792208,202.330736 L63.1792208,203.397403 Z M63.1792208,208.731602 L69.8467532,208.731602 L69.8467532,207.664935 L63.1792208,207.664935 L63.1792208,208.731602 Z M63.1792208,214.065801 L69.8467532,214.065801 L69.8467532,212.999134 L63.1792208,212.999134 L63.1792208,214.065801 Z M63.1792208,219.4 L69.8467532,219.4 L69.8467532,218.333333 L63.1792208,218.333333 L63.1792208,219.4 Z M63.1792208,224.734199 L69.8467532,224.734199 L69.8467532,223.667532 L63.1792208,223.667532 L63.1792208,224.734199 Z M63.1792208,230.069264 L69.8467532,230.069264 L69.8467532,229.002597 L63.1792208,229.002597 L63.1792208,230.069264 Z M63.1792208,235.403463 L69.8467532,235.403463 L69.8467532,234.336797 L63.1792208,234.336797 L63.1792208,235.403463 Z M63.1792208,240.737662 L69.8467532,240.737662 L69.8467532,239.670996 L63.1792208,239.670996 L63.1792208,240.737662 Z M63.1792208,246.071861 L69.8467532,246.071861 L69.8467532,245.005195 L63.1792208,245.005195 L63.1792208,246.071861 Z" id="Fill-41" fill="#D6ECF7"></path>
                        <path d="M63.1860606,184.135758 L63.1860606,192.979913 C65.4449351,192.956537 67.6665801,192.904589 69.8414719,192.824935 L69.8414719,184.135758 L63.1860606,184.135758 Z" id="Fill-42" fill="#A1B2BB"></path>
                        <polygon id="Fill-43" fill="#BBCFD8" points="47.1272727 247.748918 53.7948052 247.748918 53.7948052 186.327273 47.1272727 186.327273"></polygon>
                        <path d="M47.1272727,187.394805 L53.7948052,187.394805 L53.7948052,186.328139 L47.1272727,186.328139 L47.1272727,187.394805 Z M47.1272727,192.729004 L53.7948052,192.729004 L53.7948052,191.662338 L47.1272727,191.662338 L47.1272727,192.729004 Z M47.1272727,198.063203 L53.7948052,198.063203 L53.7948052,196.996537 L47.1272727,196.996537 L47.1272727,198.063203 Z M47.1272727,203.397403 L53.7948052,203.397403 L53.7948052,202.330736 L47.1272727,202.330736 L47.1272727,203.397403 Z M47.1272727,208.731602 L53.7948052,208.731602 L53.7948052,207.664935 L47.1272727,207.664935 L47.1272727,208.731602 Z M47.1272727,214.065801 L53.7948052,214.065801 L53.7948052,212.999134 L47.1272727,212.999134 L47.1272727,214.065801 Z M47.1272727,219.4 L53.7948052,219.4 L53.7948052,218.333333 L47.1272727,218.333333 L47.1272727,219.4 Z M47.1272727,224.734199 L53.7948052,224.734199 L53.7948052,223.667532 L47.1272727,223.667532 L47.1272727,224.734199 Z M47.1272727,230.068398 L53.7948052,230.068398 L53.7948052,229.001732 L47.1272727,229.001732 L47.1272727,230.068398 Z M47.1272727,235.402597 L53.7948052,235.402597 L53.7948052,234.335931 L47.1272727,234.335931 L47.1272727,235.402597 Z M47.1272727,240.736797 L53.7948052,240.736797 L53.7948052,239.67013 L47.1272727,239.67013 L47.1272727,240.736797 Z M47.1272727,246.071861 L53.7948052,246.071861 L53.7948052,245.005195 L47.1272727,245.005195 L47.1272727,246.071861 Z" id="Fill-44" fill="#D6ECF7"></path>
                        <path d="M53.7890909,184.135758 L53.7890909,192.979913 C51.5302165,192.956537 49.3085714,192.904589 47.1336797,192.824935 L47.1336797,184.135758 L53.7890909,184.135758 Z" id="Fill-45" fill="#A1B2BB"></path>
                        <path d="M70.6019913,240.559134 C77.0245022,241.354805 84.7258009,247.479481 84.1630303,253.875152 C80.4028571,254.30632 76.3275325,254.297662 72.1128139,253.775584 C67.8980952,253.254372 63.9439827,252.267359 60.4028571,250.932294 C61.41671,244.5929 64.1794805,239.764329 70.6019913,240.559134" id="Fill-46" fill="#D6ECF7"></path>
                        <path d="M46.3722944,240.559134 C39.9497835,241.354805 32.2493506,247.479481 32.8112554,253.875152 C36.5722944,254.30632 40.647619,254.297662 44.8623377,253.775584 C49.0770563,253.254372 53.030303,252.267359 56.5722944,250.932294 C55.5575758,244.5929 52.7948052,239.764329 46.3722944,240.559134" id="Fill-47" fill="#D6ECF7"></path>
                        <path d="M99.1184416,100.15645 L99.4058874,101.926147 C100.17039,101.727013 100.971255,101.620519 101.798095,101.634372 C106.729697,101.714892 110.676017,105.792814 110.595498,110.724416 C110.514113,115.655152 106.437056,119.601472 101.505455,119.520952 C100.563463,119.505368 99.6578355,119.343463 98.8093506,119.058615 L98.7825108,120.681991 L99.1591342,123.003203 C99.8993939,123.152121 100.662165,123.242165 101.444848,123.254286 C108.434459,123.369437 114.214545,117.775498 114.327965,110.785022 C114.443117,103.795411 108.849177,98.0153247 101.859567,97.901039 C100.932294,97.8854545 100.026667,97.9737662 99.151342,98.1495238 L99.1184416,100.15645 Z" id="Fill-48" fill="#BBCFD8"></path>
                        <path d="M99.1252814,99.772987 C99.9824242,99.5158442 100.893247,99.3833766 101.835238,99.398961 C106.765974,99.4794805 110.71316,103.557403 110.631775,108.488139 C110.551255,113.41974 106.473333,117.366061 101.541732,117.285541 C100.59974,117.269957 99.6941126,117.108052 98.8464935,116.822338 L98.7824242,120.681212 C99.6508225,120.886407 100.552987,121.00329 101.481126,121.018874 C108.470736,121.13316 114.250823,115.540087 114.365974,108.54961 C114.479394,101.56 108.885455,95.7799134 101.895844,95.6656277 C100.968571,95.6500433 100.062944,95.738355 99.1884848,95.9141126 L99.1252814,99.772987 Z" id="Fill-49" fill="#D6ECF7"></path>
                        <path d="M6.4608658,199.446234 C6.19766234,198.605541 0.129264069,178.681732 9.62883117,162.384762 C15.0548052,153.077403 24.3716883,146.944935 37.3232035,144.158788 L38.668658,150.416797 C27.5509091,152.809004 19.6418182,157.919827 15.1595671,165.608139 C7.06606061,179.491255 12.5136797,197.355325 12.5699567,197.534545 L6.4608658,199.446234 Z" id="Fill-50" fill="#BBCFD8"></path>
                        <path d="M35.9006061,151.085714 L34.2348052,144.904762 C34.5932468,144.808658 34.9560173,144.714286 35.3239827,144.622511 L36.8763636,150.8329 C36.5473593,150.915152 36.2218182,150.999134 35.9006061,151.085714 L35.9006061,151.085714 Z M31.1551515,152.629437 L28.8477922,146.658009 C29.1984416,146.522078 29.5534199,146.38961 29.9135931,146.25974 L32.087619,152.280519 C31.7716017,152.394805 31.461645,152.510823 31.1551515,152.629437 L31.1551515,152.629437 Z M26.68329,154.680519 L23.6391342,149.050216 C23.9741991,148.869264 24.3144589,148.690909 24.6607792,148.515152 L27.5508225,154.22684 C27.257316,154.375758 26.9681385,154.527273 26.68329,154.680519 L26.68329,154.680519 Z M22.5975758,157.290043 L18.7499567,152.174026 C19.057316,151.943723 19.3741991,151.711688 19.6945455,151.48658 L23.3767965,156.722944 C23.1118615,156.909091 22.852987,157.097835 22.5975758,157.290043 L22.5975758,157.290043 Z M19.0131602,160.473593 L14.3750649,156.061472 C14.6460606,155.775758 14.9231169,155.494372 15.201039,155.222511 L19.6824242,159.793074 C19.4581818,160.012987 19.2330736,160.241558 19.0131602,160.473593 L19.0131602,160.473593 Z M16.0365368,164.200866 L10.7075325,160.654545 C10.9257143,160.326407 11.1516883,160 11.3776623,159.684848 L16.5785281,163.41645 C16.39671,163.670996 16.214026,163.934199 16.0365368,164.200866 L16.0365368,164.200866 Z M13.7300433,168.400866 L7.88502165,165.791342 C8.044329,165.432035 8.21142857,165.075325 8.37939394,164.72987 L14.1352381,167.529004 C13.9949784,167.818182 13.8599134,168.109091 13.7300433,168.400866 L13.7300433,168.400866 Z M12.1049351,172.962771 L5.93177489,171.267532 C6.03393939,170.895238 6.1412987,170.52381 6.25558442,170.152381 L12.3750649,172.028571 C12.2806926,172.34026 12.1897835,172.651082 12.1049351,172.962771 L12.1049351,172.962771 Z M11.1265801,177.775758 L4.78458874,176.903896 C4.8365368,176.527273 4.89281385,176.149784 4.95428571,175.771429 L11.2729004,176.797403 C11.2192208,177.124675 11.1716017,177.451082 11.1265801,177.775758 L11.1265801,177.775758 Z M10.7387013,182.730736 L4.3387013,182.584416 C4.34735931,182.208658 4.35948052,181.830303 4.37679654,181.448485 L10.7724675,181.732468 C10.7568831,182.067532 10.7456277,182.400866 10.7387013,182.730736 L10.7387013,182.730736 Z M4.49627706,188.234632 C4.46683983,187.864935 4.4425974,187.490043 4.42008658,187.109091 L10.8105628,186.74026 C10.8304762,187.079654 10.852987,187.414719 10.878961,187.743723 L4.49627706,188.234632 Z M5.18718615,193.823377 C5.12571429,193.465801 5.06597403,193.094372 5.00709957,192.709957 L11.3361039,191.749784 C11.3880519,192.093506 11.4425974,192.425108 11.4962771,192.743723 L5.18718615,193.823377 Z M6.46077922,199.446753 C6.44692641,199.401732 6.31792208,198.987013 6.13004329,198.263203 L12.3257143,196.656277 C12.4729004,197.221645 12.5698701,197.534199 12.5707359,197.537662 L6.46077922,199.446753 Z" id="Fill-51" fill="#D6ECF7"></path>
                        <path d="M37.3227706,144.158874 C35.6266667,144.523377 34.0006926,144.952814 32.4309957,145.432468 C32.3063203,147.52684 32.2154113,149.748485 32.1574026,152.268831 C34.190303,151.536364 36.3565368,150.913853 38.6690909,150.416883 L37.3227706,144.158874 Z" id="Fill-52" fill="#A1B2BB"></path>
                        <path d="M16.4379221,199.752727 L16.1028571,198.73368 C15.5539394,197.060952 13.7366234,196.142338 12.0638961,196.69039 L7.0561039,198.334545 C5.38337662,198.884329 4.4647619,200.701645 5.01454545,202.373506 L5.34787879,203.39342 L16.4379221,199.752727 Z" id="Fill-53" fill="#A1B2BB"></path>
                        <path d="M6.10995671,217.959913 C5.58701299,217.234372 5.16277056,216.417056 4.86926407,215.522684 C3.33073593,210.836104 5.89177489,205.772035 10.5774892,204.233506 C15.2632035,202.695844 20.3272727,205.256883 21.8658009,209.942597 C22.1593074,210.83697 22.3030303,211.746061 22.3116883,212.641299 L25.978355,211.437835 C25.8874459,210.55039 25.7030303,209.659481 25.4138528,208.778095 C23.2329004,202.135671 16.0545455,198.505368 9.41212121,200.68632 C2.77142857,202.866407 -0.858874459,210.044762 1.32207792,216.687186 C1.61125541,217.568571 1.99047619,218.394545 2.44329004,219.164242 L6.10995671,217.959913 Z" id="Fill-54" fill="#BBCFD8"></path>
                        <path d="M6.47437229,217.84026 L8.05272727,216.990043 C7.61376623,216.3329 7.25099567,215.610823 6.99385281,214.824675 C5.45445887,210.138095 8.01549784,205.074892 12.7012121,203.536364 C17.3877922,201.998701 22.4518615,204.558874 23.9895238,209.245455 C24.2830303,210.139827 24.4267532,211.048918 24.4354113,211.944156 L25.9782684,211.437662 L28.0483983,210.322511 C27.9470996,209.573593 27.7817316,208.82381 27.5375758,208.080952 C25.3574892,201.438528 18.18,197.808225 11.5375758,199.989177 C4.89515152,202.169264 1.26484848,209.346753 3.44580087,215.989177 C3.73497835,216.870563 4.11419913,217.697403 4.56701299,218.466234 L6.47437229,217.84026 Z" id="Fill-55" fill="#D6ECF7"></path>
                        <path d="M58.4875325,190.325714 C50.3247619,190.325714 42.607013,189.934372 35.7438095,189.24 C34.5117749,177.857316 33.8122078,172.837403 33.8122078,159.087619 C33.8122078,145.337835 34.5117749,140.090216 35.7438095,128.707532 C42.607013,128.012294 50.3247619,127.620952 58.4875325,127.620952 C66.650303,127.620952 74.3671861,128.012294 81.2312554,128.707532 C82.4624242,140.090216 83.1619913,145.337835 83.1628571,159.087619 C83.1619913,172.837403 82.4624242,177.857316 81.2312554,189.24 C74.3671861,189.934372 66.650303,190.325714 58.4875325,190.325714" id="Fill-56" fill="#D6ECF7"></path>
                        <path d="M58.4875325,127.621126 C50.3247619,127.621126 42.607013,128.012468 35.7438095,128.70684 C35.1256277,134.418528 34.641645,138.585628 34.3126407,143.056623 C41.6615584,143.512035 49.4321212,143.767446 57.4806061,143.786494 L59.4944589,143.786494 C67.5420779,143.767446 75.3135065,143.512035 82.6624242,143.056623 C82.3334199,138.585628 81.8485714,134.418528 81.2312554,128.70684 C74.3671861,128.012468 66.650303,127.621126 58.4875325,127.621126" id="Fill-57" fill="#A1B2BB"></path>
                        <path d="M58.4875325,69.3791342 C52.9992208,69.3791342 48.5498701,73.827619 48.5498701,79.3159307 L48.5498701,99.384329 L68.4251948,99.384329 L68.4251948,79.3159307 C68.4251948,73.827619 63.9758442,69.3791342 58.4875325,69.3791342" id="Fill-58" fill="#56B039"></path>
                        <path d="M60.3096104,69.548658 C59.7182684,69.4395671 59.1096104,69.378961 58.4879654,69.378961 C52.9996537,69.378961 48.550303,73.8274459 48.550303,79.3157576 L48.550303,99.3841558 L52.1953247,99.3841558 L52.1953247,79.3157576 C52.1953247,74.4508225 55.6931602,70.4049351 60.3096104,69.548658" id="Fill-59" fill="#7DC064"></path>
                        <path d="M70.8040693,103.06632 L46.1711688,103.06632 C44.4109957,103.06632 42.970303,101.625628 42.970303,99.8654545 L42.970303,89.8446753 C42.970303,88.0845022 44.4109957,86.6446753 46.1711688,86.6446753 L70.8040693,86.6446753 C72.5642424,86.6446753 74.0040693,88.0845022 74.0040693,89.8446753 L74.0040693,99.8654545 C74.0040693,101.625628 72.5642424,103.06632 70.8040693,103.06632" id="Fill-60" fill="#A1B2BB"></path>
                        <path d="M97.3860606,92.3587879 C85.7618182,91.0999134 72.5332468,90.3864935 58.4925541,90.3864935 L58.4821645,90.3864935 C44.4414719,90.3864935 31.2129004,91.0999134 19.5895238,92.3587879 C18.8795671,99.3674459 18.4795671,107.247965 18.4795671,115.583896 C18.4795671,118.662684 18.5349784,121.680866 18.6397403,124.615065 L98.3358442,124.615065 C98.4397403,121.680866 98.4942857,118.662684 98.4942857,115.583896 C98.4942857,107.247965 98.0951515,99.3674459 97.3860606,92.3587879" id="Fill-61" fill="#BBCFD8"></path>
                        <path d="M39.507619,107.108225 C39.507619,110.111688 37.072987,112.547186 34.0695238,112.547186 C31.0660606,112.547186 28.6305628,110.111688 28.6305628,107.108225 C28.6305628,104.104762 31.0660606,101.67013 34.0695238,101.67013 C37.072987,101.67013 39.507619,104.104762 39.507619,107.108225" id="Fill-62" fill="#4F4E50"></path>
                        <path d="M88.3441558,107.108225 C88.3441558,110.111688 85.908658,112.547186 82.9051948,112.547186 C79.9017316,112.547186 77.4670996,110.111688 77.4670996,107.108225 C77.4670996,104.104762 79.9017316,101.67013 82.9051948,101.67013 C85.908658,101.67013 88.3441558,104.104762 88.3441558,107.108225" id="Fill-63" fill="#4F4E50"></path>
                        <path d="M57.4806061,140.780606 L59.4944589,140.780606 C73.1611255,140.74684 86.0390476,140.039481 97.385368,138.811775 C97.8321212,134.391861 98.1567965,129.623896 98.3360173,124.615238 L18.6399134,124.615238 C18.8182684,129.623896 19.1420779,134.391861 19.5888312,138.811775 C30.9360173,140.039481 43.8130736,140.74684 57.4806061,140.780606" id="Fill-64" fill="#D6ECF7"></path>
                        <path d="M58.4875325,119.289524 C55.4832035,119.289524 50.3273593,124.728485 50.3273593,124.728485 C50.3273593,124.728485 55.4832035,130.16658 58.4875325,130.16658 C61.4909957,130.16658 66.6468398,124.728485 66.6468398,124.728485 C66.6468398,124.728485 61.4909957,119.289524 58.4875325,119.289524" id="Fill-65" fill="#A1B2BB"></path>
                        <path d="M52.0972294,45.5328139 C52.0972294,44.045368 52.6045887,42.8176623 53.6184416,41.8514286 C54.6322944,40.884329 55.9301299,40.4029437 57.5119481,40.4029437 C59.0937662,40.4029437 60.3916017,40.884329 61.4054545,41.8514286 C62.4193074,42.8176623 62.9258009,44.045368 62.9258009,45.5328139 C62.9258009,46.9977489 62.4305628,48.2090043 61.438355,49.1648485 C60.4478788,50.1198268 59.1379221,50.5960173 57.5119481,50.5960173 C55.8851082,50.5960173 54.5760173,50.1198268 53.5846753,49.1648485 C52.5933333,48.2090043 52.0972294,46.9977489 52.0972294,45.5328139 L52.0972294,45.5328139 Z M53.0669264,35.2895238 C53.0669264,32.1674459 53.4461472,29.68 54.2037229,27.8280519 C54.9604329,25.9787013 56.3474459,24.1544589 58.3638961,22.3605195 C60.3803463,20.5648485 61.7223377,19.1025108 62.3916017,17.9769697 C63.0591342,16.8488312 63.3941991,15.6600866 63.3941991,14.4090043 C63.3941991,10.6384416 61.655671,8.75272727 58.1794805,8.75272727 C56.5309957,8.75272727 55.2115152,9.25922078 54.2193074,10.2765368 C53.2288312,11.292987 52.7102165,12.6938528 52.6651948,14.4817316 L42.9734199,14.4817316 C43.0184416,10.2202597 44.3941991,6.88692641 47.1006926,4.4782684 C49.8080519,2.07134199 53.5006926,0.865281385 58.1794805,0.865281385 C62.90329,0.865281385 66.5690909,2.00727273 69.1760173,4.29385281 C71.7820779,6.5804329 73.085974,9.80813853 73.085974,13.9804329 C73.085974,15.8748052 72.6625974,17.6652814 71.8158442,19.3501299 C70.9690909,21.032381 69.4877056,22.9007792 67.3716883,24.9509957 L64.664329,27.527619 C62.9708225,29.1561905 62.0011255,31.0644156 61.7561039,33.2479654 L61.6227706,35.2895238 L53.0669264,35.2895238 Z" id="Fill-66" fill="#4F4E50"></path>
                    </g>
                </g>
            </g>
        </g>
    </g>
</svg>