<?xml version="1.0" encoding="UTF-8"?>
<svg width="480px" height="300px" viewBox="0 0 480 300" version="1.1" xmlns="http://www.w3.org/2000/svg" xmlns:xlink="http://www.w3.org/1999/xlink">
    <!-- Generator: Sketch 52.6 (67491) - http://www.bohemiancoding.com/sketch -->
    <title>Group 10</title>
    <desc>Created with Sketch.</desc>
    <g id="Page-1" stroke="none" stroke-width="1" fill="none" fill-rule="evenodd">
        <g id="Home-(1280px---&gt;1280px)" transform="translate(-650.000000, -1541.000000)">
            <g id="Group-10" transform="translate(650.000000, 1541.000000)">
                <rect id="Rectangle" fill="#FFFFFF" fill-rule="nonzero" x="0" y="0" width="480" height="300"></rect>
                <g id="Group-49" transform="translate(133.000000, 0.000000)">
                    <path d="M154.700858,135.803393 C140.64308,135.803393 129.864151,132.524174 129.084617,132.280124 L132.216636,122.270355 C132.511364,122.362007 161.990571,131.243712 184.686229,117.997353 C197.275172,110.649751 205.646088,97.7028597 209.566718,79.5163588 L219.83895,81.7223979 C215.265326,102.93714 205.199191,118.201439 189.920854,127.089538 C178.286573,133.858455 165.521434,135.803393 154.700858,135.803393" id="Fill-1" fill="#C0CED7"></path>
                    <path d="M218.613693,86.7808348 L208.468002,84.0515275 C208.61056,83.5250622 208.748848,82.9922025 208.883931,82.4534813 L219.077676,84.9962877 C218.927108,85.5984192 218.772803,86.1925577 218.613693,86.7808348 Z M215.736891,95.6044583 L205.935049,91.8264831 C206.129399,91.3234636 206.320545,90.8145826 206.506886,90.2982416 L216.390418,93.8598757 C216.177381,94.4497513 215.958471,95.0305684 215.736891,95.6044583 Z M211.809854,104.138739 L202.567035,99.1506394 C202.819582,98.6849201 203.068393,98.2112078 203.312397,97.7295027 L212.687631,102.465027 C212.399844,103.031989 212.106718,103.589893 211.809854,104.138739 Z M206.682014,112.14762 L198.284402,105.844423 C198.599419,105.427194 198.909097,105.001972 199.215038,104.567691 L207.809669,110.600195 C207.440191,111.125062 207.060569,111.645133 206.682014,112.14762 Z M200.300512,119.316181 L193.058853,111.717069 C193.439543,111.356323 193.814894,110.987052 194.175296,110.620444 L201.677511,117.962718 C201.231682,118.415648 200.768767,118.871243 200.300512,119.316181 Z M192.760921,125.323108 L186.940043,116.592735 C187.376796,116.30286 187.810345,116.003925 188.227877,115.704991 L194.353093,124.225417 C193.836252,124.595755 193.300188,124.965027 192.760921,125.323108 Z M184.329672,129.947798 L180.046505,120.371776 C180.524904,120.159165 181.002235,119.937496 181.476897,119.706767 L186.071877,129.137318 C185.504312,129.412806 184.918594,129.685631 184.329672,129.947798 Z M131.026084,132.820977 C129.839163,132.51405 129.157338,132.303037 129.083656,132.279591 L132.224751,122.272487 L130.654471,127.276039 L132.21781,122.270888 C132.222616,122.271954 132.737322,122.430746 133.66422,122.671066 L131.026084,132.820977 Z M175.339934,133.147087 L172.557637,123.035009 C173.068606,122.894867 173.579575,122.746732 174.090543,122.590604 L177.170771,132.616359 C176.560492,132.803393 175.950747,132.979236 175.339934,133.147087 Z M140.142897,134.660409 C139.511261,134.565027 138.901515,134.466448 138.314729,134.36627 L140.086834,124.029858 C140.609549,124.118845 141.154689,124.2073 141.717983,124.292558 L140.142897,134.660409 Z M166.088038,135.026483 L164.657112,124.637318 C165.190505,124.564316 165.726035,124.484387 166.263166,124.397531 L167.946639,134.74833 C167.325148,134.849041 166.705792,134.941758 166.088038,135.026483 Z M149.336061,135.623286 C148.710832,135.587052 148.095214,135.546021 147.489206,135.49913 L148.293835,125.043357 C148.834703,125.08492 149.384649,125.121687 149.942603,125.154192 L149.336061,135.623286 Z M156.763527,135.756501 L156.52326,125.272487 C157.065196,125.260231 157.611404,125.242114 158.161883,125.218135 L158.626934,135.694156 C158.001705,135.721865 157.379679,135.742647 156.763527,135.756501 Z" id="Fill-3" fill="#DCECF6"></path>
                    <path d="M9.47625268,212.92444 C9.04430531,211.547531 -0.91718072,178.906679 14.6767069,152.209876 C23.5831521,136.961563 38.8775063,126.916092 60.1352972,122.351616 L62.3462912,132.603837 C44.0955801,136.522487 31.1115303,144.895311 23.7545428,157.490515 C10.4704258,180.234032 19.4121102,209.498686 19.5039457,209.791226 L9.47625268,212.92444 Z" id="Fill-5" fill="#C0CED7"></path>
                    <path d="M57.8013932,133.699503 L55.0671503,123.574103 C55.6555384,123.415844 56.2519355,123.261314 56.8547397,123.111048 L59.4026419,133.284938 C58.8628411,133.419751 58.3289136,133.557229 57.8013932,133.699503 Z M50.0108565,136.227922 L46.2253103,126.445684 C46.8003503,126.224014 47.3828652,126.006075 47.9733891,125.793464 L51.5421607,135.657229 C51.0247849,135.843197 50.5148841,136.033961 50.0108565,136.227922 Z M42.6720226,139.589201 L37.6744608,130.364334 C38.2238723,130.068597 38.7834283,129.776057 39.3509933,129.488845 L44.0965412,138.845329 C43.6138707,139.088845 43.1392091,139.336625 42.6720226,139.589201 Z M35.9648249,143.863268 L29.648996,135.481918 C30.1524897,135.104654 30.6741369,134.72579 31.2000555,134.356519 L37.2446492,142.933961 C36.8094982,143.239822 36.3828901,143.548881 35.9648249,143.863268 Z M30.0804095,149.077833 L22.4666028,141.85119 C22.9118984,141.383872 23.3684064,140.921883 23.8227788,140.476412 L31.1792324,147.964156 C30.8113563,148.323837 30.4424124,148.698437 30.0804095,149.077833 Z M25.1949725,155.184938 L16.4471038,149.375169 C16.806437,148.83698 17.1759149,148.302522 17.5469945,147.786714 L26.0844958,153.899147 C25.7849625,154.316377 25.485963,154.748526 25.1949725,155.184938 Z M21.4083585,162.064689 L11.8131467,157.790089 C12.0758391,157.202345 12.34921,156.617798 12.6252505,156.051368 L22.0752339,160.636625 C21.8440433,161.110337 21.6213955,161.587247 21.4083585,162.064689 Z M18.7403226,169.538579 L8.60797972,166.761314 C8.77563297,166.152256 8.95236299,165.54373 9.13923762,164.934671 L19.1850842,168.008739 C19.0286434,168.518686 18.8802116,169.028632 18.7403226,169.538579 Z M17.1348025,177.422771 L6.72481731,175.99524 C6.80971179,175.378721 6.90261518,174.760604 7.00299355,174.139822 L17.3745359,175.819929 C17.2875057,176.355986 17.2079505,176.890977 17.1348025,177.422771 Z M16.4983608,185.540355 L5.99333658,185.301101 C6.0072187,184.686181 6.02750795,184.065933 6.05527218,183.440888 L16.5528215,183.905009 C16.5282608,184.45492 16.5101072,185.000036 16.4983608,185.540355 Z M6.25068966,194.556874 C6.20423796,193.952078 6.16259161,193.337691 6.12681847,192.713179 L16.6168928,192.108384 C16.6489284,192.665222 16.6857694,193.213535 16.7274158,193.753321 L6.25068966,194.556874 Z M7.3858196,203.713002 C7.28544122,203.127389 7.18666463,202.518863 7.09055767,201.88849 L17.4791857,200.316554 C17.5651481,200.878721 17.65378,201.422238 17.7429459,201.94444 L7.3858196,203.713002 Z M9.47667983,212.92508 C9.45372094,212.851545 9.24228564,212.171083 8.93420945,210.986536 L19.1044611,208.35421 C19.3457964,209.279254 19.5043729,209.792931 19.5054407,209.798259 L9.47667983,212.92508 Z" id="Fill-7" fill="#DCECF6"></path>
                    <polygon id="Fill-9" fill="#A5B1B9" points="99.0264721 292.055062 109.971987 292.055062 109.971987 191.433037 99.0264721 191.433037"></polygon>
                    <path d="M99.0264721,193.180817 L109.971987,193.180817 L109.971987,191.433037 L99.0264721,191.433037 L99.0264721,193.180817 Z M99.0264721,201.919716 L109.971987,201.919716 L109.971987,200.171936 L99.0264721,200.171936 L99.0264721,201.919716 Z M99.0264721,210.658082 L109.971987,210.658082 L109.971987,208.910835 L99.0264721,208.910835 L99.0264721,210.658082 Z M99.0264721,219.39698 L109.971987,219.39698 L109.971987,217.649734 L99.0264721,217.649734 L99.0264721,219.39698 Z M99.0264721,228.135879 L109.971987,228.135879 L109.971987,226.388099 L99.0264721,226.388099 L99.0264721,228.135879 Z M99.0264721,236.874245 L109.971987,236.874245 L109.971987,235.126465 L99.0264721,235.126465 L99.0264721,236.874245 Z M99.0264721,245.613144 L109.971987,245.613144 L109.971987,243.865897 L99.0264721,243.865897 L99.0264721,245.613144 Z M99.0264721,254.35151 L109.971987,254.35151 L109.971987,252.604263 L99.0264721,252.604263 L99.0264721,254.35151 Z M99.0264721,263.090941 L109.971987,263.090941 L109.971987,261.343162 L99.0264721,261.343162 L99.0264721,263.090941 Z M99.0264721,271.829307 L109.971987,271.829307 L109.971987,270.081528 L99.0264721,270.081528 L99.0264721,271.829307 Z M99.0264721,280.567673 L109.971987,280.567673 L109.971987,278.820426 L99.0264721,278.820426 L99.0264721,280.567673 Z M99.0264721,289.307105 L109.971987,289.307105 L109.971987,287.559325 L99.0264721,287.559325 L99.0264721,289.307105 Z" id="Fill-11" fill="#DCECF6"></path>
                    <path d="M99.0373642,189.973961 L99.0373642,204.461883 C102.744957,204.424583 106.391682,204.339325 109.960988,204.207709 L109.960988,189.973961 L99.0373642,189.973961 Z" id="Fill-12" fill="#7C858B"></path>
                    <polygon id="Fill-13" fill="#A5B1B9" points="79.7127114 292.055062 90.6582259 292.055062 90.6582259 191.433037 79.7127114 191.433037"></polygon>
                    <path d="M79.7127114,193.180817 L90.6582259,193.180817 L90.6582259,191.433037 L79.7127114,191.433037 L79.7127114,193.180817 Z M79.7127114,201.919716 L90.6582259,201.919716 L90.6582259,200.171936 L79.7127114,200.171936 L79.7127114,201.919716 Z M79.7127114,210.658082 L90.6582259,210.658082 L90.6582259,208.910835 L79.7127114,208.910835 L79.7127114,210.658082 Z M79.7127114,219.396448 L90.6582259,219.396448 L90.6582259,217.649201 L79.7127114,217.649201 L79.7127114,219.396448 Z M79.7127114,228.135879 L90.6582259,228.135879 L90.6582259,226.388099 L79.7127114,226.388099 L79.7127114,228.135879 Z M79.7127114,236.874245 L90.6582259,236.874245 L90.6582259,235.126465 L79.7127114,235.126465 L79.7127114,236.874245 Z M79.7127114,245.613144 L90.6582259,245.613144 L90.6582259,243.865897 L79.7127114,243.865897 L79.7127114,245.613144 Z M79.7127114,254.35151 L90.6582259,254.35151 L90.6582259,252.604263 L79.7127114,252.604263 L79.7127114,254.35151 Z M79.7127114,263.090409 L90.6582259,263.090409 L90.6582259,261.342629 L79.7127114,261.342629 L79.7127114,263.090409 Z M79.7127114,271.829307 L90.6582259,271.829307 L90.6582259,270.081528 L79.7127114,270.081528 L79.7127114,271.829307 Z M79.7127114,280.567673 L90.6582259,280.567673 L90.6582259,278.820426 L79.7127114,278.820426 L79.7127114,280.567673 Z M79.7127114,289.307105 L90.6582259,289.307105 L90.6582259,287.559325 L79.7127114,287.559325 L79.7127114,289.307105 Z" id="Fill-14" fill="#DCECF6"></path>
                    <path d="M90.6472804,189.973961 L90.6472804,204.461883 C86.9391536,204.424583 83.2929625,204.339325 79.7236569,204.207709 L79.7236569,189.973961 L90.6472804,189.973961 Z" id="Fill-15" fill="#7C858B"></path>
                    <path d="M129.084884,132.279964 C129.510958,132.413179 132.925425,133.451723 138.226257,134.367176 C138.123209,130.420817 137.966234,126.911403 137.758003,123.585293 C134.354749,122.914423 132.293788,122.294174 132.216369,122.270195 L129.084884,132.279964 Z" id="Fill-16" fill="#A5B1B9"></path>
                    <path d="M60.1357244,122.351776 C57.3518262,122.949112 54.6821885,123.652487 52.1054542,124.438988 C51.9020279,127.868472 51.7514603,131.50897 51.658023,135.637034 C54.9940022,134.437567 58.5494257,133.418739 62.3461844,132.603464 L60.1357244,122.351776 Z" id="Fill-17" fill="#A5B1B9"></path>
                    <path d="M79.1517137,278.383961 C68.5286915,278.383961 54.7469539,286.790355 54.3737386,297.301545 C60.4119251,298.759982 67.0529158,299.566732 74.0238737,299.566732 C80.9958994,299.566732 87.6363562,298.759982 93.6750766,297.301545 C93.3013273,286.790355 89.774736,278.383961 79.1517137,278.383961" id="Fill-18" fill="#DCECF6"></path>
                    <path d="M110.603356,278.383961 C121.226378,278.383961 135.008116,286.790355 135.381331,297.301545 C129.343145,298.759982 122.702154,299.566732 115.731196,299.566732 C108.75917,299.566732 102.11818,298.759982 96.079993,297.301545 C96.4532084,286.790355 99.9803337,278.383961 110.603356,278.383961" id="Fill-19" fill="#DCECF6"></path>
                    <path d="M207.815702,75.847833 L207.505491,77.5780284 C206.997192,80.4165719 208.908118,83.1549378 211.75235,83.6622202 L217.60473,84.6933037 C220.448962,85.201119 223.192815,83.2940142 223.701114,80.4549378 L224.011326,78.7252753 L207.815702,75.847833 Z" id="Fill-20" fill="#A5B1B9"></path>
                    <path d="M25.8533052,213.426554 L25.3038938,211.756572 C24.4026241,209.01714 21.419037,207.510746 18.6735816,208.410213 L10.4537672,211.103819 C7.70884576,212.002753 6.19943261,214.980373 7.10123622,217.72087 L7.65011373,219.389787 L25.8533052,213.426554 Z" id="Fill-21" fill="#A5B1B9"></path>
                    <path d="M8.90057201,243.253694 C8.04094868,242.064352 7.34577503,240.726341 6.86363847,239.259911 C4.33816122,231.583535 8.54177271,223.287442 16.2335328,220.767549 C23.9263607,218.247123 32.2380107,222.442327 34.762954,230.119769 C35.2456245,231.585666 35.4805526,233.073943 35.4949686,234.540373 L41.5139337,232.568792 C41.364434,231.115151 41.0616971,229.655115 40.5870355,228.211599 C37.0075853,217.330071 25.2254064,211.383357 14.3215383,214.956181 C3.41873801,218.52794 -2.53935936,230.286554 1.04009084,241.168082 C1.51528635,242.612131 2.13837978,243.966128 2.88107298,245.225808 L8.90057201,243.253694 Z" id="Fill-22" fill="#C0CED7"></path>
                    <path d="M9.49867764,243.058028 L12.089828,241.6646 C11.3700937,240.587691 10.7742305,239.405808 10.350826,238.117886 C7.82534874,230.440444 12.0284263,222.145417 19.7207203,219.624991 C27.4130143,217.105098 35.7251982,221.300302 38.2501415,228.976679 C38.7322781,230.443108 38.9672062,231.931385 38.9816222,233.398348 L41.5140405,232.568686 L44.9119553,230.74151 C44.74537,229.514867 44.4741348,228.286092 44.0736891,227.069041 C40.4947728,216.187513 28.71206,210.240799 17.8087258,213.813091 C6.90592553,217.385382 0.947294233,229.143996 4.52674443,240.026057 C5.00193994,241.470107 5.62503337,242.824103 6.3682605,244.083783 L9.49867764,243.058028 Z" id="Fill-23" fill="#DCECF6"></path>
                    <path d="M94.8775348,197.983535 C81.4786233,197.983535 68.8106586,197.342504 57.5442537,196.204316 C55.5212023,177.556892 54.373792,169.333801 54.373792,146.808224 C54.373792,124.283179 55.5212023,115.686021 57.5442537,97.0385968 C68.8106586,95.9004085 81.4786233,95.2599112 94.8775348,95.2599112 C108.276446,95.2599112 120.943877,95.9004085 132.210816,97.0385968 C134.233333,115.686021 135.381278,124.283179 135.381278,146.808224 C135.381278,169.333801 134.233333,177.556892 132.210816,196.204316 C120.943877,197.342504 108.276446,197.983535 94.8775348,197.983535" id="Fill-24" fill="#DCECF6"></path>
                    <path d="M94.1334534,107.09659 C108.347138,106.303694 121.152322,102.512931 130.816411,96.9077798 C119.899728,95.8543162 107.732054,95.2596448 94.8777484,95.2596448 C81.4788369,95.2596448 68.8103383,95.9001421 57.5444673,97.0383304 C57.3837551,98.5180817 57.2299839,99.9285613 57.0804842,101.293215 C67.2293788,105.63389 80.1717823,107.875631 94.1334534,107.09659" id="Fill-25" fill="#DCECF6"></path>
                    <path d="M130.816464,96.9077265 C121.152376,102.51341 108.347192,106.303641 94.1335068,107.096536 C80.1713018,107.875577 67.2294322,105.633837 57.0800037,101.293162 C56.2486785,108.892806 55.5919477,114.910391 55.1338378,121.396892 C67.2369072,121.472558 80.014861,121.179485 93.2274318,120.475044 L96.5271039,120.290675 C109.659052,119.526021 122.318474,118.404885 134.275781,116.995471 C133.755201,110.93206 133.060028,104.871847 132.210549,97.0382771 C131.752973,96.9924512 131.278845,96.9519538 130.816464,96.9077265" id="Fill-26" fill="#A5B1B9"></path>
                    <path d="M88.3369225,0.0261634103 C79.3418453,0.527584369 72.4584515,8.21142096 72.9608773,17.1879751 L74.7991899,50.0126643 L107.371439,48.1956128 L105.533661,15.3714565 C105.030701,6.39436945 97.3319997,-0.475790409 88.3369225,0.0261634103" id="Fill-27" fill="#78AF45"></path>
                    <path d="M91.339731,0.136998224 C90.3605079,0.0117761989 89.357792,-0.0308525755 88.3369225,0.0261634103 C79.3418453,0.527584369 72.4584515,8.21142096 72.9608773,17.1879751 L74.7991899,50.0126643 L80.773305,49.679627 L78.9349925,16.8549378 C78.489697,8.89667851 83.8508634,1.95991119 91.339731,0.136998224" id="Fill-28" fill="#93BF6A"></path>
                    <path d="M111.608635,54.001119 L71.2367719,56.252984 C68.3514275,56.4133748 65.8585199,54.1897513 65.6978077,51.3101776 L64.7799863,34.9199467 C64.6187401,32.040373 66.8473537,29.552984 69.7321642,29.3920604 L110.105095,27.1407282 C112.989905,26.9792718 115.482279,29.2034281 115.643525,32.0830018 L116.560813,48.4732327 C116.722593,51.3522735 114.493979,53.8396625 111.608635,54.001119" id="Fill-29" fill="#A5B1B9"></path>
                    <path d="M93.2272716,116.907176 L96.5274777,116.722806 C118.92467,115.418899 139.965152,113.083908 158.448122,110.037549 C158.777021,102.767211 158.870992,94.9395027 158.704941,86.7302664 L138.618053,87.8508703 C128.721172,96.419254 112.605104,102.49865 94.1333466,103.529201 C75.6615896,104.559218 58.9672774,100.310195 48.175534,92.8949201 L28.0886462,94.0160568 C28.8398823,102.192789 29.8073589,109.960817 30.9456925,117.149627 C49.6539794,118.121563 70.8236722,118.101847 93.2272716,116.907176" id="Fill-30" fill="#DCECF6"></path>
                    <path d="M154.194054,34.0568206 C135.028191,33.0614387 113.281323,33.1024689 90.2690461,34.3861279 L90.2530283,34.3866607 C67.2407515,35.6703197 45.6252291,38.0479396 26.6894891,41.1688988 C26.1694437,52.6973179 26.2367186,65.6244938 26.999701,79.2577087 C27.2821487,84.2953641 27.648423,89.2253819 28.0883792,94.0157904 L48.175801,92.8951865 C58.9670104,100.309929 75.6613226,104.559485 94.1336136,103.528934 C112.604837,102.498384 128.720905,96.4189876 138.617786,87.8506039 L158.704674,86.7305329 C158.607499,81.9209414 158.420625,76.9807993 158.138711,71.9436767 C157.375194,58.309929 155.998729,45.4562877 154.194054,34.0568206" id="Fill-31" fill="#C0CED7"></path>
                    <path d="M60.6868978,63.4733925 C60.9618705,68.3863588 57.1944778,72.5911545 52.2716659,72.8661101 C47.3493879,73.1405329 43.1350979,69.380675 42.8601252,64.4677087 C42.5851525,59.5547425 46.3525452,55.3499467 51.2753571,55.0749911 C56.198169,54.8005684 60.4113912,58.5604263 60.6868978,63.4733925" id="Fill-32" fill="#504F51"></path>
                    <path d="M140.725946,59.0091474 C141.000918,63.9221137 137.233526,68.1269094 132.310714,68.4013321 C127.388436,68.6762877 123.174146,64.915897 122.899173,60.0029307 C122.6242,55.0904973 126.391593,50.8851687 131.314405,50.610746 C136.237217,50.3363233 140.450439,54.0961812 140.725946,59.0091474" id="Fill-33" fill="#504F51"></path>
                    <path d="M208.190626,56.2257016 C206.551469,65.8097158 209.596458,71.4473712 210.746537,71.8422202 L224.192435,74.1319183 C223.041821,73.738135 219.996832,68.0999467 221.636523,58.5159325 C222.157103,55.468508 222.993767,52.9587389 223.929208,50.9471936 L210.483311,48.6569627 C209.54787,50.668508 208.71174,53.1782771 208.190626,56.2257016" id="Fill-34" fill="#C0CED7"></path>
                    <polygon id="Fill-35" fill="#A5B1B9" points="210.483258 48.6569094 223.940901 50.9492718 220.570751 43.6853286 207.113107 41.3929663"></polygon>
                    <path d="M201.694864,55.1193783 C199.689432,66.8460213 203.240584,77.2341208 209.626358,78.3216874 C209.630095,78.3222202 209.634366,78.3227531 209.638104,78.323286 L210.746537,71.8421137 C209.596458,71.4477975 206.551469,65.8096092 208.190626,56.225595 C208.71174,53.1781705 209.54787,50.6684014 210.483311,48.6568561 L207.113161,41.392913 C204.614914,44.8431794 202.631373,49.6426465 201.694864,55.1193783" id="Fill-36" fill="#DCECF6"></path>
                    <path d="M266.107668,22.0342274 C266.107668,22.0342274 258.214618,22.5196625 246.613974,19.206341 L197.770817,5.25660746 L184.848169,55.927833 L233.678512,69.8749023 C245.278621,73.1882238 253.171672,72.7027886 253.171672,72.7027886 L266.107668,22.0342274 Z" id="Fill-37" fill="#EEEEEE"></path>
                    <path d="M200.223413,38.0241741 C200.15507,38.2197336 199.945237,38.3428242 199.738607,38.3023268 C199.519697,38.259698 199.386749,38.0513499 199.441743,37.8360746 L206.063512,11.8730195 C206.121177,11.6582771 206.340621,11.5186679 206.558463,11.5612966 C206.777374,11.6039254 206.910322,11.8122735 206.855327,12.027016 L200.233558,37.9911368 C200.230354,38.0023268 200.227151,38.012984 200.223413,38.0241741" id="Fill-38" fill="#333333"></path>
                    <path d="M203.253879,38.890071 C203.185536,39.0850977 202.975703,39.2087211 202.769073,39.1676909 C202.550162,39.1250622 202.417215,38.9172469 202.472209,38.7019716 L207.742608,18.0360746 C207.793865,17.818135 208.019182,17.6817229 208.238093,17.7243517 C208.456469,17.7664476 208.589417,17.9753286 208.534422,18.190071 L203.264024,38.8565009 C203.26082,38.8676909 203.257616,38.878881 203.253879,38.890071" id="Fill-39" fill="#333333"></path>
                    <path d="M218.192371,43.1565719 C218.124028,43.3521314 217.914194,43.475222 217.70703,43.4341918 C217.48812,43.3920959 217.355706,43.1837478 217.410701,42.9684725 L224.031936,17.0048845 C224.083193,16.7885435 224.307977,16.6505329 224.526887,16.6931616 C224.745797,16.7357904 224.878211,16.9446714 224.823751,17.1594139 L218.202515,43.1230018 C218.199312,43.1341918 218.196108,43.1453819 218.192371,43.1565719" id="Fill-40" fill="#333333"></path>
                    <path d="M221.221769,44.0219361 C221.153426,44.2174956 220.944126,44.3405861 220.736962,44.299556 C220.518052,44.25746 220.385104,44.0491119 220.440099,43.8338366 L225.710497,23.1679396 C225.770831,22.9521314 225.987072,22.8135879 226.205982,22.8562167 C226.424892,22.8988455 226.55784,23.1071936 226.502846,23.3219361 L221.232447,43.9883659 C221.229244,43.999556 221.22604,44.010746 221.221769,44.0219361" id="Fill-41" fill="#333333"></path>
                    <path d="M236.161328,48.2884902 C236.092985,48.4840497 235.883152,48.6071403 235.675988,48.566643 C235.457078,48.5240142 235.324664,48.3161989 235.379124,48.1009236 L242.000893,22.1373357 C242.059092,21.9225933 242.276934,21.7824512 242.495844,21.8256128 C242.714221,21.8682416 242.847169,22.0765897 242.792174,22.2913321 L236.171473,48.2554529 C236.168269,48.266643 236.165065,48.277833 236.161328,48.2884902" id="Fill-42" fill="#333333"></path>
                    <path d="M239.190726,49.1538544 C239.122383,49.3494139 238.91255,49.4725044 238.70592,49.4320071 C238.48701,49.3893783 238.354062,49.1810302 238.409056,48.9657549 L243.679455,28.3003908 C243.732314,28.0824512 243.956029,27.9460391 244.17494,27.9886679 C244.39385,28.0307638 244.526798,28.2396448 244.471803,28.4543872 L239.201405,49.1208171 C239.198201,49.1320071 239.194997,49.1426643 239.190726,49.1538544" id="Fill-43" fill="#333333"></path>
                    <path d="M212.217988,57.8997336 L215.227204,46.099556 L224.6585,48.7936945 C222.881589,49.251421 221.333733,50.4205151 220.414844,52.0755773 C220.095021,51.3897869 219.50343,50.8372114 218.726565,50.6187389 C217.322336,50.2222913 215.879129,51.051421 215.503244,52.4704263 C215.128427,53.8894316 215.962956,55.3601243 217.367719,55.7565719 C218.14405,55.9755773 218.92572,55.8103908 219.538135,55.387833 C219.514108,57.3865897 220.346501,59.287833 221.767282,60.6274423 L212.217988,57.8997336 Z M227.004578,48.6263766 L215.072365,45.218206 C214.964512,45.187833 214.84598,45.2027531 214.744533,45.260302 C214.644689,45.3183837 214.568337,45.4142984 214.543243,45.5219361 L211.334872,58.1022202 C211.283615,58.3047069 211.397342,58.5034636 211.598099,58.5604796 L223.530311,61.9686501 C223.638698,61.9990231 223.75723,61.984103 223.858143,61.9265542 C223.947842,61.8748668 224.016719,61.7928064 224.049289,61.6979574 C224.053026,61.6867673 224.05623,61.6755773 224.059433,61.6643872 L227.267804,49.084103 C227.319595,48.8821492 227.205334,48.6833925 227.004578,48.6263766 Z" id="Fill-44" fill="#333333"></path>
                    <path d="M197.25814,40.9679041 L206.840537,43.7046714 C204.941891,44.1043162 203.273367,45.3091119 202.303221,47.0547602 C201.983932,46.3695027 201.391807,45.8169272 200.615476,45.597389 C199.210713,45.2014742 197.768041,46.0306039 197.392156,47.4496092 C197.016804,48.8680817 197.851333,50.3398401 199.256097,50.7357549 C200.032427,50.9547602 200.814097,50.7895737 201.427046,50.3675488 C201.404087,52.2602664 202.147848,54.0671936 203.43408,55.3908171 L194.249992,52.7680817 L197.25814,40.9679041 Z M209.036581,43.4941918 L197.103301,40.0860213 C196.995981,40.0551155 196.876915,40.0700355 196.776537,40.1281172 C196.675625,40.1861989 196.599273,40.2821137 196.574712,40.3897513 L193.366876,52.9700355 C193.315085,53.1725222 193.429345,53.370746 193.629568,53.4282948 L205.561781,56.8359325 C205.669634,56.8673712 205.7887,56.8524512 205.889078,56.7938366 C205.979312,56.7426821 206.047655,56.6606217 206.080224,56.5652398 C206.083962,56.5551155 206.087699,56.5433925 206.090369,56.5327353 L209.299274,43.9524512 C209.350531,43.7499645 209.237338,43.5517407 209.036581,43.4941918 Z" id="Fill-45" fill="#333333"></path>
                    <path d="M230.186946,63.0321314 L233.196161,51.2319538 L242.863453,53.9932327 C241.020869,54.4205861 239.408408,55.6077975 238.461221,57.3124156 C238.141398,56.6266252 237.549807,56.0740497 236.773476,55.8550444 C235.368713,55.4591297 233.92604,56.2882593 233.550689,57.7067318 C233.175338,59.1257371 234.009333,60.5974956 235.414096,60.9934103 C236.190427,61.2124156 236.972097,61.0466963 237.585046,60.6241385 C237.561553,62.5664121 238.346426,64.4154352 239.694593,65.7475844 L230.186946,63.0321314 Z M244.973001,53.7582416 L233.041322,50.350071 C232.933469,50.319698 232.814403,50.3346181 232.714025,50.3926998 C232.613113,50.4502487 232.537295,50.5466963 232.5122,50.6543339 L229.30383,63.2346181 C229.252039,63.4365719 229.366299,63.6353286 229.567056,63.6923446 L241.499269,67.1005151 C241.607656,67.131421 241.726188,67.1165009 241.8271,67.0584192 C241.917334,67.0067318 241.985677,66.9252043 242.018246,66.8303552 C242.021984,66.8191652 242.025721,66.8079751 242.028391,66.7967851 L245.236227,54.215968 C245.287484,54.0140142 245.173758,53.8157904 244.973001,53.7582416 Z" id="Fill-46" fill="#333333"></path>
                    <path d="M209.626571,78.3216874 C212.134963,78.7490409 220.564077,80.1845648 223.072468,80.6119183 C229.427274,81.6946892 236.192136,73.1588099 238.234942,61.5200888 L224.787977,59.2298579 C222.889331,69.8449556 209.626571,78.3216874 209.626571,78.3216874" id="Fill-47" fill="#C0CED7"></path>
                    <path d="M224.788778,59.2318828 L218.101336,59.0912078 C216.295059,67.8690053 211.890691,71.8468028 210.746484,71.8420071 L209.638051,78.3231794 C215.989119,79.3931616 222.747573,70.862611 224.788778,59.2318828" id="Fill-48" fill="#DCECF6"></path>
                </g>
            </g>
        </g>
    </g>
</svg>