<svg xmlns="http://www.w3.org/2000/svg" xmlns:xlink="http://www.w3.org/1999/xlink" width="480" height="300" viewBox="0 0 480 300">
    <defs>
        <path id="a" d="M.185.622h96.268v70.56H.185z"/>
        <path id="c" d="M0 299.287h223.703V0H0z"/>
    </defs>
    <g fill="none" fill-rule="evenodd">
        <path fill="#FFF" fill-rule="nonzero" d="M0 0h480v300H0z"/>
        <g transform="translate(128)">
            <g transform="translate(127.25 59.442)">
                <mask id="b" fill="#fff">
                    <use xlink:href="#a"/>
                </mask>
                <path fill="#C0CED7" d="M.185 71.182v-10.41c30.593 0 53.786-3.447 68.937-10.244C79.882 45.7 85.89 39.264 86.04 32.405c.226-10.402-12.374-20.792-25.926-21.382l.451-10.4c19.468.845 36.236 15.803 35.883 32.008C96.197 44.222 86.312 71.182.185 71.182" mask="url(#b)"/>
            </g>
            <path fill="#DCECF6" d="M188.988 70.583a27.602 27.602 0 0 0-1.624-.117l.45-10.403c.736.032 1.484.087 2.224.16l-1.05 10.36zm7.982 1.943c-.515-.2-1.037-.388-1.565-.564l3.271-9.883c.688.227 1.383.477 2.068.743l-3.774 9.704zm7.224 3.967a30.914 30.914 0 0 0-1.351-.941l5.716-8.702c.616.405 1.226.83 1.814 1.263l-6.179 8.38zm5.694 5.642a23.79 23.79 0 0 0-.969-1.24l7.98-6.684c.49.584.963 1.189 1.407 1.798l-8.418 6.126zm3.112 6.7a14.732 14.732 0 0 0-.361-1.375l9.932-3.121c.245.779.452 1.57.617 2.352L213 88.836zm9.493 10.087l-9.867-3.322c.146-.436.27-.88.37-1.323l10.162 2.262c-.178.799-.402 1.6-.665 2.383zm-6.2 10.02l-7.56-7.158c.361-.381.707-.772 1.027-1.163l8.052 6.599a31.864 31.864 0 0 1-1.52 1.723zm-8.58 6.819l-5.447-8.874c.496-.303.974-.611 1.436-.922l5.816 8.635c-.581.391-1.183.778-1.806 1.16zm-9.35 4.682l-3.956-9.63c.561-.232 1.109-.464 1.644-.701l4.214 9.521a78.45 78.45 0 0 1-1.903.81zm-9.629 3.328l-2.9-9.998a95.626 95.626 0 0 0 1.754-.527l3.085 9.945c-.635.196-1.282.39-1.939.58zM179 126.178l-2.134-10.19c.615-.128 1.222-.26 1.821-.393l2.26 10.163c-.64.143-1.289.282-1.947.42zm-9.785 1.74l-1.534-10.3c.624-.092 1.241-.187 1.852-.285l1.64 10.282c-.645.103-1.298.204-1.958.302zm-9.796 1.221l-1.064-10.357c.632-.065 1.257-.131 1.876-.2l1.146 10.348c-.647.072-1.3.141-1.958.209zm-9.796.81l-.678-10.388c.637-.041 1.268-.085 1.894-.13l.738 10.387c-.646.045-1.297.09-1.954.132zm-9.794.476l-.34-10.405c.637-.022 1.268-.044 1.894-.07l.406 10.404c-.649.025-1.302.05-1.96.07zm-9.774.19l-.061-10.411c.637-.004 1.268-.01 1.897-.018l.123 10.411c-.649.008-1.302.014-1.96.018z"/>
            <path fill="#A5B1B9" d="M131.29 120.213v10.411c1.75 0 3.457-.015 5.145-.037a277.417 277.417 0 0 0-.533-10.403c-1.52.018-3.054.029-4.611.029M181.802 74.68l1.737.03c2.85.046 5.22-2.248 5.268-5.099l.14-8.534c.046-2.85-2.248-5.22-5.098-5.267l-1.738-.029-.31 18.9z"/>
            <mask id="d" fill="#fff">
                <use xlink:href="#c"/>
            </mask>
            <path fill="#A5B1B9" d="M101.203 288.867h10.799v-99.471h-10.799z" mask="url(#d)"/>
            <path fill="#DCECF6" d="M101.203 191.123h10.799v-1.727h-10.799v1.727zm0 8.64h10.799v-1.728h-10.799v1.727zm0 8.638h10.799v-1.728h-10.799v1.728zm0 8.64h10.799v-1.728h-10.799v1.727zm0 8.638h10.799v-1.728h-10.799v1.728zm0 8.639h10.799v-1.729h-10.799v1.729zm0 8.638h10.799v-1.727h-10.799v1.727zm0 8.64h10.799v-1.73h-10.799v1.73zm0 8.637h10.799v-1.727h-10.799v1.727zm0 8.64h10.799v-1.728h-10.799v1.727zm0 8.639h10.799v-1.728h-10.799v1.728zm0 8.638h10.799v-1.728h-10.799v1.728z" mask="url(#d)"/>
            <path fill="#7C858B" d="M101.214 187.953v14.322c3.659-.037 7.257-.12 10.777-.251v-14.07h-10.777z" mask="url(#d)"/>
            <path fill="#A5B1B9" d="M75.207 288.867h10.799v-99.471H75.207z" mask="url(#d)"/>
            <path fill="#DCECF6" d="M75.207 191.123h10.799v-1.727H75.207v1.727zm0 8.64h10.799v-1.728H75.207v1.727zm0 8.638h10.799v-1.728H75.207v1.728zm0 8.639h10.799v-1.728H75.207v1.728zm0 8.638h10.799v-1.728H75.207v1.728zm0 8.64h10.799v-1.729H75.207v1.729zm0 8.638h10.799v-1.727H75.207v1.727zm0 8.64h10.799v-1.73H75.207v1.73zm0 8.637h10.799v-1.727H75.207v1.727zm0 8.639h10.799v-1.728H75.207v1.728zm0 8.639h10.799v-1.728H75.207v1.728zm0 8.639h10.799v-1.728H75.207v1.728z" mask="url(#d)"/>
            <path fill="#7C858B" d="M85.996 187.953v14.322a401.335 401.335 0 0 1-10.777-.251v-14.07h10.777z" mask="url(#d)"/>
            <path fill="#DCECF6" d="M113.225 277.223c10.401 1.288 22.873 11.206 21.962 21.564-6.09.698-12.69.685-19.516-.16-6.826-.846-13.23-2.442-18.965-4.606 1.643-10.266 6.118-18.086 16.519-16.798M73.985 277.223c-10.401 1.288-22.873 11.206-21.962 21.564 6.09.698 12.69.685 19.516-.16 6.826-.846 13.23-2.442 18.965-4.606-1.643-10.266-6.118-18.086-16.519-16.798" mask="url(#d)"/>
            <path fill="#C0CED7" d="M159.407 49.844l.464 2.866a14.363 14.363 0 0 1 3.875-.472c7.986.13 14.377 6.733 14.246 14.719-.13 7.986-6.734 14.377-14.72 14.246a14.414 14.414 0 0 1-4.366-.75l-.044 2.631.609 3.76c1.2.24 2.435.386 3.702.406 11.32.186 20.68-8.873 20.866-20.194.185-11.32-8.873-20.68-20.194-20.865a20.521 20.521 0 0 0-4.385.402l-.053 3.25z" mask="url(#d)"/>
            <path fill="#DCECF6" d="M159.417 49.222a14.438 14.438 0 0 1 4.388-.605c7.987.13 14.378 6.734 14.247 14.72-.131 7.987-6.734 14.377-14.721 14.247a14.457 14.457 0 0 1-4.366-.75l-.102 6.25c1.406.33 2.867.521 4.369.546 11.32.185 20.681-8.874 20.866-20.193.185-11.321-8.873-20.681-20.194-20.867a20.58 20.58 0 0 0-4.385.402l-.102 6.25z" mask="url(#d)"/>
            <path fill="#C0CED7" d="M9.35 210.64c-.427-1.36-10.255-33.627 5.13-60.02 8.787-15.073 23.876-25.004 44.849-29.516l2.181 10.135c-18.006 3.873-30.816 12.15-38.074 24.602-13.106 22.484-4.285 51.413-4.194 51.702l-9.893 3.098z" mask="url(#d)"/>
            <path fill="#DCECF6" d="M57.026 132.322l-2.698-10.01c.581-.156 1.17-.308 1.764-.456l2.514 10.056c-.532.134-1.059.27-1.58.41zm-7.685 2.5l-3.735-9.671a87.611 87.611 0 0 1 1.724-.645l3.521 9.751a71.76 71.76 0 0 0-1.51.565zm-7.241 3.322l-4.931-9.119a70.81 70.81 0 0 1 1.655-.865l4.68 9.25c-.475.24-.943.485-1.404.734zm-6.618 4.226l-6.23-8.286a57.781 57.781 0 0 1 1.53-1.112l5.963 8.48c-.43.301-.85.607-1.263.918zm-5.805 5.155l-7.511-7.145c.44-.461.889-.919 1.338-1.358l7.257 7.402c-.363.355-.727.726-1.084 1.101zm-4.82 6.037l-8.63-5.743c.354-.533.719-1.06 1.085-1.57l8.423 6.042c-.296.413-.591.84-.878 1.271zm-3.736 6.8l-9.466-4.225c.259-.58.529-1.159.801-1.719l9.322 4.533c-.227.47-.446.94-.657 1.412zm-2.633 7.389l-9.995-2.745c.165-.601.34-1.204.524-1.806l9.911 3.04a53.12 53.12 0 0 0-.44 1.51zm-1.583 7.795l-10.27-1.412c.083-.61.175-1.22.274-1.834l10.233 1.66c-.086.531-.165 1.06-.237 1.586zm-.628 8.025l-10.364-.237c.014-.609.034-1.222.061-1.84l10.357.46a77.56 77.56 0 0 0-.054 1.617zm-10.11 8.913a98.428 98.428 0 0 1-.123-1.823l10.35-.598c.031.55.068 1.093.11 1.626l-10.337.795zm1.12 9.05c-.1-.578-.196-1.18-.291-1.803l10.25-1.554c.083.556.171 1.094.26 1.61l-10.22 1.747zm2.063 9.108a43.368 43.368 0 0 1-.536-1.917l10.035-2.603c.237.916.394 1.423.395 1.429l-9.894 3.091z" mask="url(#d)"/>
            <path fill="#A5B1B9" d="M59.33 121.104a96.279 96.279 0 0 0-7.923 2.063c-.201 3.39-.35 6.99-.442 11.07a81.938 81.938 0 0 1 10.545-2.998l-2.18-10.135zM25.506 211.138l-.542-1.651c-.888-2.709-3.832-4.197-6.541-3.308l-8.11 2.661c-2.708.89-4.196 3.833-3.307 6.542l.541 1.652 17.96-5.896z" mask="url(#d)"/>
            <path fill="#C0CED7" d="M8.781 240.624a14.4 14.4 0 0 1-2.009-3.948c-2.492-7.59 1.656-15.79 9.244-18.28 7.59-2.493 15.79 1.654 18.281 9.244.476 1.449.708 2.92.721 4.37l5.94-1.949a20.522 20.522 0 0 0-.915-4.308c-3.532-10.757-15.156-16.636-25.913-13.103-10.757 3.53-16.636 15.155-13.104 25.911a20.539 20.539 0 0 0 1.817 4.012l5.938-1.95z" mask="url(#d)"/>
            <path fill="#DCECF6" d="M9.371 240.43l2.556-1.377a14.434 14.434 0 0 1-1.715-3.506c-2.492-7.59 1.656-15.79 9.244-18.282 7.589-2.492 15.79 1.656 18.281 9.245.476 1.45.708 2.921.722 4.37l2.499-.819 3.352-1.807a20.407 20.407 0 0 0-.828-3.63c-3.53-10.757-15.155-16.635-25.912-13.104C6.813 215.05.935 226.676 4.466 237.432a20.53 20.53 0 0 0 1.816 4.011l3.09-1.013zM93.605 195.87c-13.22 0-25.718-.633-36.832-1.757-1.996-18.435-3.128-26.565-3.129-48.832 0-22.268 1.133-30.766 3.129-49.201 11.114-1.125 23.613-1.759 36.832-1.759 13.22 0 25.717.634 36.832 1.759 1.996 18.435 3.128 26.933 3.129 49.201 0 22.267-1.133 30.397-3.129 48.832-11.115 1.124-23.613 1.758-36.832 1.758" mask="url(#d)"/>
            <path fill="#A5B1B9" d="M93.605 94.321c-13.22 0-25.718.634-36.832 1.76-1.002 9.248-1.786 15.997-2.318 23.238a633.06 633.06 0 0 0 37.52 1.183h3.26a633.06 633.06 0 0 0 37.52-1.183c-.533-7.241-1.316-13.99-2.318-23.238-11.115-1.126-23.613-1.76-36.832-1.76" mask="url(#d)"/>
            <path fill="#78AF45" d="M93.605 0c-8.887 0-16.093 7.205-16.093 16.093v32.5h32.186v-32.5C109.698 7.205 102.493 0 93.605 0" mask="url(#d)"/>
            <path fill="#93BF6A" d="M96.557.275A16.178 16.178 0 0 0 93.605 0c-8.888 0-16.093 7.205-16.093 16.093v32.5h5.903v-32.5c0-7.88 5.665-14.432 13.142-15.818" mask="url(#d)"/>
            <path fill="#A5B1B9" d="M113.552 54.555H73.659c-2.852 0-5.184-2.332-5.184-5.183V33.144c0-2.85 2.332-5.183 5.184-5.183h39.893c2.85 0 5.183 2.332 5.183 5.183v16.228c0 2.851-2.333 5.183-5.183 5.183" mask="url(#d)"/>
            <path fill="#C0CED7" d="M156.6 37.215c-18.824-2.038-40.248-3.195-62.987-3.195h-.016c-22.74 0-44.163 1.157-62.987 3.195-1.15 11.35-1.796 24.114-1.796 37.612 0 4.987.089 9.874.258 14.626h129.066c.169-4.752.258-9.639.258-14.626 0-13.498-.647-26.261-1.796-37.612" mask="url(#d)"/>
            <path fill="#504F51" d="M62.868 61.102a8.807 8.807 0 1 1-17.615 0 8.807 8.807 0 0 1 8.808-8.808 8.807 8.807 0 0 1 8.807 8.808M141.957 61.102a8.807 8.807 0 1 1-17.615 0 8.807 8.807 0 0 1 8.808-8.808 8.807 8.807 0 0 1 8.807 8.808" mask="url(#d)"/>
            <path fill="#DCECF6" d="M91.974 115.634h3.262c22.134-.054 42.989-1.201 61.363-3.19.725-7.158 1.25-14.879 1.539-22.99H29.072c.29 8.111.814 15.832 1.538 22.99 18.375 1.989 39.23 3.136 61.364 3.19" mask="url(#d)"/>
            <path fill="#A5B1B9" d="M93.605 80.83c-4.864 0-13.214 8.806-13.214 8.806s8.35 8.808 13.214 8.808c4.864 0 13.214-8.808 13.214-8.808s-8.35-8.807-13.214-8.807" mask="url(#d)"/>
        </g>
    </g>
</svg>
